<?xml version="1.0" encoding="UTF-8"?>
<!DOCTYPE svg PUBLIC "-//W3C//DTD SVG 1.0//EN"
"http://www.w3.org/TR/2001/REC-SVG-20010904/DTD/svg10.dtd">
<!-- Created HDS 2004.1a -->


<svg width="100%" height="100%" viewBox="0 0 914 677" preserveAspectRatio="none"
xmlns="http://www.w3.org/2000/svg" xmlns:xlink="http://www.w3.org/1999/xlink" xmlns:a3="http://ns.adobe.com/AdobeSVGViewerExtensions/3.0/" 
a3:scriptImplementation="Adobe" xmlns:attrib="http://www.carto.net/attrib"
onload="init(evt)" onzoom="svgMoved(evt)" onscroll="svgMoved(evt)"
onresize="myMapApp.resetFactors();" zoomAndPan="enable">
<script type="text/ecmascript" a3:scriptImplementation="Adobe" xlink:href="../../scripts/svgFunctions.js" />


<title>No title</title>
<desc></desc>


<defs>
<!-- section for CSS stylesheet definitions -->
<style type="text/css"><![CDATA[
.allText {font-family:Sans-Serif;fill:darkcyan;}
.subTitleText {font-size:20;font-weight:bold;}
.normalText {font-size:15;}
.smallText {font-size:12;}
.boldText {font-weight:bold;}
.rightText {text-anchor:end;}
.centerText {text-anchor:middle;}
.dragRect {fill:darkcyan;stroke:none;opacity:0.4;}
]]></style>
<symbol id="upArrow" overflow="visible" style="stroke:darkcyan;fill:darkcyan;stroke-width:1;" pointer-events="none">
<polygon points="5,0 10,5 0,5 5,0" />
</symbol>
<symbol id="leftArrow" overflow="visible" style="stroke:darkcyan;fill:darkcyan;stroke-width:1;" pointer-events="none">
<polygon points="0,5 5,0 5,10 0,5" />
</symbol>
<symbol id="rightArrow" overflow="visible" style="stroke:darkcyan;fill:darkcyan;stroke-width:1;" pointer-events="none">
<polygon points="5,0 10,5 5,10 5,0" />
</symbol>
<symbol id="downArrow" overflow="visible" style="stroke:darkcyan;fill:darkcyan;stroke-width:1;" pointer-events="none">
<polygon points="0,0 5,5 10,0 0,0" />
</symbol>

</defs>
<svg id="mainMap" x="0" y="150" viewBox="0 0 1020 642" width="912" height="512">


<menu id='HdsSvgMenu' xmlns='http://foo' onload='GetPosition( evt )'>
 <header>Custom Menu</header>
 <item action='ZoomIn'>Zoom &amp;In</item>
 <item action='ZoomOut'>Zoom &amp;Out</item>
 <item action='OriginalView'>&amp;Zoom Full</item>
 <separator />
 <item action='Quality'>Higher &amp;Quality</item>
 <separator />
 <item action='Find'>&amp;Find...</item>
 <item action='FindAgain'>Find &amp;Again</item>
 <separator />
 <item action='CopySVG'>&amp;Copy SVG</item>
 <item action='ViewSVG'>&amp;View SVG...</item>
 <item action='ViewSource'>View Sourc&amp;e...</item>
 <item action='SaveAs'>&amp;Save SVG As...</item>
 <separator />
 <item action='Help'>&amp;Help...</item>
 <item action='About'>About SVG Viewer...</item>
</menu>

<script>
 <![CDATA[
  var newMenuRoot = parseXML( printNode( document.getElementById( 'HdsSvgMenu' ) ), contextMenu );
  contextMenu.replaceChild( newMenuRoot, contextMenu.firstChild );
 ]]>
</script>

<clipPath id="SVG_Clip">
<rect x="0" y="0" width="1020" height="642" />
</clipPath>
<g id="hds_models" style="clip-path:url(#SVG_Clip)">
<rect id="r0"  stroke="rgb(0,255,0)" fill="rgb(0,255,0)" stroke-width="1px" stroke-dasharray="" y="276px" x="163px" width="562px" height="261px" rx="0" ry="0" />
<rect id="r0"  stroke="rgb(0,128,0)" fill="none" stroke-width="3px" stroke-dasharray="" y="276px" x="163px" width="562px" height="261px" rx="0" ry="0" />
<rect id="r0"  stroke="rgb(254,254,179)" fill="rgb(254,254,179)" stroke-width="1px" stroke-dasharray="" y="625px" x="400px" width="212px" height="12px" rx="0" ry="0" />
<rect id="r0"  stroke="rgb(0,0,0)" fill="none" stroke-width="1px" stroke-dasharray="" y="625px" x="400px" width="212px" height="12px" rx="0" ry="0" />
<rect id="r0"  stroke="rgb(254,254,179)" fill="rgb(254,254,179)" stroke-width="1px" stroke-dasharray="" y="575px" x="612px" width="50px" height="12px" rx="0" ry="0" />
<rect id="r0"  stroke="rgb(0,0,0)" fill="none" stroke-width="1px" stroke-dasharray="" y="575px" x="612px" width="50px" height="12px" rx="0" ry="0" />
<rect id="r0"  stroke="rgb(254,254,179)" fill="rgb(254,254,179)" stroke-width="1px" stroke-dasharray="" y="600px" x="400px" width="212px" height="12px" rx="0" ry="0" />
<rect id="r0"  stroke="rgb(0,0,0)" fill="none" stroke-width="1px" stroke-dasharray="" y="600px" x="400px" width="212px" height="12px" rx="0" ry="0" />
<rect id="r0"  stroke="rgb(254,254,179)" fill="rgb(254,254,179)" stroke-width="1px" stroke-dasharray="" y="600px" x="350px" width="50px" height="12px" rx="0" ry="0" />
<rect id="r0"  stroke="rgb(0,0,0)" fill="none" stroke-width="1px" stroke-dasharray="" y="600px" x="350px" width="50px" height="12px" rx="0" ry="0" />
<rect id="r0"  stroke="rgb(254,254,179)" fill="rgb(254,254,179)" stroke-width="1px" stroke-dasharray="" y="587px" x="612px" width="250px" height="50px" rx="0" ry="0" />
<rect id="r0"  stroke="rgb(0,0,0)" fill="none" stroke-width="1px" stroke-dasharray="" y="587px" x="612px" width="250px" height="50px" rx="0" ry="0" />
<rect id="r0"  stroke="rgb(254,254,179)" fill="rgb(254,254,179)" stroke-width="1px" stroke-dasharray="" y="575px" x="662px" width="200px" height="12px" rx="0" ry="0" />
<rect id="r0"  stroke="rgb(0,0,0)" fill="none" stroke-width="1px" stroke-dasharray="" y="575px" x="662px" width="200px" height="12px" rx="0" ry="0" />
<rect id="r0"  stroke="rgb(254,254,179)" fill="rgb(254,254,179)" stroke-width="1px" stroke-dasharray="" y="575px" x="350px" width="262px" height="25px" rx="0" ry="0" />
<rect id="r0"  stroke="rgb(0,0,0)" fill="none" stroke-width="1px" stroke-dasharray="" y="575px" x="350px" width="262px" height="25px" rx="0" ry="0" />
<rect id="r0"  stroke="rgb(254,254,179)" fill="rgb(254,254,179)" stroke-width="1px" stroke-dasharray="" y="612px" x="350px" width="50px" height="13px" rx="0" ry="0" />
<rect id="r0"  stroke="rgb(0,0,0)" fill="none" stroke-width="1px" stroke-dasharray="" y="612px" x="350px" width="50px" height="13px" rx="0" ry="0" />
<rect id="r0"  stroke="rgb(254,254,179)" fill="rgb(254,254,179)" stroke-width="1px" stroke-dasharray="" y="625px" x="350px" width="50px" height="12px" rx="0" ry="0" />
<rect id="r0"  stroke="rgb(0,0,0)" fill="none" stroke-width="1px" stroke-dasharray="" y="625px" x="350px" width="50px" height="12px" rx="0" ry="0" />
<rect id="r0"  stroke="rgb(254,254,179)" fill="rgb(254,254,179)" stroke-width="1px" stroke-dasharray="" y="612px" x="400px" width="212px" height="13px" rx="0" ry="0" />
<rect id="r0"  stroke="rgb(0,0,0)" fill="none" stroke-width="1px" stroke-dasharray="" y="612px" x="400px" width="212px" height="13px" rx="0" ry="0" />
<polyline id="r0"  stroke="rgb(0,255,0)" fill="rgb(0,255,0)" stroke-width="1px" stroke-dasharray="" points="162, 287,153, 292,153, 283,162, 287" /> 
<polyline id="r0"  stroke="rgb(0,0,0)" fill="none" stroke-width="1px" stroke-dasharray="" points="162, 287,153, 292,153, 283,162, 287" /> 
<polyline id="r0"  stroke="rgb(0,255,0)" fill="rgb(0,255,0)" stroke-width="1px" stroke-dasharray="" points="734, 287,725, 292,725, 283,734, 287" /> 
<polyline id="r0"  stroke="rgb(0,0,0)" fill="none" stroke-width="1px" stroke-dasharray="" points="734, 287,725, 292,725, 283,734, 287" /> 
<polyline id="r0"  stroke="rgb(0,255,0)" fill="rgb(0,255,0)" stroke-width="1px" stroke-dasharray="" points="734, 312,725, 317,725, 308,734, 312" /> 
<polyline id="r0"  stroke="rgb(0,0,0)" fill="none" stroke-width="1px" stroke-dasharray="" points="734, 312,725, 317,725, 308,734, 312" /> 
<polyline id="r0"  stroke="rgb(0,255,0)" fill="rgb(0,255,0)" stroke-width="1px" stroke-dasharray="" points="734, 337,725, 342,725, 333,734, 337" /> 
<polyline id="r0"  stroke="rgb(0,0,0)" fill="none" stroke-width="1px" stroke-dasharray="" points="734, 337,725, 342,725, 333,734, 337" /> 
<polyline id="r0"  stroke="rgb(0,255,0)" fill="rgb(0,255,0)" stroke-width="1px" stroke-dasharray="" points="734, 362,725, 367,725, 358,734, 362" /> 
<polyline id="r0"  stroke="rgb(0,0,0)" fill="none" stroke-width="1px" stroke-dasharray="" points="734, 362,725, 367,725, 358,734, 362" /> 
<polyline id="r0"  stroke="rgb(0,255,0)" fill="rgb(0,255,0)" stroke-width="1px" stroke-dasharray="" points="162, 312,153, 317,153, 308,162, 312" /> 
<polyline id="r0"  stroke="rgb(0,0,0)" fill="none" stroke-width="1px" stroke-dasharray="" points="162, 312,153, 317,153, 308,162, 312" /> 
<polyline id="r0"  stroke="rgb(0,255,0)" fill="rgb(0,255,0)" stroke-width="1px" stroke-dasharray="" points="162, 337,153, 342,153, 333,162, 337" /> 
<polyline id="r0"  stroke="rgb(0,0,0)" fill="none" stroke-width="1px" stroke-dasharray="" points="162, 337,153, 342,153, 333,162, 337" /> 
<polyline id="r0"  stroke="rgb(0,255,0)" fill="rgb(0,255,0)" stroke-width="1px" stroke-dasharray="" points="162, 362,153, 367,153, 358,162, 362" /> 
<polyline id="r0"  stroke="rgb(0,0,0)" fill="none" stroke-width="1px" stroke-dasharray="" points="162, 362,153, 367,153, 358,162, 362" /> 
<polyline id="r0"  stroke="rgb(0,255,0)" fill="rgb(0,255,0)" stroke-width="1px" stroke-dasharray="" points="162, 387,153, 392,153, 383,162, 387" /> 
<polyline id="r0"  stroke="rgb(0,0,0)" fill="none" stroke-width="1px" stroke-dasharray="" points="162, 387,153, 392,153, 383,162, 387" /> 
<polyline id="r0"  stroke="rgb(0,255,0)" fill="rgb(0,255,0)" stroke-width="1px" stroke-dasharray="" points="734, 387,725, 392,725, 383,734, 387" /> 
<polyline id="r0"  stroke="rgb(0,0,0)" fill="none" stroke-width="1px" stroke-dasharray="" points="734, 387,725, 392,725, 383,734, 387" /> 
<polyline id="r0"  stroke="rgb(0,255,0)" fill="rgb(0,255,0)" stroke-width="1px" stroke-dasharray="" points="734, 412,725, 417,725, 408,734, 412" /> 
<polyline id="r0"  stroke="rgb(0,0,0)" fill="none" stroke-width="1px" stroke-dasharray="" points="734, 412,725, 417,725, 408,734, 412" /> 
<polyline id="r0"  stroke="rgb(0,255,0)" fill="rgb(0,255,0)" stroke-width="1px" stroke-dasharray="" points="734, 437,725, 442,725, 433,734, 437" /> 
<polyline id="r0"  stroke="rgb(0,0,0)" fill="none" stroke-width="1px" stroke-dasharray="" points="734, 437,725, 442,725, 433,734, 437" /> 
<polyline id="r0"  stroke="rgb(0,255,0)" fill="rgb(0,255,0)" stroke-width="1px" stroke-dasharray="" points="162, 412,153, 417,153, 408,162, 412" /> 
<polyline id="r0"  stroke="rgb(0,0,0)" fill="none" stroke-width="1px" stroke-dasharray="" points="162, 412,153, 417,153, 408,162, 412" /> 
<polyline id="r0"  stroke="rgb(0,255,0)" fill="rgb(0,255,0)" stroke-width="1px" stroke-dasharray="" points="734, 462,725, 467,725, 458,734, 462" /> 
<polyline id="r0"  stroke="rgb(0,0,0)" fill="none" stroke-width="1px" stroke-dasharray="" points="734, 462,725, 467,725, 458,734, 462" /> 
<polyline id="r0"  stroke="rgb(0,255,0)" fill="rgb(0,255,0)" stroke-width="1px" stroke-dasharray="" points="162, 437,153, 442,153, 433,162, 437" /> 
<polyline id="r0"  stroke="rgb(0,0,0)" fill="none" stroke-width="1px" stroke-dasharray="" points="162, 437,153, 442,153, 433,162, 437" /> 
<polyline id="r0"  stroke="rgb(0,255,0)" fill="rgb(0,255,0)" stroke-width="1px" stroke-dasharray="" points="162, 462,153, 467,153, 458,162, 462" /> 
<polyline id="r0"  stroke="rgb(0,0,0)" fill="none" stroke-width="1px" stroke-dasharray="" points="162, 462,153, 467,153, 458,162, 462" /> 
<polyline id="r0"  stroke="rgb(0,255,0)" fill="rgb(0,255,0)" stroke-width="1px" stroke-dasharray="" points="162, 487,153, 492,153, 483,162, 487" /> 
<polyline id="r0"  stroke="rgb(0,0,0)" fill="none" stroke-width="1px" stroke-dasharray="" points="162, 487,153, 492,153, 483,162, 487" /> 
<polyline id="r0"  stroke="rgb(0,255,0)" fill="rgb(0,255,0)" stroke-width="1px" stroke-dasharray="" points="734, 487,725, 492,725, 483,734, 487" /> 
<polyline id="r0"  stroke="rgb(0,0,0)" fill="none" stroke-width="1px" stroke-dasharray="" points="734, 487,725, 492,725, 483,734, 487" /> 
<polyline id="r0"  stroke="rgb(0,255,0)" fill="rgb(0,255,0)" stroke-width="1px" stroke-dasharray="" points="730, 517,734, 512,730, 508,725, 512,730, 517" /> 
<polyline id="r0"  stroke="rgb(0,0,0)" fill="none" stroke-width="1px" stroke-dasharray="" points="730, 517,734, 512,730, 508,725, 512,730, 517" /> 
<polyline id="r0"  stroke="rgb(0,255,0)" fill="rgb(0,255,0)" stroke-width="1px" stroke-dasharray="" points="162, 512,153, 517,153, 508,162, 512" /> 
<polyline id="r0"  stroke="rgb(0,0,0)" fill="none" stroke-width="1px" stroke-dasharray="" points="162, 512,153, 517,153, 508,162, 512" /> 
<polyline id="r0"  stroke="rgb(0,255,0)" fill="rgb(0,255,0)" stroke-width="1px" stroke-dasharray="" points="734, 525,725, 530,725, 520,734, 525" /> 
<polyline id="r0"  stroke="rgb(0,0,0)" fill="none" stroke-width="1px" stroke-dasharray="" points="734, 525,725, 530,725, 520,734, 525" /> 
<polyline id="r0"  stroke="rgb(0,255,0)" fill="rgb(0,255,0)" stroke-width="1px" stroke-dasharray="" points="162, 525,153, 530,153, 520,162, 525" /> 
<polyline id="r0"  stroke="rgb(0,0,0)" fill="none" stroke-width="1px" stroke-dasharray="" points="162, 525,153, 530,153, 520,162, 525" /> 
<text x="550" y="144" font-family="courier" fill="rgb(0,0,0)" font-size="11" text-anchor="start">threshold_discr_i : IN     std_logic_vector (NUM_TRIG_INPUTS-1 DOWNTO 0) ;</text>
<text x="550" y="42" font-family="courier" fill="rgb(0,0,0)" font-size="11" text-anchor="start">cfd_discr_i       : IN     std_logic_vector (NUM_TRIG_INPUTS-1 DOWNTO 0) ;</text>
<text x="409" y="360" font-family="courier" fill="rgb(0,0,0)" font-weight="800" font-size="11" text-anchor="start">fmc_mTLU_lib</text>
<text x="550" y="222" font-family="courier" fill="rgb(0,0,0)" font-size="11" text-anchor="start">leds_o            : OUT    std_logic_vector (3 DOWNTO 0) ;</text>
<text x="0" y="9" font-family="courier" fill="rgb(0,0,0)" font-weight="800" font-size="11" text-anchor="start">Package List</text>
<text x="0" y="20" font-family="courier" fill="rgb(0,0,0)" font-size="11" text-anchor="start">LIBRARY ieee;</text>
<text x="0" y="31" font-family="courier" fill="rgb(0,0,0)" font-size="11" text-anchor="start">USE ieee.std_logic_1164.all;</text>
<text x="0" y="42" font-family="courier" fill="rgb(0,0,0)" font-size="11" text-anchor="start">USE ieee.numeric_std.all;</text>
<text x="525" y="9" font-family="courier" fill="rgb(0,0,0)" font-weight="800" font-size="11" text-anchor="start">Declarations</text>
<text x="525" y="20" font-family="courier" fill="rgb(0,0,0)" font-weight="800" font-size="11" text-anchor="start">Ports:</text>
<text x="550" y="132" font-family="courier" fill="rgb(0,0,0)" font-size="11" text-anchor="start">sysclk_p_i        : IN     std_logic  ; -- ! 200 MHz xtal clock</text>
<text x="550" y="155" font-family="courier" fill="rgb(0,0,0)" font-size="11" text-anchor="start">gmii_gtx_clk_o    : OUT    std_logic  ;</text>
<text x="550" y="166" font-family="courier" fill="rgb(0,0,0)" font-size="11" text-anchor="start">gmii_tx_en_o      : OUT    std_logic  ;</text>
<text x="550" y="177" font-family="courier" fill="rgb(0,0,0)" font-size="11" text-anchor="start">gmii_tx_er_o      : OUT    std_logic  ;</text>
<text x="550" y="76" font-family="courier" fill="rgb(0,0,0)" font-size="11" text-anchor="start">gmii_rx_clk_i     : IN     std_logic  ;</text>
<text x="550" y="87" font-family="courier" fill="rgb(0,0,0)" font-size="11" text-anchor="start">gmii_rx_dv_i      : IN     std_logic  ;</text>
<text x="550" y="99" font-family="courier" fill="rgb(0,0,0)" font-size="11" text-anchor="start">gmii_rx_er_i      : IN     std_logic  ;</text>
<text x="550" y="110" font-family="courier" fill="rgb(0,0,0)" font-size="11" text-anchor="start">gmii_rxd_i        : IN     std_logic_vector (7 DOWNTO 0) ;</text>
<text x="550" y="189" font-family="courier" fill="rgb(0,0,0)" font-size="11" text-anchor="start">gmii_txd_o        : OUT    std_logic_vector (7 DOWNTO 0) ;</text>
<text x="550" y="31" font-family="courier" fill="rgb(0,0,0)" font-size="11" text-anchor="start">busy_i            : IN     std_logic_vector (NUM_DUTS-1 DOWNTO 0) ;</text>
<text x="550" y="65" font-family="courier" fill="rgb(0,0,0)" font-size="11" text-anchor="start">dut_clk           : IN     std_logic_vector (NUM_DUTS-1 DOWNTO 0) ;</text>
<text x="550" y="200" font-family="courier" fill="rgb(0,0,0)" font-size="11" text-anchor="start">i2c_scl_o         : OUT    std_logic  ;</text>
<text x="550" y="121" font-family="courier" fill="rgb(0,0,0)" font-size="11" text-anchor="start">sysclk_n_i        : IN     std_logic  ;</text>
<text x="550" y="211" font-family="courier" fill="rgb(0,0,0)" font-size="11" text-anchor="start">leds              : OUT    std_logic_vector (3 DOWNTO 0) ;</text>
<text x="550" y="54" font-family="courier" fill="rgb(0,0,0)" font-size="11" text-anchor="start">dip_switch        : IN     std_logic_vector (3 DOWNTO 0) ;</text>
<text x="409" y="371" font-family="courier" fill="rgb(0,0,0)" font-weight="800" font-size="11" text-anchor="start">top_extphy</text>
<text x="162" y="226" font-family="courier" fill="rgb(0,0,0)" font-size="11" text-anchor="start">Generic Declarations</text>
<text x="162" y="237" font-family="courier" fill="rgb(0,0,0)" font-size="11" text-anchor="start"></text>
<text x="162" y="249" font-family="courier" fill="rgb(0,0,0)" font-size="11" text-anchor="start">NUM_DUTS         positive 3   </text>
<text x="162" y="260" font-family="courier" fill="rgb(0,0,0)" font-size="11" text-anchor="start">NUM_TRIG_INPUTS  positive 4   </text>
<text x="162" y="271" font-family="courier" fill="rgb(0,0,0)" font-size="11" text-anchor="start">NUM_SLAVES       positive 5   </text>
<text x="162" y="282" font-family="courier" fill="rgb(0,0,0)" font-size="11" text-anchor="start">EVENT_DATA_WIDTH positive 64  </text>
<text x="162" y="294" font-family="courier" fill="rgb(0,0,0)" font-size="11" text-anchor="start">IPBUS_WIDTH      positive 32  </text>
<text x="175" y="291" font-family="courier" fill="rgb(0,0,0)" font-size="11" text-anchor="start">sysclk_p_i</text>
<text x="175" y="316" font-family="courier" fill="rgb(0,0,0)" font-size="11" text-anchor="start">gmii_rx_clk_i</text>
<text x="175" y="341" font-family="courier" fill="rgb(0,0,0)" font-size="11" text-anchor="start">gmii_rx_dv_i</text>
<text x="175" y="366" font-family="courier" fill="rgb(0,0,0)" font-size="11" text-anchor="start">gmii_rx_er_i</text>
<text x="175" y="391" font-family="courier" fill="rgb(0,0,0)" font-size="11" text-anchor="start">gmii_rxd_i : (7:0)</text>
<text x="175" y="416" font-family="courier" fill="rgb(0,0,0)" font-size="11" text-anchor="start">busy_i : (NUM_DUTS-1:0)</text>
<text x="175" y="441" font-family="courier" fill="rgb(0,0,0)" font-size="11" text-anchor="start">dut_clk : (NUM_DUTS-1:0)</text>
<text x="525" y="279" font-family="courier" fill="rgb(0,0,0)" font-weight="800" font-size="11" text-anchor="start">User:</text>
<text x="712" y="291" font-family="courier" fill="rgb(0,0,0)" font-size="11" text-anchor="end">leds_o : (3:0)</text>
<text x="712" y="316" font-family="courier" fill="rgb(0,0,0)" font-size="11" text-anchor="end">gmii_gtx_clk_o</text>
<text x="712" y="341" font-family="courier" fill="rgb(0,0,0)" font-size="11" text-anchor="end">gmii_tx_en_o</text>
<text x="712" y="366" font-family="courier" fill="rgb(0,0,0)" font-size="11" text-anchor="end">gmii_tx_er_o</text>
<text x="712" y="391" font-family="courier" fill="rgb(0,0,0)" font-size="11" text-anchor="end">phy_rstb_o</text>
<text x="550" y="234" font-family="courier" fill="rgb(0,0,0)" font-size="11" text-anchor="start">phy_rstb_o        : OUT    std_logic  ;</text>
<text x="712" y="416" font-family="courier" fill="rgb(0,0,0)" font-size="11" text-anchor="end">gmii_txd_o : (7:0)</text>
<text x="712" y="441" font-family="courier" fill="rgb(0,0,0)" font-size="11" text-anchor="end">triggers_o : (NUM_DUTS-1:0)</text>
<text x="550" y="256" font-family="courier" fill="rgb(0,0,0)" font-size="11" text-anchor="start">triggers_o        : OUT    std_logic_vector (NUM_DUTS-1 DOWNTO 0) ;</text>
<text x="550" y="245" font-family="courier" fill="rgb(0,0,0)" font-size="11" text-anchor="start">reset_or_clk_o    : OUT    std_logic_vector (NUM_DUTS-1 DOWNTO 0) ;</text>
<text x="550" y="267" font-family="courier" fill="rgb(0,0,0)" font-size="11" text-anchor="start">i2c_sda_d         : INOUT  std_logic </text>
<text x="712" y="466" font-family="courier" fill="rgb(0,0,0)" font-size="11" text-anchor="end">reset_or_clk_o : (NUM_DUTS-1:0)</text>
<text x="175" y="466" font-family="courier" fill="rgb(0,0,0)" font-size="11" text-anchor="start">threshold_discr_i : (NUM_TRIG_INPUTS-1:0)</text>
<text x="175" y="491" font-family="courier" fill="rgb(0,0,0)" font-size="11" text-anchor="start">cfd_discr_i : (NUM_TRIG_INPUTS-1:0)</text>
<text x="712" y="491" font-family="courier" fill="rgb(0,0,0)" font-size="11" text-anchor="end">i2c_scl_o</text>
<text x="712" y="516" font-family="courier" fill="rgb(0,0,0)" font-size="11" text-anchor="end">i2c_sda_d</text>
<text x="175" y="516" font-family="courier" fill="rgb(0,0,0)" font-size="11" text-anchor="start">sysclk_n_i</text>
<text x="712" y="528" font-family="courier" fill="rgb(0,0,0)" font-size="11" text-anchor="end">leds : (3:0)</text>
<text x="175" y="528" font-family="courier" fill="rgb(0,0,0)" font-size="11" text-anchor="start">dip_switch : (3:0)</text>
<text x="402" y="634" font-family="courier" fill="rgb(0,0,127)" font-size="11" text-anchor="start">by phdgc on 13 Nov 2012</text>
<text x="615" y="584" font-family="courier" fill="rgb(0,0,127)" font-size="11" text-anchor="start">Project:</text>
<text x="402" y="609" font-family="courier" fill="rgb(0,0,127)" font-size="11" text-anchor="start">&#0060;enter diagram title here&#0062;</text>
<text x="352" y="609" font-family="courier" fill="rgb(0,0,127)" font-size="11" text-anchor="start">Title:</text>
<text x="615" y="599" font-family="courier" fill="rgb(0,0,127)" font-size="11" text-anchor="start">&#0060;enter comments here&#0062;</text>
<text x="665" y="584" font-family="courier" fill="rgb(0,0,127)" font-size="11" text-anchor="start">fmc_mTLU</text>
<text x="481" y="591" font-family="courier" fill="rgb(127,0,0)" font-size="11" text-anchor="middle">&#0060;company name&#0062;</text>
<text x="352" y="622" font-family="courier" fill="rgb(0,0,127)" font-size="11" text-anchor="start">Path:</text>
<text x="352" y="634" font-family="courier" fill="rgb(0,0,127)" font-size="11" text-anchor="start">Edited:</text>
<text x="402" y="622" font-family="courier" fill="rgb(0,0,127)" font-size="11" text-anchor="start">fmc_mTLU_lib/top_extphy/symbol</text>
</g>
</svg>
<!-- Create a "titlebox" group so we can reposition it when the SVG moves -->
<g id="titlebox">
<!-- draw an opaque white box to clip the main SVG -->
<rect stroke="none" fill="rgb(255,255,255)" opacity="1" width="914" height="125" />

<!-- Instruction text -->
  <text class="allText smallText" x="15" y="24">Ctrl + Left click to <tspan style="font-weight:bold">zoom in</tspan></text>
  <text class="allText smallText" x="15" y="44">Ctrl + Left drag to <tspan style="font-weight:bold">zoom area</tspan></text>
  <text class="allText smallText" x="15" y="64">Ctrl + Shift + Left click to <tspan style="font-weight:bold">zoom out</tspan></text>
  <text class="allText smallText" x="15" y="84">Alt + Left drag to <tspan style="font-weight:bold">pan</tspan></text>
  <text class="allText smallText" x="15" y="104">Right click on diagram for <tspan style="font-weight:bold">find</tspan></text>
  <rect stroke="darkcyan" fill="none" stroke-width="2px" x="10px" y="10px" width="200px" height="100px" rx="1" ry="1" />

<g id="genTime" class="allText normalText">
  <text class="allText smallText" x="700" y="123">Generated on: 11/13/12 at:  4:59 PM</text>
</g>

<rect stroke="none" fill="rgb(200,240,250)" opacity="0.2" y="2" x="0" width="914" height="110" />
<rect stroke="none" fill="rgb(200,230,240)" opacity="0.4" y="112" x="0" width="914" height="15" />
<!-- Close the "titlebox" group -->
</g>


<script><![CDATA[
function initNetList() {
noOfNets = 0
 } 
]]></script>

</svg>
