G04 ================== begin FILE IDENTIFICATION RECORD ==================*
G04 Layout Name:  pc042a_toplevel_25.brd*
G04 Film Name:    PC042A_SOLDERMASK_TOP*
G04 File Format:  Gerber RS274X*
G04 File Origin:  Cadence Allegro 16.3-S013*
G04 Origin Date:  Mon Sep 19 15:02:03 2011*
G04 *
G04 Layer:  PIN/SOLDERMASK_TOP*
G04 Layer:  PACKAGE GEOMETRY/SOLDERMASK_TOP*
G04 Layer:  BOARD GEOMETRY/SOLDERMASK_TOP*
G04 *
G04 Offset:    (0.0000 0.0000)*
G04 Mirror:    No*
G04 Mode:      Positive*
G04 Rotation:  0*
G04 FullContactRelief:  No*
G04 UndefLineWidth:     0.0000*
G04 ================== end FILE IDENTIFICATION RECORD ====================*
%FSAX55Y55*MOMM*%
%IR0*IPPOS*OFA0.00000B0.00000*MIA0B0*SFA1.00000B1.00000*%
%ADD17C,.64*%
%ADD13R,1.15X1.25*%
%ADD15R,1.25X1.15*%
%ADD18C,1.3*%
%ADD16R,1.27X1.016*%
%ADD14R,1.016X1.27*%
%ADD10C,4.1402*%
%ADD12C,2.286*%
%ADD11C,1.778*%
%LPD*%
G75*
G54D10*
X-0015864380Y0000024050D03*
Y0006305760D03*
X0Y0D03*
Y0006300000D03*
G54D11*
X-0015155300Y0000104590D03*
Y0000358590D03*
X-0014647300Y0000104590D03*
X-0014901300D03*
X-0014647300Y0000358590D03*
X-0014901300D03*
X-0013885300Y0000104590D03*
X-0014139300D03*
X-0014393300D03*
X-0013885300Y0000358590D03*
X-0014139300D03*
X-0014393300D03*
X-0013377300Y0000104590D03*
X-0013631300D03*
X-0013377300Y0000358590D03*
X-0013631300D03*
X-0012615300Y0000104590D03*
X-0012869300D03*
X-0013123300D03*
X-0012615300Y0000358590D03*
X-0012869300D03*
X-0013123300D03*
X-0012107300Y0000104590D03*
X-0012361300D03*
X-0012107300Y0000358590D03*
X-0012361300D03*
X-0011345300Y0000104590D03*
X-0011599300D03*
X-0011853300D03*
X-0011345300Y0000358590D03*
X-0011599300D03*
X-0011853300D03*
X-0010837300Y0000104590D03*
X-0011091300D03*
X-0010837300Y0000358590D03*
X-0011091300D03*
X-0010329300Y0000104590D03*
X-0010583300D03*
X-0010329300Y0000358590D03*
X-0010583300D03*
X-0008297680Y0000105840D03*
X-0008551680D03*
X-0008297680Y0000359840D03*
X-0008551680D03*
X-0007535680Y0000105840D03*
X-0007789680D03*
X-0008043680D03*
X-0007535680Y0000359840D03*
X-0007789680D03*
X-0008043680D03*
X-0007027680Y0000105840D03*
X-0007281680D03*
X-0007027680Y0000359840D03*
X-0007281680D03*
X-0006265680D03*
X-0006519680D03*
Y0000105840D03*
X-0006265680D03*
X-0006773680D03*
Y0000359840D03*
X-0005757680Y0000105840D03*
X-0006011680D03*
X-0005757680Y0000359840D03*
X-0006011680D03*
X-0005503680Y0000105840D03*
Y0000359840D03*
G54D12*
X-0015194180Y0006379280D03*
X-0010896180D03*
G54D13*
X-0012321460Y0001565390D03*
X-0012171460D03*
X-0011442050Y0001566350D03*
X-0011592050D03*
X-0011572100Y0003681670D03*
X-0011422100D03*
X-0009557270Y0001864710D03*
X-0009707270D03*
G54D14*
X-0011975770Y0001565470D03*
Y0001305470D03*
X-0011880770Y0001565470D03*
X-0011785770D03*
Y0001305470D03*
X-0011880770D03*
G54D15*
X-0011878190Y0001796030D03*
Y0001946030D03*
X-0007536540Y0000571490D03*
Y0000721490D03*
X-0007383860Y0000571230D03*
Y0000721230D03*
X-0000693270Y0001823620D03*
Y0001673620D03*
X-0000688320Y0005195950D03*
Y0005045950D03*
G54D16*
X-0009288990Y0001846890D03*
X-0009028990D03*
X-0009288990Y0001941890D03*
Y0002036890D03*
X-0009028990D03*
Y0001941890D03*
G54D17*
X-0000117500Y0001180500D03*
Y0001053500D03*
Y0000926500D03*
Y0000799500D03*
Y0000672500D03*
X0000009500Y0001180500D03*
Y0001053500D03*
Y0000926500D03*
Y0000799500D03*
Y0000672500D03*
X-0000117500Y0001815500D03*
Y0001688500D03*
Y0001561500D03*
Y0001434500D03*
Y0001307500D03*
X0000009500Y0001815500D03*
Y0001688500D03*
Y0001561500D03*
Y0001434500D03*
Y0001307500D03*
X-0000117500Y0002450500D03*
Y0002323500D03*
Y0002196500D03*
Y0002069500D03*
Y0001942500D03*
X0000009500Y0002450500D03*
Y0002323500D03*
Y0002196500D03*
Y0002069500D03*
Y0001942500D03*
X-0000117500Y0003085500D03*
Y0002958500D03*
Y0002831500D03*
Y0002704500D03*
Y0002577500D03*
X0000009500Y0003085500D03*
Y0002958500D03*
Y0002831500D03*
Y0002704500D03*
Y0002577500D03*
X-0000117500Y0003720500D03*
Y0003593500D03*
Y0003466500D03*
Y0003339500D03*
Y0003212500D03*
X0000009500Y0003720500D03*
Y0003593500D03*
Y0003466500D03*
Y0003339500D03*
Y0003212500D03*
X-0000117500Y0004355500D03*
Y0004228500D03*
Y0004101500D03*
Y0003974500D03*
Y0003847500D03*
X0000009500Y0004355500D03*
Y0004228500D03*
Y0004101500D03*
Y0003974500D03*
Y0003847500D03*
X-0000117500Y0004990500D03*
Y0004863500D03*
Y0004736500D03*
Y0004609500D03*
Y0004482500D03*
X0000009500Y0004990500D03*
Y0004863500D03*
Y0004736500D03*
Y0004609500D03*
Y0004482500D03*
X-0000117500Y0005625500D03*
Y0005498500D03*
Y0005371500D03*
Y0005244500D03*
Y0005117500D03*
X0000009500Y0005625500D03*
Y0005498500D03*
Y0005371500D03*
Y0005244500D03*
Y0005117500D03*
X0000390500Y0001180500D03*
Y0001053500D03*
Y0000926500D03*
Y0000799500D03*
Y0000672500D03*
X0000517500Y0001180500D03*
Y0001053500D03*
Y0000926500D03*
Y0000799500D03*
Y0000672500D03*
X0000390500Y0001815500D03*
Y0001688500D03*
Y0001561500D03*
Y0001434500D03*
Y0001307500D03*
X0000517500Y0001815500D03*
Y0001688500D03*
Y0001561500D03*
Y0001434500D03*
Y0001307500D03*
X0000390500Y0002450500D03*
Y0002323500D03*
Y0002196500D03*
Y0002069500D03*
Y0001942500D03*
X0000517500Y0002450500D03*
Y0002323500D03*
Y0002196500D03*
Y0002069500D03*
Y0001942500D03*
X0000390500Y0003085500D03*
Y0002958500D03*
Y0002831500D03*
Y0002704500D03*
Y0002577500D03*
X0000517500Y0003085500D03*
Y0002958500D03*
Y0002831500D03*
Y0002704500D03*
Y0002577500D03*
X0000390500Y0003720500D03*
Y0003593500D03*
Y0003466500D03*
Y0003339500D03*
Y0003212500D03*
X0000517500Y0003720500D03*
Y0003593500D03*
Y0003466500D03*
Y0003339500D03*
Y0003212500D03*
X0000390500Y0004355500D03*
Y0004228500D03*
Y0004101500D03*
Y0003974500D03*
Y0003847500D03*
X0000517500Y0004355500D03*
Y0004228500D03*
Y0004101500D03*
Y0003974500D03*
Y0003847500D03*
X0000390500Y0004990500D03*
Y0004863500D03*
Y0004736500D03*
Y0004609500D03*
Y0004482500D03*
X0000517500Y0004990500D03*
Y0004863500D03*
Y0004736500D03*
Y0004609500D03*
Y0004482500D03*
X0000390500Y0005625500D03*
Y0005498500D03*
Y0005371500D03*
Y0005244500D03*
Y0005117500D03*
X0000517500Y0005625500D03*
Y0005498500D03*
Y0005371500D03*
Y0005244500D03*
Y0005117500D03*
G54D18*
X-0000105000Y0005868000D03*
X0000200000Y0000430000D03*
M02*
