G04 ================== begin FILE IDENTIFICATION RECORD ==================*
G04 Layout Name:  pc042a_toplevel_25.brd*
G04 Film Name:    PC042A_TOP*
G04 File Format:  Gerber RS274X*
G04 File Origin:  Cadence Allegro 16.3-S013*
G04 Origin Date:  Mon Sep 19 15:02:03 2011*
G04 *
G04 Layer:  VIA CLASS/TOP*
G04 Layer:  PIN/TOP*
G04 Layer:  ETCH/TOP*
G04 *
G04 Offset:    (0.0000 0.0000)*
G04 Mirror:    No*
G04 Mode:      Positive*
G04 Rotation:  0*
G04 FullContactRelief:  No*
G04 UndefLineWidth:     0.0000*
G04 ================== end FILE IDENTIFICATION RECORD ====================*
%FSAX55Y55*MOMM*%
%IR0*IPPOS*OFA0.00000B0.00000*MIA0B0*SFA1.00000B1.00000*%
%ADD14R,.9X1.*%
%ADD16R,1.X.9*%
%ADD17R,1.016X.7112*%
%ADD15R,.7112X1.016*%
%ADD18C,.64*%
%ADD13C,.6096*%
%ADD19C,1.*%
%ADD12C,2.032*%
%ADD11C,1.524*%
%ADD10C,3.9878*%
%ADD20C,.2*%
%ADD21C,.3*%
%ADD22C,.4*%
%ADD23C,.5*%
%ADD24C,.6*%
%ADD25C,.275*%
%ADD26C,.257*%
%ADD27C,.2257*%
G75*
%LPD*%
G75*
G54D10*
X-0015864380Y0000024050D03*
Y0006305760D03*
X0Y0D03*
Y0006300000D03*
G54D20*
G01X-0012171460Y0001565390D02*
X-0012034110D01*
X-0012034030Y0001565470D01*
X-0011975770D01*
G01X-0011592050Y0001566350D02*
X-0011726630D01*
X-0011727510Y0001565470D01*
X-0011785770D01*
G01X-0007383860Y0000571230D02*
Y0000449480D01*
X-0007409880Y0000423460D01*
Y0000231640D01*
X-0007535680Y0000105840D01*
G01X-0007536540Y0000571490D02*
Y0000503790D01*
X-0007535680Y0000502930D01*
Y0000359840D01*
G01X-0001601740Y0006270000D02*
Y0006397000D01*
X-0001621040Y0006371600D01*
G01Y0006270000D02*
X-0001582440D01*
G01X0000390500Y0002069500D02*
X0000294540D01*
G01X0000390500Y0001942500D02*
X0000290960D01*
G01X0000296320Y0002764980D02*
X0000450980D01*
X0000517500Y0002831500D01*
G01X0000614440Y0004355500D02*
X0000517500D01*
G01X0000617070Y0004482500D02*
X0000517500D01*
G54D11*
X-0015155300Y0000104590D03*
Y0000358590D03*
X-0014647300Y0000104590D03*
X-0014901300D03*
X-0014647300Y0000358590D03*
X-0014901300D03*
X-0013885300Y0000104590D03*
X-0014139300D03*
X-0014393300D03*
X-0013885300Y0000358590D03*
X-0014139300D03*
X-0014393300D03*
X-0013377300Y0000104590D03*
X-0013631300D03*
X-0013377300Y0000358590D03*
X-0013631300D03*
X-0012615300Y0000104590D03*
X-0012869300D03*
X-0013123300D03*
X-0012615300Y0000358590D03*
X-0012869300D03*
X-0013123300D03*
X-0012107300Y0000104590D03*
X-0012361300D03*
X-0012107300Y0000358590D03*
X-0012361300D03*
X-0011345300Y0000104590D03*
X-0011599300D03*
X-0011853300D03*
X-0011345300Y0000358590D03*
X-0011599300D03*
X-0011853300D03*
X-0010837300Y0000104590D03*
X-0011091300D03*
X-0010837300Y0000358590D03*
X-0011091300D03*
X-0010329300Y0000104590D03*
X-0010583300D03*
X-0010329300Y0000358590D03*
X-0010583300D03*
X-0008297680Y0000105840D03*
X-0008551680D03*
X-0008297680Y0000359840D03*
X-0008551680D03*
X-0007535680Y0000105840D03*
X-0007789680D03*
X-0008043680D03*
X-0007535680Y0000359840D03*
X-0007789680D03*
X-0008043680D03*
X-0007027680Y0000105840D03*
X-0007281680D03*
X-0007027680Y0000359840D03*
X-0007281680D03*
X-0006265680D03*
X-0006519680D03*
Y0000105840D03*
X-0006265680D03*
X-0006773680D03*
Y0000359840D03*
X-0005757680Y0000105840D03*
X-0006011680D03*
X-0005757680Y0000359840D03*
X-0006011680D03*
X-0005503680Y0000105840D03*
Y0000359840D03*
G54D21*
G01X-0011878190Y0001796030D02*
Y0001642840D01*
X-0011880770Y0001640260D01*
Y0001565470D01*
G01D02*
Y0001465830D01*
G01X0000009500Y0003085500D02*
X0000106130D01*
G01X0000390500Y0004609500D02*
X0000312400D01*
G01X0000390500Y0005117500D02*
X0000296470D01*
G01X0000390500Y0005371500D02*
X0000299470D01*
G01X0000390500Y0005625500D02*
X0000291510D01*
G01X0000517500Y0005498500D02*
X0000617410D01*
G54D12*
X-0015194180Y0006379280D03*
X-0010896180D03*
G54D22*
G01X-0011880770Y0001305470D02*
Y0001211490D01*
G01X-0011878190Y0001946030D02*
Y0002034210D01*
G01X-0011422100Y0003681670D02*
X-0011333920D01*
G01X-0009707270Y0001864710D02*
X-0009795450D01*
G01X-0009028990Y0001941890D02*
X-0008935010D01*
G01X-0000693270Y0001673620D02*
Y0001582010D01*
G01X-0000688320Y0005045950D02*
X-0000584140D01*
G01X0000009500Y0000672500D02*
X0000127500D01*
G01X0000009500Y0001180500D02*
X0000124500D01*
G01X0000009500Y0001053500D02*
X0000123500D01*
X0000125000Y0001055000D01*
G01X-0000209840Y0000925000D02*
X-0000196820D01*
X-0000195320Y0000926500D01*
X-0000117500D01*
G01X0000009500Y0001561500D02*
X0000112350D01*
G01X-0000117500Y0001688500D02*
X-0000261500D01*
X-0000265000Y0001685000D01*
G01X-0000117500Y0001307500D02*
X-0000127400D01*
X-0000128640Y0001306260D01*
X-0000200210D01*
X-0000201450Y0001307500D01*
X-0000212030D01*
G01X0000009500Y0001942500D02*
X0000108200D01*
G01X0000009500Y0002323500D02*
X0000104060D01*
G01X-0000117500Y0002450500D02*
X-0000264500D01*
X-0000265000Y0002450000D01*
G01X-0000117500Y0002069500D02*
X-0000264500D01*
G01X0000009500Y0002704500D02*
X0000099910D01*
G01X-0000117500Y0002831500D02*
X-0000268180D01*
G01X0000009500Y0003466500D02*
X0000101980D01*
G01X-0000117500Y0003593500D02*
X-0000265000D01*
G01X-0000117500Y0003974500D02*
X-0000268180D01*
G01X-0000117500Y0004355500D02*
X-0000217420D01*
G01X0000009500Y0003847500D02*
X0000062500D01*
X0000110000Y0003800000D01*
G01X0000009500Y0004228500D02*
X0000078500D01*
X0000110000Y0004260000D01*
G01X0000009500Y0004609500D02*
X0000104060D01*
G01X0000009500Y0004990500D02*
X0000106130D01*
G01X-0000117500Y0004736500D02*
X-0000215350D01*
G01X0000009500Y0005371500D02*
X0000106130D01*
G01X0000009500Y0005625500D02*
X0000108210D01*
G01X-0000117500Y0005117500D02*
X-0000215360D01*
G01X-0000117500Y0005498500D02*
X-0000219500D01*
G01X0000517500Y0000672500D02*
X0000637500D01*
G01X0000517500Y0001180500D02*
X0000644500D01*
G01X0000517500Y0001053500D02*
X0000646500D01*
X0000650000Y0001050000D01*
G01X0000390500Y0000926500D02*
X0000291500D01*
X0000290000Y0000925000D01*
G01X0000390500Y0000799500D02*
X0000299500D01*
X0000295000Y0000795000D01*
G01X0000390500Y0001815500D02*
X0000517500Y0001688500D01*
G01D02*
X0000651500D01*
G01X0000517500Y0001561500D02*
X0000653500D01*
X0000655000Y0001560000D01*
G01X0000390500Y0001434500D02*
Y0001307500D01*
G01D02*
X0000287500D01*
G01X0000390500Y0002196500D02*
X0000294870D01*
G01X0000655000Y0002065000D02*
X0000651100Y0002068900D01*
X0000601650D01*
X0000601050Y0002069500D01*
X0000517500D01*
G01Y0002196500D02*
X0000518100Y0002195900D01*
X0000569870D01*
X0000570770Y0002195000D01*
X0000655000D01*
G01X0000517500Y0002577500D02*
X0000652500D01*
G01X0000517500Y0002704500D02*
X0000654500D01*
X0000655000Y0002705000D01*
G01X0000390500Y0002577500D02*
X0000294870D01*
G01X0000390500Y0002958500D02*
X0000290720D01*
G01X0000517500Y0003085500D02*
X0000616360D01*
G01X0000390500Y0003339500D02*
X0000296950D01*
G01X0000390500Y0003720500D02*
X0000301090D01*
G01X0000517500D02*
X0000614290D01*
G01X0000517500Y0003593500D02*
X0000616360D01*
G01X0000517500Y0003212500D02*
X0000616360D01*
G01X0000390500Y0004101500D02*
X0000292800D01*
G01X0000517500Y0004228500D02*
X0000610140D01*
G01X0000517500Y0004101500D02*
X0000610140D01*
G01X0000517500Y0004736500D02*
X0000616360D01*
G01X0000517500Y0004609500D02*
X0000612210D01*
G01X0000517500Y0005117500D02*
X0000616360D01*
G01X0000517500Y0005371500D02*
X0000612210D01*
G01X0000390500Y0005244500D02*
X0000296950D01*
G01X0000390500Y0005498500D02*
X0000292800D01*
G01X0000517500Y0005625500D02*
X0000618430D01*
G54D13*
X-0014495180Y0003863400D03*
X-0014995180D03*
X-0013866810Y0003574310D03*
X-0014368670Y0003772110D03*
X-0014252050Y0003574310D03*
X-0014158870Y0003439880D03*
X-0013949530Y0003446130D03*
X-0013895410Y0004104760D03*
X-0013782320Y0003144330D03*
X-0013570360Y0003034070D03*
X-0013360970D03*
X-0013782180Y0003479010D03*
X-0013809290Y0003678930D03*
X-0013664150Y0003162250D03*
X-0013632180Y0003479660D03*
X-0013267790Y0003162250D03*
X-0013296660Y0003821340D03*
X-0013337490Y0004102970D03*
X-0012744520Y0003719500D03*
X-0012990000Y0003610000D03*
X-0013037510Y0003199010D03*
X-0013166710Y0004104760D03*
X-0012895180Y0003863400D03*
X-0012321460Y0001658570D03*
X-0012074870Y0003018450D03*
X-0012000000Y0003610000D03*
X-0011880770Y0001211490D03*
X-0011353870Y0001566350D03*
X-0011880770Y0001465830D03*
X-0011878190Y0002034210D03*
X-0011852440Y0003245370D03*
X-0011843160Y0003677180D03*
X-0011333920Y0003681670D03*
X-0011312150Y0003266670D03*
X-0011395180Y0003800000D03*
X-0011295180Y0003863400D03*
X-0011595180Y0003852450D03*
X-0010837300Y0001547560D03*
X-0010953300Y0002898940D03*
X-0010712350Y0003130920D03*
X-0011232100Y0003189620D03*
X-0011095180Y0003863400D03*
X-0011195180Y0003800000D03*
X-0009531000Y0001660180D03*
X-0009469090Y0001864710D03*
X-0009795450D03*
X-0009824720Y0002040000D03*
X-0009480240Y0002830190D03*
X-0009680540Y0003714990D03*
X-0009292820Y0001753360D03*
X-0009195010Y0001941890D03*
X-0008935010D03*
X-0009382970Y0002036890D03*
X-0009028990Y0002128970D03*
X-0009225700Y0002707690D03*
X-0008908930Y0002906310D03*
X-0008908100Y0002758020D03*
X-0009324840Y0003714990D03*
X-0008940000Y0003710000D03*
X-0009111570Y0003700000D03*
X-0009187710Y0004421890D03*
X-0008454610Y0003721160D03*
X-0008734550Y0003710350D03*
X-0007789950Y0000810200D03*
X-0007536720Y0002593030D03*
X-0008113480Y0003721160D03*
X-0007991430Y0003826550D03*
X-0007993140Y0003944690D03*
X-0007383970Y0002307300D03*
X-0003172450Y0000764850D03*
X-0002734370Y0001020580D03*
X-0002129470Y-0000185880D03*
X-0002429770Y-0000111130D03*
X-0002244810Y0000468560D03*
X-0002125800Y0001033520D03*
X-0001821590Y0000279690D03*
X-0000693270Y0001582010D03*
Y0001904250D03*
X-0000688320Y0005279130D03*
X-0000584140Y0005045950D03*
X-0000209840Y0000925000D03*
X-0000265000Y0001685000D03*
X-0000212030Y0001307500D03*
X-0000264500Y0002069500D03*
X-0000265000Y0002450000D03*
X-0000268180Y0002831500D03*
X-0000214910Y0002704620D03*
X-0000265000Y0003593500D03*
X-0000268180Y0003974500D03*
X-0000217420Y0004355500D03*
X-0000215350Y0004736500D03*
X-0000210000Y0004490000D03*
X-0000213090Y0004863500D03*
X-0000055000Y0005565000D03*
X-0000215360Y0005117500D03*
X-0000219500Y0005498500D03*
X-0000217410Y0005244500D03*
X0000637500Y0000672500D03*
X0000127500D03*
X0000124500Y0001180500D03*
X0000644500D03*
X0000650000Y0001050000D03*
X0000290000Y0000925000D03*
X0000295000Y0000795000D03*
X0000125000Y0001055000D03*
X0000651500Y0001688500D03*
X0000655000Y0001560000D03*
X0000287500Y0001307500D03*
X0000112350Y0001561500D03*
X0000655000Y0002195000D03*
Y0002065000D03*
X0000294870Y0002196500D03*
X0000108200Y0001942500D03*
X0000104060Y0002323500D03*
X0000294540Y0002069500D03*
X0000290960Y0001942500D03*
X0000652500Y0002577500D03*
X0000655000Y0002705000D03*
X0000294870Y0002577500D03*
X0000099910Y0002704500D03*
X0000290720Y0002958500D03*
X0000106130Y0003085500D03*
X0000616360D03*
X0000296320Y0002764980D03*
X0000101980Y0003466500D03*
X0000296950Y0003339500D03*
X0000301090Y0003720500D03*
X0000614290D03*
X0000616360Y0003593500D03*
Y0003212500D03*
X0000300000Y0003470000D03*
X0000293500Y0003593500D03*
X0000100000Y0003600000D03*
X0000110000Y0003690000D03*
Y0003800000D03*
Y0004260000D03*
X0000292800Y0004101500D03*
X0000610140Y0004228500D03*
Y0004101500D03*
X0000614440Y0004355500D03*
X0000110000Y0003974500D03*
Y0004100000D03*
X0000612500Y0003850000D03*
X0000614500Y0003974500D03*
X0000300000Y0003847500D03*
X0000295500Y0003974500D03*
X0000612210Y0004609500D03*
X0000616360Y0004736500D03*
X0000104060Y0004609500D03*
X0000106130Y0004990500D03*
X0000617070Y0004482500D03*
X0000312400Y0004609500D03*
X0000296670Y0004932670D03*
X0000100000Y0005498500D03*
X0000616360Y0005117500D03*
X0000612210Y0005371500D03*
X0000296950Y0005244500D03*
X0000106130Y0005371500D03*
X0000292800Y0005498500D03*
X0000618430Y0005625500D03*
X0000108210D03*
X0000296470Y0005117500D03*
X0000299470Y0005371500D03*
X0000291510Y0005625500D03*
X0000617410Y0005498500D03*
X0000102950Y0005117500D03*
G54D23*
G01X-0009288990Y0002036890D02*
X-0009382970D01*
G54D14*
X-0012321460Y0001565390D03*
X-0012171460D03*
X-0011442050Y0001566350D03*
X-0011592050D03*
X-0011572100Y0003681670D03*
X-0011422100D03*
X-0009557270Y0001864710D03*
X-0009707270D03*
G54D24*
G01X-0012000000Y0003610000D02*
X-0012990000D01*
G01X-0012321460Y0001565390D02*
Y0001658570D01*
G01X-0011442050Y0001566350D02*
X-0011353870D01*
G01X-0011595180Y0003852450D02*
Y0003797980D01*
X-0011572100Y0003774900D01*
Y0003681670D01*
G01X-0010837300Y0000358590D02*
Y0000104590D01*
G01Y0000358590D02*
Y0001547560D01*
G01X-0009557270Y0001864710D02*
X-0009469090D01*
G01X-0009288990Y0001941890D02*
X-0009195010D01*
G01X-0000693270Y0001823620D02*
Y0001904250D01*
G01X-0000688320Y0005195950D02*
Y0005279130D01*
G01X0000009500Y0005498500D02*
X0000100000D01*
G01X-0000055000Y0005565000D02*
X-0000057000D01*
X-0000117500Y0005625500D01*
G54D15*
X-0011975770Y0001565470D03*
Y0001305470D03*
X-0011880770Y0001565470D03*
X-0011785770D03*
Y0001305470D03*
X-0011880770D03*
G54D25*
G01X0000009500Y0003085500D02*
Y0003122340D01*
X-0000080660Y0003212500D01*
X-0000117500D01*
G54D16*
X-0011878190Y0001796030D03*
Y0001946030D03*
X-0007536540Y0000571490D03*
Y0000721490D03*
X-0007383860Y0000571230D03*
Y0000721230D03*
X-0000693270Y0001823620D03*
Y0001673620D03*
X-0000688320Y0005195950D03*
Y0005045950D03*
G54D26*
G01X-0014393300Y0000358590D02*
X-0014502350Y0000249540D01*
Y0000059410D01*
X-0014446230Y0000003290D01*
Y-0000069260D01*
X-0013914920Y-0000600570D01*
X-0013913040D01*
X-0013907340Y-0000606270D01*
X-0004988890D01*
X-0003812700Y0000569920D01*
X-0000176510D01*
X-0000160290Y0000553700D01*
X0000193810D01*
X0000262600Y0000622490D01*
Y0000731590D01*
X0000226430Y0000767760D01*
Y0000951300D01*
X0000239970Y0000964840D01*
Y0001102620D01*
X0000239450Y0001103140D01*
Y0001228160D01*
X0000223950Y0001243660D01*
Y0001510500D01*
X0000227300Y0001513850D01*
Y0001609150D01*
X0000223950Y0001612500D01*
Y0001693640D01*
X0000140740Y0001776850D01*
X0000105710D01*
X0000067060Y0001815500D01*
X0000009500D01*
G01Y0001688500D02*
X0000046450Y0001725450D01*
X0000119440D01*
X0000172550Y0001672340D01*
Y0001591200D01*
X0000175900Y0001587850D01*
Y0001535150D01*
X0000172550Y0001531800D01*
Y0001222350D01*
X0000188050Y0001206850D01*
Y0001081830D01*
X0000188570Y0001081310D01*
Y0000986150D01*
X0000175030Y0000972610D01*
Y0000746460D01*
X0000204600Y0000716890D01*
Y0000641380D01*
X0000172170Y0000608950D01*
X-0000016850D01*
X-0000017550Y0000609650D01*
X-0000143540D01*
X-0000155210Y0000621320D01*
X-0003834000D01*
X-0005010190Y-0000554870D01*
X-0013886030D01*
X-0014393300Y-0000047600D01*
Y0000104590D01*
G01X0000009500Y0000799500D02*
X-0000002550Y0000787450D01*
X-0000038150D01*
X-0000057280Y0000768320D01*
X-0000059790D01*
X-0000091460Y0000736650D01*
X-0000143540D01*
X-0000176530Y0000769640D01*
X-0000309170D01*
X-0000385850Y0000846320D01*
X-0003784370D01*
X-0005065030Y-0000434340D01*
X-0013408650D01*
X-0013815760Y-0000027230D01*
X-0013907710D01*
X-0013994350Y0000059410D01*
Y0000403770D01*
X-0013903680Y0000494440D01*
Y0002072810D01*
X-0013175300Y0002801190D01*
Y0003984880D01*
X-0013253760Y0004063340D01*
X-0013297860D01*
X-0013337490Y0004102970D01*
G01X-0014158870Y0003439880D02*
X-0014119240Y0003479510D01*
Y0003485760D01*
X-0014079900Y0003525100D01*
Y0004135850D01*
X-0013750060Y0004465690D01*
X-0011110070D01*
X-0010902710Y0004673050D01*
X-0000241800D01*
X-0000241700Y0004672950D01*
X-0000091150D01*
X-0000091050Y0004673050D01*
X0000130410D01*
X0000130630Y0004672830D01*
X0000638450D01*
X0000675520Y0004635760D01*
X0000763400D01*
X0000928730Y0004470430D01*
Y0002024160D01*
X0000765510Y0001860940D01*
X0000639990D01*
X0000593310Y0001814260D01*
X0000518740D01*
X0000517500Y0001815500D01*
G01X-0013949530Y0003446130D02*
X-0014028500Y0003525100D01*
Y0004114550D01*
X-0013728760Y0004414290D01*
X-0011088770D01*
X-0010883810Y0004619250D01*
X-0000216140D01*
X-0000143540Y0004546650D01*
X-0000017550D01*
X-0000016850Y0004545950D01*
X0000638230D01*
X0000676640Y0004584360D01*
X0000742100D01*
X0000877330Y0004449130D01*
Y0002045460D01*
X0000744210Y0001912340D01*
X0000620600D01*
X0000590440Y0001942500D01*
X0000517500D01*
G01X0000009500Y0000926500D02*
X-0000054650Y0000862350D01*
X-0000143540D01*
X-0000184850Y0000821040D01*
X-0000287870D01*
X-0000364550Y0000897720D01*
X-0003805670D01*
X-0005086330Y-0000382940D01*
X-0013387350D01*
X-0013776250Y0000005960D01*
Y0000403770D01*
X-0013852280Y0000479800D01*
Y0002051510D01*
X-0013123900Y0002779890D01*
Y0004006180D01*
X-0013127080Y0004009360D01*
Y0004065130D01*
X-0013166710Y0004104760D01*
G01X-0000117500Y0003720500D02*
X-0000162990Y0003765990D01*
X-0000254220D01*
X-0000501340Y0003518870D01*
X-0011828970D01*
X-0013325900Y0002021940D01*
Y0000461420D01*
X-0013268250Y0000403770D01*
Y0000313410D01*
X-0013268350Y0000313310D01*
Y0000213540D01*
X-0013377300Y0000104590D01*
G01X-0000117500Y0003847500D02*
X-0000250880D01*
X-0000528110Y0003570270D01*
X-0011850270D01*
X-0013377300Y0002043240D01*
Y0000358590D01*
G01X-0008940000Y0003710000D02*
X-0008988600Y0003758600D01*
Y0004058600D01*
X-0009162360Y0004232360D01*
X-0013381180D01*
X-0013492930Y0004120610D01*
Y0003111500D01*
X-0013570360Y0003034070D01*
G01X-0009111570Y0003700000D02*
X-0009040000Y0003771570D01*
Y0004037300D01*
X-0009183660Y0004180960D01*
X-0013359880D01*
X-0013440260Y0004100580D01*
Y0003113390D01*
X-0013398580Y0003071710D01*
Y0003071680D01*
X-0013360970Y0003034070D01*
G01X-0013123300Y0000104590D02*
Y-0000018370D01*
X-0013040990Y-0000100680D01*
X-0012096980D01*
X-0011975770Y0000020530D01*
Y0001305470D01*
G01X-0000117500Y0003339500D02*
X-0000175060D01*
X-0000209230Y0003373670D01*
X-0011417520D01*
X-0012817900Y0001973290D01*
Y0000461420D01*
X-0012760250Y0000403770D01*
Y0000213640D01*
X-0012869300Y0000104590D01*
G01Y0000358590D02*
Y0001994590D01*
X-0011438820Y0003425070D01*
X-0000158930D01*
X-0000117500Y0003466500D01*
G01Y0001815500D02*
X-0000053350Y0001879650D01*
X0000081480D01*
X0000081960Y0001879170D01*
X0000134440D01*
X0000134950Y0001879680D01*
X0000138160D01*
X0000263000Y0002004520D01*
X0000263410D01*
X0000264720Y0002005830D01*
X0000317200D01*
X0000317680Y0002005350D01*
X0000625080D01*
X0000628760Y0002001670D01*
X0000681240D01*
X0000718330Y0002038760D01*
Y0002095730D01*
X0000769950Y0002147350D01*
Y0002147370D01*
X0000769990Y0002147410D01*
Y0002151750D01*
X0000775330Y0002157090D01*
Y0002795920D01*
X0000549300Y0003021950D01*
X0000491150D01*
X0000490900Y0003022200D01*
X0000293710D01*
X0000040110Y0003275800D01*
X-0010937540D01*
X-0011975770Y0002237570D01*
Y0001565470D01*
G01X-0011853300Y0000104590D02*
X-0011498890Y-0000249820D01*
X-0005120580D01*
X-0003736290Y0001134470D01*
X-0000206540D01*
X-0000201170Y0001129100D01*
X-0000193100D01*
X-0000117500Y0001053500D01*
G01X-0011853300Y0000358590D02*
Y0000254790D01*
X-0011812150Y0000213640D01*
X-0011808120D01*
X-0011744250Y0000149770D01*
Y0000070350D01*
X-0011475480Y-0000198420D01*
X-0005141880D01*
X-0003757590Y0001185870D01*
X-0000185240D01*
X-0000179870Y0001180500D01*
X-0000117500D01*
G01Y0002958500D02*
X-0000175060D01*
X-0000208570Y0002992010D01*
X-0009518270D01*
X-0011288000Y0001222280D01*
Y0000455520D01*
X-0011236250Y0000403770D01*
Y0000313410D01*
X-0011236470Y0000313190D01*
Y0000213420D01*
X-0011345300Y0000104590D01*
G01Y0000358590D02*
Y0001237680D01*
X-0009539570Y0003043410D01*
X-0000159980D01*
X-0000158600Y0003044790D01*
X-0000158210D01*
X-0000117500Y0003085500D01*
G01X-0011785770Y0001305470D02*
Y0000505560D01*
X-0011729760Y0000449550D01*
Y0000235050D01*
X-0011599300Y0000104590D01*
G01X-0000117500Y0001942500D02*
X-0000053950Y0002006050D01*
X0000051110D01*
X0000178010Y0002132950D01*
X0000416250D01*
X0000416850Y0002132350D01*
X0000543540D01*
X0000544440Y0002131450D01*
X0000681350D01*
X0000718550Y0002168650D01*
Y0002168670D01*
X0000718570Y0002168690D01*
Y0002173030D01*
X0000723930Y0002178390D01*
Y0002772650D01*
X0000602230Y0002894350D01*
X0000217860D01*
X0000089230Y0003022980D01*
X0000035870D01*
X0000035540Y0003022650D01*
X-0000016540D01*
X-0000053350Y0003059460D01*
Y0003111220D01*
X-0000090480Y0003148350D01*
X-0000143540D01*
X-0000146390Y0003145500D01*
X-0010341900D01*
X-0011785770Y0001701630D01*
Y0001565470D01*
G01X0000009500Y0001307500D02*
X-0000050500Y0001367500D01*
X-0000087600D01*
X-0000091150Y0001371050D01*
X-0000144370D01*
X-0000178480Y0001405160D01*
X-0003790370D01*
X-0005256630Y-0000061100D01*
X-0010417610D01*
X-0010583300Y0000104590D01*
G01Y0000358590D02*
Y0000254790D01*
X-0010542150Y0000213640D01*
X-0010538120D01*
X-0010474250Y0000149770D01*
Y0000145740D01*
X-0010470120Y0000141610D01*
Y0000064370D01*
X-0010396050Y-0000009700D01*
X-0005277930D01*
X-0003811670Y0001456560D01*
X-0000184330D01*
X-0000143540Y0001497350D01*
X-0000053350D01*
X0000009500Y0001434500D01*
G01X-0009288990Y0001846890D02*
X-0009292820Y0001843060D01*
Y0001753360D01*
G01X-0009028990Y0002128970D02*
Y0002036890D01*
G01X-0008171150Y0001496970D02*
X-0007911800Y0001237620D01*
Y0000227960D01*
X-0007789680Y0000105840D01*
G01X-0008908930Y0002906310D02*
X-0008852060D01*
X-0008809010Y0002863260D01*
X-0000326320D01*
X-0000294530Y0002895050D01*
X-0000054050D01*
X0000009500Y0002831500D01*
G01X-0008908100Y0002758020D02*
X-0008852060D01*
X-0008798220Y0002811860D01*
X-0000338440D01*
X-0000294530Y0002767950D01*
X-0000185390D01*
X-0000184790Y0002767350D01*
X-0000017550D01*
X-0000016850Y0002768050D01*
X0000030910D01*
X0000031510Y0002768650D01*
X0000035540D01*
X0000072350Y0002805460D01*
Y0002895650D01*
X0000009500Y0002958500D01*
G01X-0007281680Y0000359840D02*
X-0004936900Y0002704620D01*
X-0000214910D01*
G01X0000390500Y0002704500D02*
X0000332940D01*
X0000330090Y0002701650D01*
X0000219600D01*
X0000158300Y0002640350D01*
X-0004747820D01*
X-0006955720Y0000432450D01*
Y0000431800D01*
X-0007027680Y0000359840D01*
G01X-0007536720Y0002593030D02*
Y0002251260D01*
X-0007536540Y0002251080D01*
Y0000721490D01*
G01X-0007383860Y0000721230D02*
Y0002251150D01*
X-0007383970Y0002251260D01*
Y0002307300D01*
G01X0000009500Y0002450500D02*
X-0000054650Y0002514650D01*
X-0004373360D01*
X-0005478100Y0001409910D01*
X-0005478110D01*
X-0006447720Y0000440300D01*
Y0000431800D01*
X-0006519680Y0000359840D01*
G01X-0000117500Y0002577500D02*
X-0004554590D01*
X-0006700290Y0000431800D01*
X-0006701720D01*
X-0006773680Y0000359840D01*
G01X-0005757680D02*
X-0005685720Y0000431800D01*
Y0000438080D01*
X-0003927300Y0002196500D01*
X-0000117500D01*
G01X0000390500Y0002323500D02*
X0000326950Y0002387050D01*
X-0000016850D01*
X-0000017550Y0002386350D01*
X-0004241590D01*
X-0005309590Y0001318350D01*
Y0001315930D01*
X-0006265680Y0000359840D01*
G01X-0006011680D02*
X-0005939720Y0000431800D01*
Y0000432150D01*
X-0004111220Y0002260650D01*
X-0000092160D01*
X-0000091460Y0002259950D01*
X0000268420D01*
X0000268520Y0002260050D01*
X0000364560D01*
X0000365160Y0002260650D01*
X0000454650D01*
X0000517500Y0002323500D01*
G01X-0005503680Y0000359840D02*
X-0005431720Y0000431800D01*
Y0000432000D01*
X-0003730670Y0002133050D01*
X-0000054050D01*
X0000009500Y0002069500D01*
G54D17*
X-0009288990Y0001846890D03*
X-0009028990D03*
X-0009288990Y0001941890D03*
Y0002036890D03*
X-0009028990D03*
Y0001941890D03*
G54D27*
G01X-0011232100Y0003189620D02*
X-0011292030Y0003129690D01*
X-0011325850D01*
X-0012566390Y0001889150D01*
Y0000461700D01*
X-0012507810Y0000403120D01*
Y0000212080D01*
X-0012615300Y0000104590D01*
G01X-0011312150Y0003266670D02*
X-0011362230Y0003216590D01*
Y0003162120D01*
X-0012615300Y0001909050D01*
Y0000358590D01*
G01X-0009028990Y0001846890D02*
X-0008521070D01*
X-0008171150Y0001496970D01*
G01X-0008734550Y0003710350D02*
Y0003967620D01*
X-0009149190Y0004382260D01*
Y0004383370D01*
X-0009187710Y0004421890D01*
G01X-0007991430Y0003826550D02*
X-0007928070D01*
X-0007895870Y0003858750D01*
X-0007800200D01*
X-0007327060Y0004331890D01*
X-0000281500D01*
X-0000243120Y0004293510D01*
X-0000052490D01*
X0000009500Y0004355500D01*
G01Y0004482500D02*
X-0000055510Y0004417490D01*
X-0000243120D01*
X-0000280290Y0004380320D01*
X-0007346900D01*
X-0007820200Y0003907020D01*
X-0007901000D01*
X-0007938670Y0003944690D01*
X-0007993140D01*
G01X0000100000Y0003600000D02*
X0000093500Y0003593500D01*
X0000009500D01*
G01X0000110000Y0003690000D02*
X0000079500Y0003720500D01*
X0000009500D01*
G01X0000110000Y0003974500D02*
X0000009500D01*
G01X0000110000Y0004100000D02*
X0000108500Y0004101500D01*
X0000009500D01*
G01X-0000210000Y0004490000D02*
X-0000202500Y0004482500D01*
X-0000117500D01*
G01Y0004863500D02*
X-0000213090D01*
G01X0000296670Y0004932670D02*
X0000205670D01*
X0000009500Y0004736500D01*
G01X-0000117500Y0005244500D02*
X-0000217410D01*
G01X0000009500Y0005117500D02*
X0000102950D01*
G01X0000300000Y0003470000D02*
X0000303500Y0003466500D01*
X0000390500D01*
G01X0000293500Y0003593500D02*
X0000390500D01*
G01X0000517500Y0003847500D02*
X0000520000Y0003850000D01*
X0000612500D01*
G01X0000614500Y0003974500D02*
X0000517500D01*
G01X0000300000Y0003847500D02*
X0000390500D01*
G01X0000295500Y0003974500D02*
X0000390500D01*
G01X0000517500Y0005244500D02*
X0000452070Y0005179070D01*
Y0005055930D01*
X0000517500Y0004990500D01*
G54D18*
X-0000117500Y0001180500D03*
Y0001053500D03*
Y0000926500D03*
Y0000799500D03*
Y0000672500D03*
X0000009500Y0001180500D03*
Y0001053500D03*
Y0000926500D03*
Y0000799500D03*
Y0000672500D03*
X-0000117500Y0001815500D03*
Y0001688500D03*
Y0001561500D03*
Y0001434500D03*
Y0001307500D03*
X0000009500Y0001815500D03*
Y0001688500D03*
Y0001561500D03*
Y0001434500D03*
Y0001307500D03*
X-0000117500Y0002450500D03*
Y0002323500D03*
Y0002196500D03*
Y0002069500D03*
Y0001942500D03*
X0000009500Y0002450500D03*
Y0002323500D03*
Y0002196500D03*
Y0002069500D03*
Y0001942500D03*
X-0000117500Y0003085500D03*
Y0002958500D03*
Y0002831500D03*
Y0002704500D03*
Y0002577500D03*
X0000009500Y0003085500D03*
Y0002958500D03*
Y0002831500D03*
Y0002704500D03*
Y0002577500D03*
X-0000117500Y0003720500D03*
Y0003593500D03*
Y0003466500D03*
Y0003339500D03*
Y0003212500D03*
X0000009500Y0003720500D03*
Y0003593500D03*
Y0003466500D03*
Y0003339500D03*
Y0003212500D03*
X-0000117500Y0004355500D03*
Y0004228500D03*
Y0004101500D03*
Y0003974500D03*
Y0003847500D03*
X0000009500Y0004355500D03*
Y0004228500D03*
Y0004101500D03*
Y0003974500D03*
Y0003847500D03*
X-0000117500Y0004990500D03*
Y0004863500D03*
Y0004736500D03*
Y0004609500D03*
Y0004482500D03*
X0000009500Y0004990500D03*
Y0004863500D03*
Y0004736500D03*
Y0004609500D03*
Y0004482500D03*
X-0000117500Y0005625500D03*
Y0005498500D03*
Y0005371500D03*
Y0005244500D03*
Y0005117500D03*
X0000009500Y0005625500D03*
Y0005498500D03*
Y0005371500D03*
Y0005244500D03*
Y0005117500D03*
X0000390500Y0001180500D03*
Y0001053500D03*
Y0000926500D03*
Y0000799500D03*
Y0000672500D03*
X0000517500Y0001180500D03*
Y0001053500D03*
Y0000926500D03*
Y0000799500D03*
Y0000672500D03*
X0000390500Y0001815500D03*
Y0001688500D03*
Y0001561500D03*
Y0001434500D03*
Y0001307500D03*
X0000517500Y0001815500D03*
Y0001688500D03*
Y0001561500D03*
Y0001434500D03*
Y0001307500D03*
X0000390500Y0002450500D03*
Y0002323500D03*
Y0002196500D03*
Y0002069500D03*
Y0001942500D03*
X0000517500Y0002450500D03*
Y0002323500D03*
Y0002196500D03*
Y0002069500D03*
Y0001942500D03*
X0000390500Y0003085500D03*
Y0002958500D03*
Y0002831500D03*
Y0002704500D03*
Y0002577500D03*
X0000517500Y0003085500D03*
Y0002958500D03*
Y0002831500D03*
Y0002704500D03*
Y0002577500D03*
X0000390500Y0003720500D03*
Y0003593500D03*
Y0003466500D03*
Y0003339500D03*
Y0003212500D03*
X0000517500Y0003720500D03*
Y0003593500D03*
Y0003466500D03*
Y0003339500D03*
Y0003212500D03*
X0000390500Y0004355500D03*
Y0004228500D03*
Y0004101500D03*
Y0003974500D03*
Y0003847500D03*
X0000517500Y0004355500D03*
Y0004228500D03*
Y0004101500D03*
Y0003974500D03*
Y0003847500D03*
X0000390500Y0004990500D03*
Y0004863500D03*
Y0004736500D03*
Y0004609500D03*
Y0004482500D03*
X0000517500Y0004990500D03*
Y0004863500D03*
Y0004736500D03*
Y0004609500D03*
Y0004482500D03*
X0000390500Y0005625500D03*
Y0005498500D03*
Y0005371500D03*
Y0005244500D03*
Y0005117500D03*
X0000517500Y0005625500D03*
Y0005498500D03*
Y0005371500D03*
Y0005244500D03*
Y0005117500D03*
G54D19*
X-0000105000Y0005868000D03*
X0000200000Y0000430000D03*
M02*
