G04 ================== begin FILE IDENTIFICATION RECORD ==================*
G04 Layout Name:  pc042a_toplevel_25.brd*
G04 Film Name:    PC042A_BOTTOM*
G04 File Format:  Gerber RS274X*
G04 File Origin:  Cadence Allegro 16.3-S013*
G04 Origin Date:  Mon Sep 19 15:02:03 2011*
G04 *
G04 Layer:  VIA CLASS/BOTTOM*
G04 Layer:  PIN/BOTTOM*
G04 Layer:  ETCH/BOTTOM*
G04 *
G04 Offset:    (0.0000 0.0000)*
G04 Mirror:    No*
G04 Mode:      Positive*
G04 Rotation:  0*
G04 FullContactRelief:  No*
G04 UndefLineWidth:     0.0000*
G04 ================== end FILE IDENTIFICATION RECORD ====================*
%FSAX55Y55*MOMM*%
%IR0*IPPOS*OFA0.00000B0.00000*MIA0B0*SFA1.00000B1.00000*%
%ADD17R,1.X.4*%
%ADD16R,.9X1.*%
%ADD15R,1.X.9*%
%ADD13R,.6X1.55*%
%ADD20R,2.032X.635*%
%ADD19R,1.651X.635*%
%ADD14C,.6096*%
%AMMACRO18*
21,1,1.,.9,0.0,0.0,135.*%
%ADD18MACRO18*%
%ADD21C,1.*%
%ADD12C,2.032*%
%ADD11C,1.524*%
%ADD10C,3.9878*%
%ADD22C,.2*%
%ADD23C,.3*%
%ADD24C,.4*%
%ADD25C,.5*%
%ADD26C,.15*%
%ADD27C,.6*%
%ADD28C,.25*%
%ADD29C,.257*%
%ADD30C,.2257*%
G75*
%LPD*%
G75*
G54D10*
X-0015864380Y0000024050D03*
Y0006305760D03*
X0Y0D03*
Y0006300000D03*
G54D11*
X-0015155300Y0000104590D03*
Y0000358590D03*
X-0014647300Y0000104590D03*
X-0014901300D03*
X-0014647300Y0000358590D03*
X-0014901300D03*
X-0013885300Y0000104590D03*
X-0014139300D03*
X-0014393300D03*
X-0013885300Y0000358590D03*
X-0014139300D03*
X-0014393300D03*
X-0013377300Y0000104590D03*
X-0013631300D03*
X-0013377300Y0000358590D03*
X-0013631300D03*
X-0012615300Y0000104590D03*
X-0012869300D03*
X-0013123300D03*
X-0012615300Y0000358590D03*
X-0012869300D03*
X-0013123300D03*
X-0012107300Y0000104590D03*
X-0012361300D03*
X-0012107300Y0000358590D03*
X-0012361300D03*
X-0011345300Y0000104590D03*
X-0011599300D03*
X-0011853300D03*
X-0011345300Y0000358590D03*
X-0011599300D03*
X-0011853300D03*
X-0010837300Y0000104590D03*
X-0011091300D03*
X-0010837300Y0000358590D03*
X-0011091300D03*
X-0010329300Y0000104590D03*
X-0010583300D03*
X-0010329300Y0000358590D03*
X-0010583300D03*
X-0008297680Y0000105840D03*
X-0008551680D03*
X-0008297680Y0000359840D03*
X-0008551680D03*
X-0007535680Y0000105840D03*
X-0007789680D03*
X-0008043680D03*
X-0007535680Y0000359840D03*
X-0007789680D03*
X-0008043680D03*
X-0007027680Y0000105840D03*
X-0007281680D03*
X-0007027680Y0000359840D03*
X-0007281680D03*
X-0006265680D03*
X-0006519680D03*
Y0000105840D03*
X-0006265680D03*
X-0006773680D03*
Y0000359840D03*
X-0005757680Y0000105840D03*
X-0006011680D03*
X-0005757680Y0000359840D03*
X-0006011680D03*
X-0005503680Y0000105840D03*
Y0000359840D03*
G54D20*
X-0002429770Y0000764850D03*
G54D30*
G01X-0014895180Y0003984080D02*
Y0004085570D01*
X-0014870000Y0004110750D01*
Y0004210000D01*
X-0014443450Y0004636550D01*
X-0011051720D01*
X-0010760000Y0004928270D01*
X-0000607850D01*
X-0000308420Y0004628840D01*
X-0000279610Y0004600040D01*
X-0000164410D01*
X-0000074970Y0004510600D01*
X0000228510D01*
X0000507380Y0004231730D01*
X0000509320D01*
X0000574320Y0004166730D01*
X0000632270D01*
X0000676270Y0004122730D01*
Y0003913770D01*
X0000612500Y0003850000D01*
G01X-0014795180Y0003984080D02*
Y0004085570D01*
X-0014820000Y0004110390D01*
Y0004191730D01*
X-0014423450Y0004588280D01*
X-0011031720D01*
X-0010740000Y0004880000D01*
X-0000628250D01*
X-0000328820Y0004580570D01*
X-0000328420D01*
X-0000299620Y0004551770D01*
X-0000184420D01*
X-0000094980Y0004462330D01*
X0000208500D01*
X0000487370Y0004183460D01*
X0000487810D01*
X0000548370Y0004122900D01*
Y0004040630D01*
X0000614500Y0003974500D01*
G01X-0010175000Y0004740000D02*
X-0010730000D01*
X-0010929990Y0004540010D01*
X-0011030260D01*
X-0011030270Y0004540000D01*
X-0012134920D01*
X-0012134930Y0004540010D01*
X-0012337510D01*
X-0012337520Y0004540000D01*
X-0012900000D01*
X-0012940000Y0004500000D01*
X-0014310000D01*
X-0014695180Y0004114820D01*
Y0003984080D01*
G01X-0013885300Y0000104590D02*
Y0000206570D01*
X-0013992790Y0000314060D01*
Y0000394710D01*
X-0014077820Y0000479740D01*
Y0003063160D01*
X-0014153380Y0003138720D01*
X-0014158380D01*
G01X-0013885300Y0000358590D02*
X-0014029550Y0000502840D01*
Y0003063920D01*
X-0013955630Y0003137840D01*
X-0013950630D01*
G01X-0014158870Y0003639310D02*
X-0014274410D01*
X-0014313820Y0003599900D01*
Y0003435140D01*
X-0014229370Y0003350690D01*
X-0014225350D01*
X-0014163380Y0003288720D01*
X-0014158380D01*
G01X-0013950630Y0003287840D02*
X-0013955630D01*
X-0014061950Y0003394160D01*
Y0003600220D01*
X-0014022860Y0003639310D01*
X-0013948870D01*
G01X-0014395180Y0003984080D02*
Y0004085570D01*
X-0014368270Y0004112480D01*
Y0004251730D01*
X-0014200000Y0004420000D01*
X-0012810000D01*
X-0012738270Y0004491730D01*
X-0012317520D01*
X-0012317510Y0004491740D01*
X-0012154930D01*
X-0012154920Y0004491730D01*
X-0011010270D01*
X-0011010260Y0004491740D01*
X-0010838260D01*
X-0010760000Y0004570000D01*
X-0000730000D01*
X-0000450000Y0004290000D01*
X-0000050000D01*
X0000040000Y0004380000D01*
X0000190000D01*
X0000420000Y0004150000D01*
Y0004040000D01*
X0000357270Y0003977270D01*
Y0003904770D01*
X0000300000Y0003847500D01*
G01X0000295500Y0003974500D02*
X0000309000Y0003988000D01*
Y0003997270D01*
X0000371730Y0004060000D01*
Y0004129990D01*
X0000171720Y0004330000D01*
X0000058280D01*
X-0000029990Y0004241730D01*
X-0000470000D01*
X-0000750000Y0004521730D01*
X-0010740000D01*
X-0010818260Y0004443470D01*
X-0010990260D01*
X-0010990270Y0004443460D01*
X-0012174920D01*
X-0012174930Y0004443470D01*
X-0012297510D01*
X-0012297520Y0004443460D01*
X-0012718270D01*
X-0012790000Y0004371730D01*
X-0014180000D01*
X-0014320000Y0004231730D01*
Y0004110390D01*
X-0014295180Y0004085570D01*
Y0003984080D01*
G01X0000110000Y0003974500D02*
X0000171770Y0004036270D01*
Y0004125590D01*
X0000135590Y0004161770D01*
X0000045310D01*
X0000031810Y0004148270D01*
X-0007496660D01*
X-0007692170Y0004343780D01*
X-0010828970D01*
X-0010828980Y0004343790D01*
X-0010948960D01*
X-0010948970Y0004343780D01*
X-0012256220D01*
X-0012385200Y0004214800D01*
X-0013212300D01*
X-0013214090Y0004213010D01*
X-0013383080D01*
X-0013386090Y0004210000D01*
X-0013390000D01*
X-0013495180Y0004104820D01*
Y0003984080D01*
G01X0000110000Y0004100000D02*
X-0007516660D01*
X-0007712170Y0004295510D01*
X-0010848970D01*
X-0010848980Y0004295520D01*
X-0010928960D01*
X-0010928970Y0004295510D01*
X-0012236220D01*
X-0012365200Y0004166530D01*
X-0013192300D01*
X-0013194090Y0004164740D01*
X-0013363080D01*
X-0013399260Y0004128560D01*
Y0004077380D01*
X-0013395180Y0004073300D01*
Y0003984080D01*
G01X-0002989770Y0000637850D02*
X-0003484070D01*
X-0004254960Y0001408740D01*
X-0011378680D01*
X-0011720650Y0001066770D01*
X-0011907650D01*
G01X-0012361300Y0000104590D02*
X-0012290450Y0000175440D01*
Y0000275630D01*
X-0012252030Y0000314050D01*
Y0000314060D01*
X-0012214790Y0000351300D01*
Y0000585070D01*
X-0011847990Y0000951870D01*
X-0011614580D01*
X-0011300260Y0001266190D01*
X-0004351610D01*
X-0003469270Y0000383850D01*
X-0002989770D01*
G01X-0012107300Y0000358590D02*
Y0000523990D01*
X-0011809660Y0000821630D01*
X-0011534910D01*
X-0011222470Y0001134070D01*
X-0004496210D01*
X-0003491990Y0000129850D01*
X-0002989770D01*
G01X-0012107300Y0000104590D02*
X-0012036450Y0000175440D01*
X-0012036340D01*
X-0011960680Y0000251100D01*
Y0000313950D01*
X-0011960790Y0000314060D01*
Y0000403120D01*
X-0011960680Y0000403230D01*
Y0000498900D01*
X-0011786120Y0000673460D01*
X-0011476770D01*
X-0011179570Y0000970660D01*
X-0004670490D01*
X-0003766640Y0000066810D01*
X-0002815620D01*
X-0002625580Y0000256850D01*
X-0002429770D01*
G01X-0012095180Y0003984080D02*
Y0004114820D01*
X-0011962760Y0004247240D01*
X-0010857240D01*
X-0010821900Y0004211900D01*
X-0007792820D01*
X-0007440920Y0003860000D01*
X0000014360D01*
X0000067090Y0003912730D01*
X0000175550D01*
X0000230000Y0003858280D01*
Y0003810000D01*
X0000257730Y0003782270D01*
X0000326680D01*
X0000362860Y0003746090D01*
Y0003694910D01*
X0000355270Y0003687320D01*
Y0003525270D01*
X0000300000Y0003470000D01*
G01X0000293500Y0003593500D02*
X0000247980Y0003639020D01*
Y0003686250D01*
X0000239320Y0003694910D01*
Y0003732410D01*
X0000181730Y0003790000D01*
Y0003838270D01*
X0000155540Y0003864460D01*
X0000087100D01*
X0000034370Y0003811730D01*
X-0007460920D01*
X-0007812820Y0004163630D01*
X-0010853630D01*
X-0010888970Y0004198970D01*
X-0011891030D01*
X-0011995180Y0004094820D01*
Y0003984080D01*
G01X0000100000Y0003600000D02*
X-0000171140D01*
X-0000239410Y0003531730D01*
X-0007336760D01*
X-0007874050Y0004069020D01*
X-0010949030D01*
X-0011028270Y0004148270D01*
X-0011832480D01*
X-0011895180Y0004085570D01*
Y0003984080D01*
G01X0000110000Y0003690000D02*
X0000161770Y0003638230D01*
Y0003574410D01*
X0000125590Y0003538230D01*
X-0000164640D01*
X-0000219410Y0003483460D01*
X-0007356760D01*
X-0007894050Y0004020750D01*
X-0010970750D01*
X-0011050000Y0004100000D01*
X-0011730000D01*
X-0011737130Y0004092870D01*
X-0011738140D01*
X-0011795180Y0004035830D01*
Y0003984080D01*
G01X-0007991430Y0003826550D02*
X-0008061640D01*
X-0008095880Y0003860790D01*
X-0010601590D01*
X-0011193580Y0003268800D01*
Y0003228140D01*
X-0011232100Y0003189620D01*
G01X-0011312150Y0003266670D02*
X-0011273630Y0003305190D01*
X-0011225690D01*
X-0010635420Y0003895460D01*
X-0010635190D01*
X-0010621590Y0003909060D01*
X-0008092450D01*
X-0008056820Y0003944690D01*
X-0007993140D01*
G01X-0010025000Y0004740000D02*
X-0000630000Y0004730000D01*
X-0000390000Y0004490000D01*
X-0000210000D01*
G01X-0008734550Y0003710350D02*
Y0002595450D01*
X-0009293110Y0002036890D01*
X-0009382970D01*
G01X-0002125800Y0000789820D02*
X-0002226650D01*
X-0002314660Y0000701810D01*
X-0002631710D01*
X-0002822670Y0000510850D01*
X-0002989770D01*
G01X-0002129470Y0000318560D02*
X-0002130800Y0000319890D01*
X-0002709240D01*
X-0002772280Y0000256850D01*
X-0002989770D01*
G01X-0002129470Y0000066980D02*
X-0002129640Y0000066810D01*
X-0002692770D01*
X-0002756730Y0000002850D01*
X-0002989770D01*
G01X0000296670Y0004932670D02*
X0000803190D01*
X0000881440Y0004854420D01*
Y0001664840D01*
X0000670070Y0001453470D01*
X0000619300D01*
X-0000416690Y0000417480D01*
X-0002025550D01*
X-0002124470Y0000318560D01*
X-0002129470D01*
G01X-0000217410Y0005244500D02*
X0000199360D01*
X0000261130Y0005182730D01*
X0000815960D01*
X0000988470Y0005010220D01*
Y0001231430D01*
X0000578780Y0000821740D01*
Y0000820590D01*
X0000330310Y0000572120D01*
X-0000007040D01*
X-0000525760Y0000053400D01*
X-0002041900D01*
X-0002055480Y0000066980D01*
X-0002129470D01*
G01X-0001946100Y0000129690D02*
X-0000594000D01*
X0000263080Y0000986770D01*
X0000272040D01*
X0000638210Y0001352940D01*
X0000697930D01*
X0000926020Y0001581030D01*
Y0001641150D01*
X0000929710Y0001644840D01*
Y0004934240D01*
X0000826650Y0005037300D01*
X0000265040D01*
X0000184840Y0005117500D01*
X0000102950D01*
G01X-0002429770Y0000129850D02*
X-0002280880D01*
X-0002217310Y0000193420D01*
X-0002083820D01*
X-0002020090Y0000129690D01*
X-0001946100D01*
G01X-0000213090Y0004863500D02*
X0000734300D01*
X0000828060Y0004769740D01*
Y0002116090D01*
X-0000498210Y0000789820D01*
X-0002125800D01*
G54D12*
X-0015194180Y0006379280D03*
X-0010896180D03*
G54D21*
X-0000105000Y0005868000D03*
X0000200000Y0000430000D03*
G54D22*
G01X-0003793000Y0005533000D02*
X-0004422000Y0005381000D01*
G01X-0004022000Y0005583000D02*
X-0004487000Y0005492000D01*
G01X-0000602310Y0006322910D02*
X-0000591040Y0006337730D01*
X-0000581390Y0006346200D01*
X-0000568520Y0006350430D01*
X-0000557260Y0006346200D01*
X-0000549220Y0006337730D01*
X-0000542780Y0006325030D01*
X-0000541170Y0006310220D01*
X-0000542780Y0006297510D01*
X-0000549220Y0006284810D01*
X-0000558870Y0006274230D01*
X-0000570130Y0006270000D01*
X-0000583000Y0006274230D01*
X-0000594260Y0006286930D01*
X-0000600700Y0006305980D01*
X-0000602310Y0006327150D01*
X-0000599090Y0006354660D01*
X-0000594260Y0006369490D01*
X-0000586220Y0006384300D01*
X-0000574960Y0006394880D01*
X-0000563700Y0006397000D01*
X-0000552440Y0006392770D01*
X-0000544390Y0006382180D01*
G01X0000296320Y0002764980D02*
X-0000154550D01*
X-0000214910Y0002704620D01*
G54D13*
X-0014495180Y0003984080D03*
X-0014595180D03*
X-0014695180D03*
X-0014795180D03*
X-0014895180D03*
X-0014995180D03*
X-0013895180D03*
X-0013995180D03*
X-0014095180D03*
X-0014195180D03*
X-0014295180D03*
X-0014395180D03*
X-0013295180D03*
X-0013395180D03*
X-0013495180D03*
X-0013595180D03*
X-0013695180D03*
X-0013795180D03*
X-0012595180D03*
X-0012695180D03*
X-0012795180D03*
X-0012895180D03*
X-0012995180D03*
X-0013095180D03*
X-0013195180D03*
X-0011995180D03*
X-0012095180D03*
X-0012195180D03*
X-0012295180D03*
X-0012395180D03*
X-0012495180D03*
X-0011395180D03*
X-0011495180D03*
X-0011595180D03*
X-0011695180D03*
X-0011795180D03*
X-0011895180D03*
X-0011095180D03*
X-0011195180D03*
X-0011295180D03*
G54D23*
G01X-0013948870Y0003574310D02*
X-0013866810D01*
G01X-0013360970Y0003162250D02*
X-0013267790D01*
G01X-0007789950Y0000722620D02*
Y0000810200D01*
G01X-0003724000Y0005632000D02*
X-0003725000Y0005687000D01*
G01X-0003734000Y0005750000D02*
X-0003740000Y0005838000D01*
G54D14*
X-0014495180Y0003863400D03*
X-0014995180D03*
X-0013866810Y0003574310D03*
X-0014368670Y0003772110D03*
X-0014252050Y0003574310D03*
X-0014158870Y0003439880D03*
X-0013949530Y0003446130D03*
X-0013895410Y0004104760D03*
X-0013782320Y0003144330D03*
X-0013570360Y0003034070D03*
X-0013360970D03*
X-0013782180Y0003479010D03*
X-0013809290Y0003678930D03*
X-0013664150Y0003162250D03*
X-0013632180Y0003479660D03*
X-0013267790Y0003162250D03*
X-0013296660Y0003821340D03*
X-0013337490Y0004102970D03*
X-0012744520Y0003719500D03*
X-0012990000Y0003610000D03*
X-0013037510Y0003199010D03*
X-0013166710Y0004104760D03*
X-0012895180Y0003863400D03*
X-0012321460Y0001658570D03*
X-0012074870Y0003018450D03*
X-0012000000Y0003610000D03*
X-0011880770Y0001211490D03*
X-0011353870Y0001566350D03*
X-0011880770Y0001465830D03*
X-0011878190Y0002034210D03*
X-0011852440Y0003245370D03*
X-0011843160Y0003677180D03*
X-0011333920Y0003681670D03*
X-0011312150Y0003266670D03*
X-0011395180Y0003800000D03*
X-0011295180Y0003863400D03*
X-0011595180Y0003852450D03*
X-0010837300Y0001547560D03*
X-0010953300Y0002898940D03*
X-0010712350Y0003130920D03*
X-0011232100Y0003189620D03*
X-0011095180Y0003863400D03*
X-0011195180Y0003800000D03*
X-0009531000Y0001660180D03*
X-0009469090Y0001864710D03*
X-0009795450D03*
X-0009824720Y0002040000D03*
X-0009480240Y0002830190D03*
X-0009680540Y0003714990D03*
X-0009292820Y0001753360D03*
X-0009195010Y0001941890D03*
X-0008935010D03*
X-0009382970Y0002036890D03*
X-0009028990Y0002128970D03*
X-0009225700Y0002707690D03*
X-0008908930Y0002906310D03*
X-0008908100Y0002758020D03*
X-0009324840Y0003714990D03*
X-0008940000Y0003710000D03*
X-0009111570Y0003700000D03*
X-0009187710Y0004421890D03*
X-0008454610Y0003721160D03*
X-0008734550Y0003710350D03*
X-0007789950Y0000810200D03*
X-0007536720Y0002593030D03*
X-0008113480Y0003721160D03*
X-0007991430Y0003826550D03*
X-0007993140Y0003944690D03*
X-0007383970Y0002307300D03*
X-0003172450Y0000764850D03*
X-0002734370Y0001020580D03*
X-0002129470Y-0000185880D03*
X-0002429770Y-0000111130D03*
X-0002244810Y0000468560D03*
X-0002125800Y0001033520D03*
X-0001821590Y0000279690D03*
X-0000693270Y0001582010D03*
Y0001904250D03*
X-0000688320Y0005279130D03*
X-0000584140Y0005045950D03*
X-0000209840Y0000925000D03*
X-0000265000Y0001685000D03*
X-0000212030Y0001307500D03*
X-0000264500Y0002069500D03*
X-0000265000Y0002450000D03*
X-0000268180Y0002831500D03*
X-0000214910Y0002704620D03*
X-0000265000Y0003593500D03*
X-0000268180Y0003974500D03*
X-0000217420Y0004355500D03*
X-0000215350Y0004736500D03*
X-0000210000Y0004490000D03*
X-0000213090Y0004863500D03*
X-0000055000Y0005565000D03*
X-0000215360Y0005117500D03*
X-0000219500Y0005498500D03*
X-0000217410Y0005244500D03*
X0000637500Y0000672500D03*
X0000127500D03*
X0000124500Y0001180500D03*
X0000644500D03*
X0000650000Y0001050000D03*
X0000290000Y0000925000D03*
X0000295000Y0000795000D03*
X0000125000Y0001055000D03*
X0000651500Y0001688500D03*
X0000655000Y0001560000D03*
X0000287500Y0001307500D03*
X0000112350Y0001561500D03*
X0000655000Y0002195000D03*
Y0002065000D03*
X0000294870Y0002196500D03*
X0000108200Y0001942500D03*
X0000104060Y0002323500D03*
X0000294540Y0002069500D03*
X0000290960Y0001942500D03*
X0000652500Y0002577500D03*
X0000655000Y0002705000D03*
X0000294870Y0002577500D03*
X0000099910Y0002704500D03*
X0000290720Y0002958500D03*
X0000106130Y0003085500D03*
X0000616360D03*
X0000296320Y0002764980D03*
X0000101980Y0003466500D03*
X0000296950Y0003339500D03*
X0000301090Y0003720500D03*
X0000614290D03*
X0000616360Y0003593500D03*
Y0003212500D03*
X0000300000Y0003470000D03*
X0000293500Y0003593500D03*
X0000100000Y0003600000D03*
X0000110000Y0003690000D03*
Y0003800000D03*
Y0004260000D03*
X0000292800Y0004101500D03*
X0000610140Y0004228500D03*
Y0004101500D03*
X0000614440Y0004355500D03*
X0000110000Y0003974500D03*
Y0004100000D03*
X0000612500Y0003850000D03*
X0000614500Y0003974500D03*
X0000300000Y0003847500D03*
X0000295500Y0003974500D03*
X0000612210Y0004609500D03*
X0000616360Y0004736500D03*
X0000104060Y0004609500D03*
X0000106130Y0004990500D03*
X0000617070Y0004482500D03*
X0000312400Y0004609500D03*
X0000296670Y0004932670D03*
X0000100000Y0005498500D03*
X0000616360Y0005117500D03*
X0000612210Y0005371500D03*
X0000296950Y0005244500D03*
X0000106130Y0005371500D03*
X0000292800Y0005498500D03*
X0000618430Y0005625500D03*
X0000108210D03*
X0000296470Y0005117500D03*
X0000299470Y0005371500D03*
X0000291510Y0005625500D03*
X0000617410Y0005498500D03*
X0000102950Y0005117500D03*
G54D24*
G01X-0014495180Y0003984080D02*
X-0014595180D01*
G01X-0014995180D02*
Y0003863400D01*
G01X-0014495180Y0003984080D02*
Y0003863400D01*
G01X-0014158870Y0003574310D02*
X-0014252050D01*
G01X-0013895410Y0004104760D02*
Y0004099340D01*
X-0013895180Y0004099110D01*
Y0003984080D01*
G01X-0014280490Y0003772110D02*
X-0014368670D01*
G01X-0013570970Y0003162250D02*
X-0013664150D01*
G01X-0013809290Y0003772110D02*
Y0003678930D01*
G01X-0013632180Y0003572840D02*
Y0003479660D01*
G01X-0013384840Y0003821340D02*
X-0013296660D01*
G01X-0012744520Y0003812680D02*
Y0003719500D01*
G01Y0003812680D02*
Y0003984080D01*
G01X-0012695180D02*
X-0012744520D01*
G01D02*
X-0012795180D01*
G01X-0012025410Y0003067230D02*
X-0012074190Y0003018450D01*
X-0012074870D01*
G01X-0011844000Y0003785040D02*
Y0003678020D01*
X-0011843160Y0003677180D01*
G01X-0011395180Y0003800000D02*
Y0003984080D01*
G01X-0010789490Y0003053780D02*
X-0010712350Y0003130920D01*
G01X-0011295180Y0003984080D02*
Y0003863400D01*
G01X-0011095180Y0003984080D02*
Y0003863400D01*
G01X-0011195180Y0003984080D02*
Y0003800000D01*
G01X-0009225700Y0002830190D02*
Y0002707690D01*
G01X-0009417460Y0003714990D02*
X-0009324840D01*
G01X-0008202320Y0003721160D02*
X-0008113480D01*
G01X-0002841910Y0001020580D02*
X-0002734370D01*
G01X-0002429770Y0000002850D02*
Y-0000111130D01*
G54D15*
X-0013950630Y0003137840D03*
X-0014158380Y0003138720D03*
X-0013950630Y0003287840D03*
X-0014158380Y0003288720D03*
X-0013782320Y0003232510D03*
Y0003382510D03*
X-0007789950Y0000572620D03*
Y0000722620D03*
X-0002129470Y-0000083020D03*
Y0000468560D03*
Y0000318560D03*
Y0000066980D03*
X-0001946100Y0000279690D03*
Y0000129690D03*
X-0002125800Y0000939820D03*
Y0000789820D03*
G54D25*
G01X-0013595180Y0003984080D02*
Y0003881680D01*
X-0013534840Y0003821340D01*
G01X-0012595180Y0003984080D02*
Y0003813340D01*
X-0012594520Y0003812680D01*
G01X-0011694000Y0003785040D02*
X-0011694750Y0003857310D01*
X-0011695180Y0003857740D01*
Y0003984080D01*
G01X-0007789950Y0000572620D02*
Y0000489920D01*
X-0007789680Y0000489650D01*
Y0000359840D01*
G54D16*
X-0013959290Y0003772110D03*
X-0014130490D03*
X-0014280490D03*
X-0013548680Y0003382500D03*
X-0013398680D03*
X-0013187510Y0003323870D03*
X-0013809290Y0003772110D03*
X-0013782180Y0003572840D03*
X-0013632180D03*
X-0013534840Y0003821340D03*
X-0013384840D03*
X-0013037510Y0003323870D03*
X-0012594520Y0003812680D03*
X-0012744520D03*
X-0011694000Y0003785040D03*
X-0011844000D03*
X-0010175000Y0004740000D03*
X-0009442820Y0001660180D03*
X-0009705000Y0002040000D03*
X-0009555000D03*
X-0009567460Y0003714990D03*
X-0009417460D03*
X-0010025000Y0004740000D03*
X-0009292820Y0001660180D03*
X-0009375700Y0002830190D03*
X-0009225700D03*
X-0008352320Y0003721160D03*
X-0008202320D03*
X-0002991910Y0001020580D03*
X-0002841910D03*
G54D26*
G01X-0004420000Y0005380000D02*
X-0002452000Y0005847000D01*
X-0002413000Y0005854000D01*
X-0002388000Y0005859000D01*
G01X-0003973000Y0006062000D02*
G02X-0004520000Y0005765000I-0001714074J0002504678D01*
G01X-0003832000Y0006069000D02*
G02X-0004413000Y0005722000I-0002087063J0002834579D01*
G01X-0003868000Y0005783000D02*
G02X-0003866000Y0005547000I-0011504000J-0000215500D01*
G01X-0003962000Y0005572000D02*
G02X-0003953000Y0005797000I0005590530J-0000110941D01*
G01X-0003899000Y0005996000D02*
G03X-0003921000I-0000011000J-0000004860D01*
G01X-0003881760Y0005959210D02*
G03X-0003896170Y0005992350I-0000069125J-0000010354D01*
G01X-0003935000Y0005964000D02*
G02X-0003921000Y0005996000I0000124471J-0000035394D01*
G01X-0003936000Y0005962000D02*
G03X-0003954000Y0005841000I0000419569J-0000124254D01*
G01X-0003881000Y0005958000D02*
G02X-0003869000Y0005836000I-0000532300J-0000113948D01*
G01X-0003952000Y0005839000D02*
G02X-0003873000Y0005835000I0000034584J-0000099100D01*
G01X-0003954000Y0005798000D02*
G02X-0003869000Y0005789000I0000032829J-0000095841D01*
G01X-0003745620Y0005908210D02*
G03X-0003744240Y0005743120I0001203100J-0000072494D01*
G01X-0003731050Y0005705680D02*
G03X-0003734210Y0005624120I0000153371J-0000046783D01*
G01X-0003732320Y0005625470D02*
X-0003717460Y0005627750D01*
G01X-0003741000Y0005744000D02*
X-0003728000Y0005746000D01*
G01X-0003709380Y0005628270D02*
G03X-0003724420Y0005708490I-0000159932J0000011535D01*
G01X-0003724000Y0005747000D02*
G03X-0003743000Y0005911000I-0001203960J-0000056383D01*
G01X-0003707000Y0006065000D02*
G03X-0002926000Y0005814000I0000740737J0000964282D01*
G01X-0003701000Y0006007000D02*
G03X-0002936000Y0005799000I0000728218J0001167510D01*
G01X-0003656000Y0005653000D02*
X-0002641000Y0005855000D01*
G01X-0002576650Y0006004980D02*
G03X-0002596340Y0005958760I0000171768J-0000100478D01*
G01X-0002521270Y0006031990D02*
G03X-0002513570Y0005982340I0000198917J0000005427D01*
G01X-0002579650Y0005994980D02*
G03X-0002599340Y0005948760I0000171768J-0000100478D01*
G01X-0002603000Y0005927000D02*
X-0002602000Y0005945000D01*
G01X-0002562000Y0005924000D02*
Y0005946000D01*
G01X-0002561000D02*
G03X-0002566000Y0005996000I-0000198929J0000005357D01*
G01X-0002598000Y0005945000D02*
X-0002562000Y0005944000D01*
G01X-0002566000Y0005927000D02*
X-0002599000D01*
G01X-0002541000Y0006015000D02*
G02X-0002520000Y0005850000I-0002104130J-0000351635D01*
G01X-0002614000Y0006007000D02*
G03X-0002643000Y0005855000I0000442728J-0000163234D01*
G01X-0002614000Y0005851000D02*
G02X-0002603000Y0005927000I0000205410J0000009066D01*
G01X-0002561000Y0005849000D02*
G03X-0002563000Y0005925000I-0000343000J0000029000D01*
G01X-0002540000Y0006051000D02*
X-0002522000D01*
X-0002520000Y0006011000D01*
G01X-0002534000Y0006052000D02*
Y0006012000D01*
X-0002531000Y0006014000D01*
X-0002603000Y0006011000D01*
Y0006051000D01*
X-0002535000Y0006052000D01*
G01X-0002562000Y0005846000D02*
X-0002511000Y0005848000D01*
G01X-0002589000Y0005859000D02*
X-0002605000Y0005851000D01*
X-0002640000Y0005854000D01*
G01X-0002588000Y0005926000D02*
G03Y0005860000I0000269000J-0000033000D01*
G01X-0002510000Y0005962000D02*
G03X-0002399000Y0005856000I0000121671J0000016292D01*
G01X-0002503000Y0005848000D02*
G03X-0002513000Y0005985000I-0000741171J0000014765D01*
G01X-0002927000Y0005812000D02*
G03X-0002604000Y0006027000I-0000065833J0000449029D01*
G01X-0002934000Y0005800000D02*
G03X-0002539000Y0006031000I-0000045567J0000531134D01*
G01X-0002502000Y0005890000D02*
X-0002426000Y0005905000D01*
G54D17*
X-0013948870Y0003509310D03*
Y0003574310D03*
Y0003639310D03*
X-0014158870D03*
Y0003574310D03*
Y0003509310D03*
X-0013360970Y0003097250D03*
X-0013570970D03*
X-0013360970Y0003162250D03*
Y0003227250D03*
X-0013570970D03*
Y0003162250D03*
G54D27*
G01X-0013782180Y0003572840D02*
X-0013865340D01*
X-0013866810Y0003574310D01*
G01X-0013782180Y0003572840D02*
Y0003479010D01*
G01X-0013782320Y0003232510D02*
Y0003144330D01*
G01X-0012990000Y0003610000D02*
Y0003858700D01*
X-0012995180Y0003863880D01*
Y0003984080D01*
G01X-0013037510Y0003323870D02*
Y0003199010D01*
G01X-0012995180Y0003984080D02*
X-0013095180D01*
G01X-0012895180D02*
Y0003863400D01*
G01X-0010837300Y0001547560D02*
Y0002447300D01*
X-0012000000Y0003610000D01*
G01X-0011919350Y0003173290D02*
X-0011870570Y0003222070D01*
Y0003227240D01*
X-0011852440Y0003245370D01*
G01X-0011595180Y0003984080D02*
X-0011495180D01*
G01X-0011595180D02*
Y0003852450D01*
G01X-0011091300Y0000104590D02*
Y0000358590D01*
G01X-0010895550Y0002947720D02*
X-0010944330Y0002898940D01*
X-0010953300D01*
G01X-0009442820Y0001660180D02*
X-0009531000D01*
G01X-0009705000Y0002040000D02*
X-0009824720D01*
G01X-0009375700Y0002830190D02*
X-0009480240D01*
G01X-0009567460Y0003714990D02*
X-0009680540D01*
G01X-0008352320Y0003721160D02*
X-0008454610D01*
G01X-0002989770Y0000764850D02*
X-0003172450D01*
G01X-0002989770D02*
Y0000944450D01*
X-0002991910Y0000946590D01*
Y0001020580D01*
G01X-0002129470Y-0000083020D02*
Y-0000185880D01*
G01Y0000468560D02*
X-0002244810D01*
G01X-0001946100Y0000279690D02*
X-0001821590D01*
G01X-0002125800Y0000939820D02*
Y0001033520D01*
G54D18*
X-0011919350Y0003173290D03*
X-0012025410Y0003067230D03*
X-0010895550Y0002947720D03*
X-0010789490Y0003053780D03*
G54D28*
G01X-0004022000Y0005585000D02*
X-0003791000Y0005537000D01*
G01X-0003793000Y0005536000D02*
G03X-0003812000Y0006002000I-0006258181J-0000021775D01*
G01X-0004024000Y0005585000D02*
G02X-0003990000Y0006000000I0005128260J-0000211254D01*
G01X-0003711000Y0006060000D02*
X-0003708000Y0006155000D01*
X-0003828000Y0006154000D01*
X-0003981000Y0006149000D01*
X-0003979000Y0006059000D01*
X-0003823000Y0006068000D01*
X-0003708000Y0006069000D01*
G01X-0003823000Y0006068000D02*
X-0003824000Y0006154000D01*
G01X-0003821000Y0006070000D02*
G02X-0003812000Y0006004000I-0000314500J-0000076500D01*
G01X-0003990000Y0005997000D02*
G02X-0003979000Y0006062000I0000240740J-0000007310D01*
G01X-0003650000Y0005573000D02*
G03X-0003699000Y0006009000I-0005314170J-0000376481D01*
G01X-0003698000Y0006003000D02*
G02X-0003707000Y0006066000I0000582329J0000115333D01*
G54D19*
X-0002989770Y0000510850D03*
Y0000383850D03*
Y0000256850D03*
Y0000129850D03*
Y0000002850D03*
X-0002429770D03*
Y0000129850D03*
Y0000256850D03*
Y0000383850D03*
Y0000510850D03*
X-0002989770Y0000764850D03*
Y0000637850D03*
X-0002429770D03*
G54D29*
G01X-0014158870Y0003639310D02*
Y0003695270D01*
X-0014130490Y0003723650D01*
Y0003772110D01*
G01X-0013948870Y0003639310D02*
Y0003688990D01*
X-0013959290Y0003699410D01*
Y0003772110D01*
G01X-0014158870Y0003509310D02*
Y0003439880D01*
G01X-0013949530Y0003446130D02*
Y0003508650D01*
X-0013948870Y0003509310D01*
G01X-0014195180Y0003984080D02*
Y0004154820D01*
X-0014050000Y0004300000D01*
X-0012540000D01*
X-0012446380Y0004393620D01*
X-0012276870D01*
X-0012276860Y0004393630D01*
X-0012195580D01*
X-0012195570Y0004393620D01*
X-0010969620D01*
X-0010969610Y0004393630D01*
X-0010808330D01*
X-0010808320Y0004393620D01*
X-0010739350D01*
X-0010711080Y0004421890D01*
X-0009187710D01*
G01X-0014130490Y0003772110D02*
Y0003848570D01*
X-0014095180Y0003883880D01*
Y0003984080D01*
G01X-0013959290Y0003772110D02*
Y0003844810D01*
X-0013995180Y0003880700D01*
Y0003984080D01*
G01X-0013570360Y0003034070D02*
Y0003056430D01*
X-0013570970Y0003057040D01*
Y0003097250D01*
G01X-0013360970Y0003034070D02*
Y0003097250D01*
G01X-0013795180Y0003984080D02*
Y0003917420D01*
X-0013731440Y0003853680D01*
Y0003798140D01*
X-0013708580Y0003775280D01*
Y0003735900D01*
X-0013628370Y0003655690D01*
X-0013573570D01*
X-0013569070Y0003651190D01*
X-0013563870D01*
X-0013495840Y0003583160D01*
Y0003510900D01*
X-0013548680Y0003458060D01*
Y0003382500D01*
G01D02*
Y0003306940D01*
X-0013570970Y0003284650D01*
Y0003227250D01*
G01X-0013782320Y0003382510D02*
X-0013697300Y0003381730D01*
X-0013620010D01*
X-0013619240Y0003382500D01*
X-0013548680D01*
G01X-0013398680D02*
Y0003458060D01*
X-0013444440Y0003503820D01*
Y0003604460D01*
X-0013455170Y0003615190D01*
Y0003615680D01*
X-0013494260Y0003654770D01*
X-0013494750D01*
X-0013542570Y0003702590D01*
X-0013547770D01*
X-0013552270Y0003707090D01*
X-0013606110D01*
X-0013657180Y0003758160D01*
Y0003796580D01*
X-0013680040Y0003819440D01*
Y0003874980D01*
X-0013695180Y0003890120D01*
Y0003984080D01*
G01X-0013398680Y0003382500D02*
Y0003322810D01*
X-0013360970Y0003285100D01*
Y0003227250D01*
G01X-0013398680Y0003382500D02*
X-0013246720D01*
X-0013188090Y0003323870D01*
X-0013187510D01*
G01X-0013337490Y0004102970D02*
Y0004099630D01*
X-0013295180Y0004057320D01*
Y0003984080D01*
G01X-0012107300Y0000358590D02*
X-0012216350Y0000249540D01*
Y0000049560D01*
X-0012360760Y-0000094850D01*
X-0012663210D01*
X-0012738320Y-0000019740D01*
Y0002869490D01*
X-0012395180Y0003212630D01*
Y0003984080D01*
G01X-0012495180D02*
Y0003382830D01*
X-0012998540Y0002879470D01*
Y-0000010220D01*
X-0012826190Y-0000182570D01*
X-0012295560D01*
X-0012107300Y0000005690D01*
Y0000104590D01*
G01X-0013166710Y0004104760D02*
Y0004104130D01*
X-0013195180Y0004075660D01*
Y0003984080D01*
G01X-0011907650Y0001066770D02*
X-0012289340Y0000685080D01*
Y0000430550D01*
X-0012361300Y0000358590D01*
G01X-0012195180Y0003984080D02*
Y0003782390D01*
X-0012196410Y0003781160D01*
Y0002766990D01*
X-0012430810Y0002532590D01*
Y0001586310D01*
X-0012433260Y0001583860D01*
Y0000430550D01*
X-0012361300Y0000358590D01*
G01Y0000104590D02*
X-0012506250Y0000249530D01*
Y0000403770D01*
X-0012581410Y0000478930D01*
Y0002726060D01*
X-0012295180Y0003012290D01*
Y0003984080D01*
G01X-0009555000Y0002040000D02*
X-0009484440D01*
X-0009481330Y0002036890D01*
X-0009382970D01*
G01X-0009292820Y0001660180D02*
Y0001753360D01*
G01X0000290960Y0001942500D02*
X0000101820Y0001753360D01*
X-0009292820D01*
G01X-0009028990Y0002128970D02*
X-0008980020Y0002080000D01*
X-0000581770D01*
X-0000528940Y0002132830D01*
X0000231210D01*
X0000294540Y0002069500D01*
G01X-0008940000Y0003710000D02*
X-0008998600Y0003651400D01*
Y0002995980D01*
X-0008908930Y0002906310D01*
G01X-0009111570Y0003700000D02*
X-0009050000Y0003638430D01*
Y0002835600D01*
X-0008972420Y0002758020D01*
X-0008908100D01*
G01X-0007383970Y0002307300D02*
X-0000982030D01*
X-0000394160Y0002895170D01*
X0000605170D01*
X0000778220Y0003068220D01*
Y0004400080D01*
X0000695800Y0004482500D01*
X0000617070D01*
G01X-0007536720Y0002593030D02*
X-0001103440D01*
X-0000424320Y0003272150D01*
X0000514800D01*
X0000726620Y0003483970D01*
Y0004299360D01*
X0000670480Y0004355500D01*
X0000614440D01*
M02*
