G04 ================== begin FILE IDENTIFICATION RECORD ==================*
G04 Layout Name:  pc042a_toplevel_25.brd*
G04 Film Name:    PC042A_SILKSCREEN_BOTTOM*
G04 File Format:  Gerber RS274X*
G04 File Origin:  Cadence Allegro 16.3-S013*
G04 Origin Date:  Mon Sep 19 15:02:03 2011*
G04 *
G04 Layer:  REF DES/SILKSCREEN_BOTTOM*
G04 Layer:  BOARD GEOMETRY/SILKSCREEN_BOTTOM*
G04 *
G04 Offset:    (0.0000 0.0000)*
G04 Mirror:    No*
G04 Mode:      Positive*
G04 Rotation:  0*
G04 FullContactRelief:  No*
G04 UndefLineWidth:     0.2500*
G04 ================== end FILE IDENTIFICATION RECORD ====================*
%FSAX55Y55*MOMM*%
%IR0*IPPOS*OFA0.00000B0.00000*MIA0B0*SFA1.00000B1.00000*%
%ADD10C,.1*%
%ADD11C,.2*%
%ADD12C,.203*%
%ADD13C,.254*%
%ADD14C,.25*%
G75*
%LPD*%
G75*
G54D10*
G01X-0014286530Y0003615510D02*
X-0014313210D01*
G01X-0014299870D02*
Y0003515510D01*
G01X-0014286530D02*
X-0014313210D01*
G01X-0014405330Y0003607180D02*
X-0014398660Y0003612180D01*
X-0014390880Y0003615510D01*
X-0014381980D01*
X-0014371980Y0003610510D01*
X-0014364200Y0003602180D01*
X-0014358640Y0003592180D01*
X-0014354190Y0003575510D01*
X-0014353080Y0003560510D01*
X-0014355300Y0003545510D01*
X-0014358640Y0003535510D01*
X-0014365310Y0003525510D01*
X-0014373090Y0003518840D01*
X-0014380870Y0003515510D01*
X-0014388650D01*
X-0014396430Y0003518840D01*
X-0014403100Y0003523840D01*
X-0014408660Y0003530510D01*
G01X-0014440750Y0003598840D02*
X-0014447420Y0003608840D01*
X-0014455200Y0003613840D01*
X-0014464090Y0003615510D01*
X-0014475210Y0003612180D01*
X-0014482990Y0003603840D01*
X-0014485220Y0003593840D01*
X-0014484100Y0003583840D01*
X-0014479660Y0003575510D01*
X-0014457420Y0003558840D01*
X-0014447420Y0003547180D01*
X-0014440750Y0003530510D01*
X-0014438520Y0003515510D01*
X-0014485220D01*
G01X-0013398420Y0002939080D02*
X-0013425100D01*
G01X-0013411760D02*
Y0002839080D01*
G01X-0013398420D02*
X-0013425100D01*
G01X-0013517220Y0002930750D02*
X-0013510550Y0002935750D01*
X-0013502770Y0002939080D01*
X-0013493870D01*
X-0013483870Y0002934080D01*
X-0013476090Y0002925750D01*
X-0013470530Y0002915750D01*
X-0013466080Y0002899080D01*
X-0013464970Y0002884080D01*
X-0013467190Y0002869080D01*
X-0013470530Y0002859080D01*
X-0013477200Y0002849080D01*
X-0013484980Y0002842410D01*
X-0013492760Y0002839080D01*
X-0013500540D01*
X-0013508320Y0002842410D01*
X-0013514990Y0002847410D01*
X-0013520550Y0002854080D01*
G01X-0013573760Y0002839080D02*
Y0002939080D01*
X-0013560420Y0002919080D01*
G01Y0002839080D02*
X-0013587100D01*
G54D11*
G01X-0015181120Y0000600000D02*
Y0000790500D01*
X-0015152670Y0000752400D01*
G01Y0000600000D02*
X-0015209560D01*
G01X-0014991120Y0003510000D02*
Y0003700500D01*
X-0014962670Y0003662400D01*
G01Y0003510000D02*
X-0015019560D01*
G01X-0010739570Y0003650000D02*
Y0003840500D01*
X-0010651850Y0003703980D01*
X-0010770390D01*
G01X-0010901620Y0003840500D02*
X-0010882650Y0003834150D01*
X-0010868430Y0003818270D01*
X-0010858950Y0003799230D01*
X-0010851840Y0003773820D01*
X-0010849470Y0003745250D01*
X-0010851840Y0003716670D01*
X-0010858950Y0003691270D01*
X-0010868430Y0003672220D01*
X-0010882650Y0003656350D01*
X-0010901620Y0003650000D01*
X-0010920580Y0003656350D01*
X-0010934810Y0003672220D01*
X-0010944290Y0003691270D01*
X-0010951400Y0003716670D01*
X-0010953770Y0003745250D01*
X-0010951400Y0003773820D01*
X-0010944290Y0003799230D01*
X-0010934810Y0003818270D01*
X-0010920580Y0003834150D01*
X-0010901620Y0003840500D01*
G01X-0010145300Y0000078590D02*
X-0010165300Y0000091090D01*
X-0010178630Y0000106090D01*
X-0010185300Y0000123590D01*
X-0010178630Y0000143590D01*
X-0010165300Y0000158590D01*
X-0010145300Y0000173590D01*
X-0010118640Y0000178590D01*
X-0009985300D01*
G01X-0010185300Y0000328590D02*
X-0009985300D01*
X-0010025300Y0000298590D01*
G01X-0010185300D02*
Y0000358590D01*
G01X-0008845680Y0000382840D02*
X-0008825680Y0000370340D01*
X-0008812350Y0000355340D01*
X-0008805680Y0000337840D01*
X-0008812350Y0000317840D01*
X-0008825680Y0000302840D01*
X-0008845680Y0000287840D01*
X-0008872340Y0000282840D01*
X-0009005680D01*
G01X-0008972350Y0000180340D02*
X-0008992340Y0000165340D01*
X-0009002350Y0000147840D01*
X-0009005680Y0000127840D01*
X-0008999010Y0000102840D01*
X-0008982350Y0000085340D01*
X-0008962350Y0000080340D01*
X-0008942340Y0000082840D01*
X-0008925680Y0000092840D01*
X-0008892350Y0000142840D01*
X-0008869010Y0000165340D01*
X-0008835670Y0000180340D01*
X-0008805680Y0000185340D01*
Y0000080340D01*
G01X-0008621120Y0000600000D02*
Y0000790500D01*
X-0008592670Y0000752400D01*
G01Y0000600000D02*
X-0008649560D01*
G01X-0002808910Y0001164910D02*
X-0002694240D01*
X-0002670240Y0001156910D01*
X-0002654240Y0001140910D01*
X-0002648910Y0001120910D01*
X-0002654240Y0001100910D01*
X-0002670240Y0001084910D01*
X-0002694240Y0001076910D01*
X-0002808910D01*
G01X-0002648910Y0000936910D02*
X-0002808910D01*
X-0002694240Y0001010910D01*
Y0000910910D01*
G54D12*
G01X-0014438090Y0003666470D02*
Y0003818870D01*
X-0014475130D01*
X-0014486980Y0003811250D01*
X-0014494390Y0003801090D01*
X-0014497350Y0003780770D01*
X-0014494390Y0003760450D01*
X-0014485500Y0003747750D01*
X-0014475130Y0003740130D01*
X-0014438090D01*
G01X-0014475130D02*
X-0014497350Y0003666470D01*
G01X-0014594720D02*
Y0003818870D01*
X-0014576940Y0003788390D01*
G01Y0003666470D02*
X-0014612500D01*
G01X-0014693570Y0003729970D02*
X-0014703940Y0003747750D01*
X-0014712830Y0003757910D01*
X-0014724680Y0003762990D01*
X-0014735060Y0003757910D01*
X-0014742460Y0003747750D01*
X-0014748390Y0003732510D01*
X-0014749870Y0003714730D01*
X-0014748390Y0003699490D01*
X-0014742460Y0003684250D01*
X-0014733570Y0003671550D01*
X-0014723200Y0003666470D01*
X-0014711350Y0003671550D01*
X-0014700980Y0003686790D01*
X-0014695050Y0003709650D01*
X-0014693570Y0003735050D01*
X-0014696530Y0003768070D01*
X-0014700980Y0003785850D01*
X-0014708380Y0003803630D01*
X-0014718760Y0003816330D01*
X-0014729130Y0003818870D01*
X-0014739500Y0003813790D01*
X-0014746910Y0003801090D01*
G01X-0013855080Y0002961160D02*
X-0014007480D01*
Y0002924120D01*
X-0013999860Y0002912270D01*
X-0013989700Y0002904860D01*
X-0013969380Y0002901900D01*
X-0013949060Y0002904860D01*
X-0013936360Y0002913750D01*
X-0013928740Y0002924120D01*
Y0002961160D01*
G01Y0002924120D02*
X-0013855080Y0002901900D01*
G01Y0002786750D02*
X-0014007480D01*
X-0013898260Y0002841570D01*
Y0002767490D01*
G01X-0014072080Y0002963850D02*
X-0014224480D01*
Y0002926810D01*
X-0014216860Y0002914960D01*
X-0014206700Y0002907550D01*
X-0014186380Y0002904590D01*
X-0014166060Y0002907550D01*
X-0014153360Y0002916440D01*
X-0014145740Y0002926810D01*
Y0002963850D01*
G01Y0002926810D02*
X-0014072080Y0002904590D01*
G01X-0014094940Y0002839820D02*
X-0014082240Y0002830930D01*
X-0014074620Y0002820560D01*
X-0014072080Y0002807220D01*
X-0014077160Y0002793880D01*
X-0014087320Y0002783510D01*
X-0014105100Y0002776100D01*
X-0014125420Y0002774620D01*
X-0014145740Y0002777590D01*
X-0014158440Y0002785000D01*
X-0014168600Y0002795370D01*
X-0014171140Y0002805740D01*
X-0014168600Y0002816110D01*
X-0014158440Y0002829440D01*
X-0014224480Y0002825000D01*
Y0002785000D01*
G01X-0013725450Y0004156890D02*
Y0004309290D01*
X-0013762490D01*
X-0013774340Y0004301670D01*
X-0013781750Y0004291510D01*
X-0013784710Y0004271190D01*
X-0013781750Y0004250870D01*
X-0013772860Y0004238170D01*
X-0013762490Y0004230550D01*
X-0013725450D01*
G01X-0013762490D02*
X-0013784710Y0004156890D01*
G01X-0013882080D02*
Y0004309290D01*
X-0013864300Y0004278810D01*
G01Y0004156890D02*
X-0013899860D01*
G01X-0013976480Y0004179750D02*
X-0013985370Y0004167050D01*
X-0013995740Y0004159430D01*
X-0014009080Y0004156890D01*
X-0014022420Y0004161970D01*
X-0014032790Y0004172130D01*
X-0014040200Y0004189910D01*
X-0014041680Y0004210230D01*
X-0014038710Y0004230550D01*
X-0014031300Y0004243250D01*
X-0014020930Y0004253410D01*
X-0014010560Y0004255950D01*
X-0014000190Y0004253410D01*
X-0013986860Y0004243250D01*
X-0013991300Y0004309290D01*
X-0014031300D01*
G01X-0013688670Y0003055580D02*
X-0013841070D01*
Y0003018540D01*
X-0013833450Y0003006690D01*
X-0013823290Y0002999280D01*
X-0013802970Y0002996320D01*
X-0013782650Y0002999280D01*
X-0013769950Y0003008170D01*
X-0013762330Y0003018540D01*
Y0003055580D01*
G01Y0003018540D02*
X-0013688670Y0002996320D01*
G01X-0013719150Y0002931550D02*
X-0013701370Y0002922660D01*
X-0013691210Y0002910800D01*
X-0013688670Y0002897470D01*
X-0013691210Y0002885610D01*
X-0013703910Y0002873760D01*
X-0013719150Y0002866350D01*
X-0013734390Y0002864870D01*
X-0013752170Y0002867830D01*
X-0013764870Y0002878210D01*
X-0013769950Y0002888580D01*
Y0002901910D01*
G01Y0002888580D02*
X-0013777570Y0002879690D01*
X-0013790270Y0002872280D01*
X-0013805510Y0002869320D01*
X-0013820750Y0002872280D01*
X-0013833450Y0002879690D01*
X-0013841070Y0002893020D01*
X-0013838530Y0002906360D01*
X-0013828370Y0002919690D01*
G01X-0013123130Y0003869590D02*
X-0013114240Y0003877210D01*
X-0013103870Y0003882290D01*
X-0013092010D01*
X-0013078680Y0003874670D01*
X-0013068310Y0003861970D01*
X-0013060900Y0003846730D01*
X-0013054970Y0003821330D01*
X-0013053490Y0003798470D01*
X-0013056450Y0003775610D01*
X-0013060900Y0003760370D01*
X-0013069790Y0003745130D01*
X-0013080160Y0003734970D01*
X-0013090530Y0003729890D01*
X-0013100900D01*
X-0013111270Y0003734970D01*
X-0013120160Y0003742590D01*
X-0013127570Y0003752750D01*
G01X-0013189380Y0003793390D02*
X-0013199750Y0003811170D01*
X-0013208640Y0003821330D01*
X-0013220490Y0003826410D01*
X-0013230870Y0003821330D01*
X-0013238270Y0003811170D01*
X-0013244200Y0003795930D01*
X-0013245680Y0003778150D01*
X-0013244200Y0003762910D01*
X-0013238270Y0003747670D01*
X-0013229380Y0003734970D01*
X-0013219010Y0003729890D01*
X-0013207160Y0003734970D01*
X-0013196790Y0003750210D01*
X-0013190860Y0003773070D01*
X-0013189380Y0003798470D01*
X-0013192340Y0003831490D01*
X-0013196790Y0003849270D01*
X-0013204190Y0003867050D01*
X-0013214570Y0003879750D01*
X-0013224940Y0003882290D01*
X-0013235310Y0003877210D01*
X-0013242720Y0003864510D01*
G01X-0013134100Y0003523950D02*
X-0013241860Y0003631720D01*
X-0013268050Y0003605520D01*
X-0013271040Y0003591750D01*
X-0013269100Y0003579330D01*
X-0013256830Y0003562870D01*
X-0013240360Y0003550590D01*
X-0013225100Y0003547900D01*
X-0013212370Y0003549850D01*
X-0013186180Y0003576040D01*
G01X-0013212370Y0003549850D02*
X-0013176010Y0003482040D01*
G01X-0013244850Y0003413200D02*
X-0013352610Y0003520960D01*
X-0013318490Y0003511980D01*
G01X-0013232280Y0003425770D02*
X-0013257420Y0003400630D01*
G01X-0013456250Y0003704770D02*
X-0013455360Y0003716450D01*
X-0013451610Y0003727370D01*
X-0013443230Y0003735750D01*
X-0013428410Y0003739790D01*
X-0013412100Y0003738150D01*
X-0013396080Y0003732610D01*
X-0013373930Y0003718840D01*
X-0013356720Y0003703730D01*
X-0013342650Y0003685460D01*
X-0013335020Y0003671540D01*
X-0013330530Y0003654480D01*
X-0013330680Y0003639960D01*
X-0013334420Y0003629040D01*
X-0013341750Y0003621710D01*
X-0013352680Y0003617960D01*
X-0013364350Y0003617060D01*
X-0013376780Y0003619010D01*
G01X-0013424220Y0003539240D02*
X-0013433350Y0003533700D01*
X-0013447120Y0003530710D01*
X-0013461340Y0003534450D01*
X-0013476010Y0003544930D01*
X-0013486480Y0003559590D01*
X-0013490970Y0003576660D01*
X-0013486930Y0003591480D01*
X-0013476460Y0003601950D01*
X-0013473760Y0003611830D01*
X-0013477500Y0003626050D01*
X-0013487980Y0003640720D01*
X-0013503700Y0003650140D01*
X-0013520010Y0003651790D01*
X-0013531980Y0003647000D01*
X-0013536770Y0003635030D01*
X-0013535130Y0003618710D01*
X-0013525700Y0003603000D01*
X-0013511030Y0003592520D01*
X-0013496810Y0003588780D01*
X-0013486930Y0003591480D01*
X-0013476460Y0003601950D01*
X-0013461640Y0003605990D01*
X-0013444570Y0003601500D01*
X-0013429910Y0003591030D01*
X-0013419430Y0003576350D01*
X-0013415690Y0003562140D01*
X-0013418680Y0003548370D01*
X-0013424220Y0003539240D01*
G01X-0012905160Y0003068400D02*
Y0003220800D01*
X-0012942200D01*
X-0012954050Y0003213180D01*
X-0012961460Y0003203020D01*
X-0012964420Y0003182700D01*
X-0012961460Y0003162380D01*
X-0012952570Y0003149680D01*
X-0012942200Y0003142060D01*
X-0012905160D01*
G01X-0012942200D02*
X-0012964420Y0003068400D01*
G01X-0013033640Y0003195400D02*
X-0013042530Y0003210640D01*
X-0013052900Y0003218260D01*
X-0013064750Y0003220800D01*
X-0013079570Y0003215720D01*
X-0013089940Y0003203020D01*
X-0013092910Y0003187780D01*
X-0013091420Y0003172540D01*
X-0013085500Y0003159840D01*
X-0013055860Y0003134440D01*
X-0013042530Y0003116660D01*
X-0013033640Y0003091260D01*
X-0013030670Y0003068400D01*
X-0013092910D01*
G01X-0012711040Y0003722610D02*
X-0012702150Y0003730230D01*
X-0012691780Y0003735310D01*
X-0012679920D01*
X-0012666590Y0003727690D01*
X-0012656220Y0003714990D01*
X-0012648810Y0003699750D01*
X-0012642880Y0003674350D01*
X-0012641400Y0003651490D01*
X-0012644360Y0003628630D01*
X-0012648810Y0003613390D01*
X-0012657700Y0003598150D01*
X-0012668070Y0003587990D01*
X-0012678440Y0003582910D01*
X-0012688810D01*
X-0012699180Y0003587990D01*
X-0012708070Y0003595610D01*
X-0012715480Y0003605770D01*
G01X-0012772840D02*
X-0012781730Y0003593070D01*
X-0012792100Y0003585450D01*
X-0012805440Y0003582910D01*
X-0012818780Y0003587990D01*
X-0012829150Y0003598150D01*
X-0012836560Y0003615930D01*
X-0012838040Y0003636250D01*
X-0012835070Y0003656570D01*
X-0012827660Y0003669270D01*
X-0012817290Y0003679430D01*
X-0012806920Y0003681970D01*
X-0012796550Y0003679430D01*
X-0012783220Y0003669270D01*
X-0012787660Y0003735310D01*
X-0012827660D01*
G01X-0011836800Y0002916860D02*
X-0011837690Y0002905180D01*
X-0011841440Y0002894260D01*
X-0011849820Y0002885880D01*
X-0011864640Y0002881840D01*
X-0011880950Y0002883480D01*
X-0011896970Y0002889020D01*
X-0011919120Y0002902790D01*
X-0011936330Y0002917900D01*
X-0011950400Y0002936170D01*
X-0011958030Y0002950090D01*
X-0011962520Y0002967150D01*
X-0011962370Y0002981670D01*
X-0011958630Y0002992590D01*
X-0011951300Y0002999920D01*
X-0011940370Y0003003670D01*
X-0011928700Y0003004570D01*
X-0011916270Y0003002620D01*
G01X-0011868830Y0003082390D02*
X-0011761070Y0002974630D01*
X-0011795190Y0002983610D01*
G01X-0011881400Y0003069820D02*
X-0011856260Y0003094960D01*
G01X-0011766460Y0003184760D02*
X-0011658690Y0003077000D01*
X-0011774690Y0003115460D01*
X-0011722300Y0003167850D01*
G01X-0011731770Y0003669280D02*
X-0011722880Y0003676900D01*
X-0011712510Y0003681980D01*
X-0011700650D01*
X-0011687320Y0003674360D01*
X-0011676950Y0003661660D01*
X-0011669540Y0003646420D01*
X-0011663610Y0003621020D01*
X-0011662130Y0003598160D01*
X-0011665090Y0003575300D01*
X-0011669540Y0003560060D01*
X-0011678430Y0003544820D01*
X-0011688800Y0003534660D01*
X-0011699170Y0003529580D01*
X-0011709540D01*
X-0011719910Y0003534660D01*
X-0011728800Y0003542280D01*
X-0011736210Y0003552440D01*
G01X-0011843950Y0003529580D02*
Y0003681980D01*
X-0011789130Y0003572760D01*
X-0011863210D01*
G01X-0010978100Y0003204150D02*
X-0010977210Y0003215830D01*
X-0010973460Y0003226750D01*
X-0010965080Y0003235130D01*
X-0010950260Y0003239170D01*
X-0010933950Y0003237530D01*
X-0010917930Y0003231990D01*
X-0010895780Y0003218220D01*
X-0010878570Y0003203110D01*
X-0010864500Y0003184840D01*
X-0010856870Y0003170920D01*
X-0010852380Y0003153860D01*
X-0010852530Y0003139340D01*
X-0010856270Y0003128420D01*
X-0010863600Y0003121090D01*
X-0010874530Y0003117340D01*
X-0010886200Y0003116440D01*
X-0010898630Y0003118390D01*
G01X-0010946070Y0003038620D02*
X-0011053830Y0003146380D01*
X-0011019710Y0003137400D01*
G01X-0010933500Y0003051190D02*
X-0010958640Y0003026050D01*
G01X-0009924650Y0001972140D02*
Y0002124540D01*
X-0009961690D01*
X-0009973540Y0002116920D01*
X-0009980950Y0002106760D01*
X-0009983910Y0002086440D01*
X-0009980950Y0002066120D01*
X-0009972060Y0002053420D01*
X-0009961690Y0002045800D01*
X-0009924650D01*
G01X-0009961690D02*
X-0009983910Y0001972140D01*
G01X-0010081280D02*
Y0002124540D01*
X-0010063500Y0002094060D01*
G01Y0001972140D02*
X-0010099060D01*
G01X-0010226060D02*
Y0002124540D01*
X-0010171240Y0002015320D01*
X-0010245320D01*
G01X-0010210180Y0004640000D02*
Y0004487600D01*
X-0010173140D01*
X-0010161290Y0004495220D01*
X-0010153880Y0004505380D01*
X-0010150920Y0004525700D01*
X-0010153880Y0004546020D01*
X-0010162770Y0004558720D01*
X-0010173140Y0004566340D01*
X-0010210180D01*
G01X-0010173140D02*
X-0010150920Y0004640000D01*
G01X-0010053550D02*
Y0004487600D01*
X-0010071330Y0004518080D01*
G01Y0004640000D02*
X-0010035770D01*
G01X-0009929510D02*
X-0009926550Y0004606980D01*
X-0009922100Y0004579040D01*
X-0009916180Y0004553640D01*
X-0009908770Y0004525700D01*
X-0009896920Y0004487600D01*
X-0009956180D01*
G01X-0009222900Y0001393230D02*
Y0001545630D01*
X-0009259940D01*
X-0009271790Y0001538010D01*
X-0009279200Y0001527850D01*
X-0009282160Y0001507530D01*
X-0009279200Y0001487210D01*
X-0009270310Y0001474510D01*
X-0009259940Y0001466890D01*
X-0009222900D01*
G01X-0009259940D02*
X-0009282160Y0001393230D01*
G01X-0009379530D02*
Y0001545630D01*
X-0009361750Y0001515150D01*
G01Y0001393230D02*
X-0009397310D01*
G01X-0009506530D02*
Y0001545630D01*
X-0009488750Y0001515150D01*
G01Y0001393230D02*
X-0009524310D01*
G01X-0009444510Y0003954690D02*
X-0009435620Y0003962310D01*
X-0009425250Y0003967390D01*
X-0009413390D01*
X-0009400060Y0003959770D01*
X-0009389690Y0003947070D01*
X-0009382280Y0003931830D01*
X-0009376350Y0003906430D01*
X-0009374870Y0003883570D01*
X-0009377830Y0003860710D01*
X-0009382280Y0003845470D01*
X-0009391170Y0003830230D01*
X-0009401540Y0003820070D01*
X-0009411910Y0003814990D01*
X-0009422280D01*
X-0009432650Y0003820070D01*
X-0009441540Y0003827690D01*
X-0009448950Y0003837850D01*
G01X-0009538910Y0003814990D02*
Y0003967390D01*
X-0009521130Y0003936910D01*
G01Y0003814990D02*
X-0009556690D01*
G01X-0009665910D02*
Y0003967390D01*
X-0009648130Y0003936910D01*
G01Y0003814990D02*
X-0009683690D01*
G01X-0009252750Y0003069890D02*
X-0009243860Y0003077510D01*
X-0009233490Y0003082590D01*
X-0009221630D01*
X-0009208300Y0003074970D01*
X-0009197930Y0003062270D01*
X-0009190520Y0003047030D01*
X-0009184590Y0003021630D01*
X-0009183110Y0002998770D01*
X-0009186070Y0002975910D01*
X-0009190520Y0002960670D01*
X-0009199410Y0002945430D01*
X-0009209780Y0002935270D01*
X-0009220150Y0002930190D01*
X-0009230520D01*
X-0009240890Y0002935270D01*
X-0009249780Y0002942890D01*
X-0009257190Y0002953050D01*
G01X-0009319000Y0003057190D02*
X-0009327890Y0003072430D01*
X-0009338260Y0003080050D01*
X-0009350110Y0003082590D01*
X-0009364930Y0003077510D01*
X-0009375300Y0003064810D01*
X-0009378270Y0003049570D01*
X-0009376780Y0003034330D01*
X-0009370860Y0003021630D01*
X-0009341220Y0002996230D01*
X-0009327890Y0002978450D01*
X-0009319000Y0002953050D01*
X-0009316030Y0002930190D01*
X-0009378270D01*
G01X-0008229370Y0003960860D02*
X-0008220480Y0003968480D01*
X-0008210110Y0003973560D01*
X-0008198250D01*
X-0008184920Y0003965940D01*
X-0008174550Y0003953240D01*
X-0008167140Y0003938000D01*
X-0008161210Y0003912600D01*
X-0008159730Y0003889740D01*
X-0008162690Y0003866880D01*
X-0008167140Y0003851640D01*
X-0008176030Y0003836400D01*
X-0008186400Y0003826240D01*
X-0008196770Y0003821160D01*
X-0008207140D01*
X-0008217510Y0003826240D01*
X-0008226400Y0003833860D01*
X-0008233810Y0003844020D01*
G01X-0008323770Y0003821160D02*
Y0003973560D01*
X-0008305990Y0003943080D01*
G01Y0003821160D02*
X-0008341550D01*
G01X-0008450770Y0003973560D02*
X-0008438920Y0003968480D01*
X-0008430030Y0003955780D01*
X-0008424100Y0003940540D01*
X-0008419650Y0003920220D01*
X-0008418170Y0003897360D01*
X-0008419650Y0003874500D01*
X-0008424100Y0003854180D01*
X-0008430030Y0003838940D01*
X-0008438920Y0003826240D01*
X-0008450770Y0003821160D01*
X-0008462620Y0003826240D01*
X-0008471510Y0003838940D01*
X-0008477440Y0003854180D01*
X-0008481890Y0003874500D01*
X-0008483370Y0003897360D01*
X-0008481890Y0003920220D01*
X-0008477440Y0003940540D01*
X-0008471510Y0003955780D01*
X-0008462620Y0003968480D01*
X-0008450770Y0003973560D01*
G01X-0007860460Y0000819040D02*
X-0007708060D01*
Y0000856080D01*
X-0007715680Y0000867930D01*
X-0007725840Y0000875340D01*
X-0007746160Y0000878300D01*
X-0007766480Y0000875340D01*
X-0007779180Y0000866450D01*
X-0007786800Y0000856080D01*
Y0000819040D01*
G01Y0000856080D02*
X-0007860460Y0000878300D01*
G01Y0000975670D02*
X-0007857920Y0000986040D01*
X-0007850300Y0000997890D01*
X-0007837600Y0001005300D01*
X-0007819820Y0001008270D01*
X-0007802040Y0001005300D01*
X-0007786800Y0000996410D01*
X-0007779180Y0000983080D01*
Y0000968260D01*
X-0007774100Y0000959370D01*
X-0007761400Y0000951960D01*
X-0007743620Y0000949000D01*
X-0007725840Y0000953450D01*
X-0007713140Y0000963820D01*
X-0007708060Y0000975670D01*
X-0007713140Y0000987520D01*
X-0007725840Y0000997890D01*
X-0007743620Y0001002340D01*
X-0007761400Y0000999380D01*
X-0007774100Y0000991970D01*
X-0007779180Y0000983080D01*
Y0000968260D01*
X-0007786800Y0000954930D01*
X-0007802040Y0000946040D01*
X-0007819820Y0000943070D01*
X-0007837600Y0000946040D01*
X-0007850300Y0000953450D01*
X-0007857920Y0000965300D01*
X-0007860460Y0000975670D01*
G01X-0002868960Y0001260280D02*
X-0002860070Y0001267900D01*
X-0002849700Y0001272980D01*
X-0002837840D01*
X-0002824510Y0001265360D01*
X-0002814140Y0001252660D01*
X-0002806730Y0001237420D01*
X-0002800800Y0001212020D01*
X-0002799320Y0001189160D01*
X-0002802280Y0001166300D01*
X-0002806730Y0001151060D01*
X-0002815620Y0001135820D01*
X-0002825990Y0001125660D01*
X-0002836360Y0001120580D01*
X-0002846730D01*
X-0002857100Y0001125660D01*
X-0002865990Y0001133280D01*
X-0002873400Y0001143440D01*
G01X-0002963360Y0001120580D02*
Y0001272980D01*
X-0002945580Y0001242500D01*
G01Y0001120580D02*
X-0002981140D01*
G01X-0003057760Y0001143440D02*
X-0003066650Y0001130740D01*
X-0003077020Y0001123120D01*
X-0003090360Y0001120580D01*
X-0003103700Y0001125660D01*
X-0003114070Y0001135820D01*
X-0003121480Y0001153600D01*
X-0003122960Y0001173920D01*
X-0003119990Y0001194240D01*
X-0003112580Y0001206940D01*
X-0003102210Y0001217100D01*
X-0003091840Y0001219640D01*
X-0003081470Y0001217100D01*
X-0003068140Y0001206940D01*
X-0003072580Y0001272980D01*
X-0003112580D01*
G01X-0002018560Y-0000024050D02*
Y-0000176450D01*
X-0001981520D01*
X-0001969670Y-0000168830D01*
X-0001962260Y-0000158670D01*
X-0001959300Y-0000138350D01*
X-0001962260Y-0000118030D01*
X-0001971150Y-0000105330D01*
X-0001981520Y-0000097710D01*
X-0002018560D01*
G01X-0001981520D02*
X-0001959300Y-0000024050D01*
G01X-0001861930D02*
Y-0000176450D01*
X-0001879710Y-0000145970D01*
G01Y-0000024050D02*
X-0001844150D01*
G01X-0001734930D02*
X-0001724560Y-0000026590D01*
X-0001712710Y-0000034210D01*
X-0001705300Y-0000046910D01*
X-0001702330Y-0000064690D01*
X-0001705300Y-0000082470D01*
X-0001714190Y-0000097710D01*
X-0001727520Y-0000105330D01*
X-0001742340D01*
X-0001751230Y-0000110410D01*
X-0001758640Y-0000123110D01*
X-0001761600Y-0000140890D01*
X-0001757150Y-0000158670D01*
X-0001746780Y-0000171370D01*
X-0001734930Y-0000176450D01*
X-0001723080Y-0000171370D01*
X-0001712710Y-0000158670D01*
X-0001708260Y-0000140890D01*
X-0001711220Y-0000123110D01*
X-0001718630Y-0000110410D01*
X-0001727520Y-0000105330D01*
X-0001742340D01*
X-0001755670Y-0000097710D01*
X-0001764560Y-0000082470D01*
X-0001767530Y-0000064690D01*
X-0001764560Y-0000046910D01*
X-0001757150Y-0000034210D01*
X-0001745300Y-0000026590D01*
X-0001734930Y-0000024050D01*
G01X-0002031420Y0000416750D02*
X-0001879020D01*
Y0000453790D01*
X-0001886640Y0000465640D01*
X-0001896800Y0000473050D01*
X-0001917120Y0000476010D01*
X-0001937440Y0000473050D01*
X-0001950140Y0000464160D01*
X-0001957760Y0000453790D01*
Y0000416750D01*
G01Y0000453790D02*
X-0002031420Y0000476010D01*
G01Y0000570420D02*
X-0001998400Y0000573380D01*
X-0001970460Y0000577830D01*
X-0001945060Y0000583750D01*
X-0001917120Y0000591160D01*
X-0001879020Y0000603010D01*
Y0000543750D01*
G01X-0001846100Y0000094510D02*
X-0001693700D01*
Y0000131550D01*
X-0001701320Y0000143400D01*
X-0001711480Y0000150810D01*
X-0001731800Y0000153770D01*
X-0001752120Y0000150810D01*
X-0001764820Y0000141920D01*
X-0001772440Y0000131550D01*
Y0000094510D01*
G01Y0000131550D02*
X-0001846100Y0000153770D01*
G01Y0000251140D02*
X-0001693700D01*
X-0001724180Y0000233360D01*
G01X-0001846100D02*
Y0000268920D01*
G01X-0001828320Y0000352950D02*
X-0001841020Y0000363320D01*
X-0001846100Y0000375180D01*
X-0001841020Y0000387030D01*
X-0001825780Y0000397400D01*
X-0001802920Y0000404810D01*
X-0001780060Y0000407770D01*
X-0001752120D01*
X-0001729260Y0000404810D01*
X-0001708940Y0000397400D01*
X-0001698780Y0000388510D01*
X-0001693700Y0000378140D01*
X-0001698780Y0000366290D01*
X-0001708940Y0000357400D01*
X-0001724180Y0000351470D01*
X-0001744500Y0000348510D01*
X-0001762280Y0000351470D01*
X-0001780060Y0000358880D01*
X-0001790220Y0000367770D01*
X-0001792760Y0000378140D01*
X-0001787680Y0000389990D01*
X-0001774980Y0000398880D01*
X-0001752120Y0000407770D01*
G01X-0002214720Y0001104950D02*
X-0002062320D01*
Y0001141990D01*
X-0002069940Y0001153840D01*
X-0002080100Y0001161250D01*
X-0002100420Y0001164210D01*
X-0002120740Y0001161250D01*
X-0002133440Y0001152360D01*
X-0002141060Y0001141990D01*
Y0001104950D01*
G01Y0001141990D02*
X-0002214720Y0001164210D01*
G01X-0002151220Y0001233430D02*
X-0002133440Y0001243800D01*
X-0002123280Y0001252690D01*
X-0002118200Y0001264540D01*
X-0002123280Y0001274920D01*
X-0002133440Y0001282320D01*
X-0002148680Y0001288250D01*
X-0002166460Y0001289730D01*
X-0002181700Y0001288250D01*
X-0002196940Y0001282320D01*
X-0002209640Y0001273430D01*
X-0002214720Y0001263060D01*
X-0002209640Y0001251210D01*
X-0002194400Y0001240840D01*
X-0002171540Y0001234910D01*
X-0002146140Y0001233430D01*
X-0002113120Y0001236390D01*
X-0002095340Y0001240840D01*
X-0002077560Y0001248240D01*
X-0002064860Y0001258620D01*
X-0002062320Y0001268990D01*
X-0002067400Y0001279360D01*
X-0002080100Y0001286770D01*
G54D13*
G01X-0006492860Y0005723860D02*
X-0006513180Y0005702700D01*
X-0006536040Y0005690000D01*
X-0006556360D01*
X-0006576680Y0005702700D01*
X-0006591920Y0005723860D01*
X-0006599540Y0005753500D01*
X-0006594460Y0005783130D01*
X-0006581760Y0005808530D01*
X-0006558900Y0005825470D01*
X-0006528420Y0005833930D01*
X-0006510640Y0005850860D01*
X-0006503020Y0005880500D01*
X-0006508100Y0005910130D01*
X-0006520800Y0005931290D01*
X-0006538580Y0005944000D01*
X-0006556360D01*
X-0006574140Y0005935540D01*
X-0006589380Y0005914370D01*
G01X-0006718900Y0005804300D02*
X-0006800180D01*
X-0006792560Y0005833930D01*
X-0006779860Y0005850860D01*
X-0006762080Y0005859330D01*
X-0006744300Y0005855100D01*
X-0006729060Y0005842400D01*
X-0006718900Y0005812760D01*
X-0006713820Y0005787360D01*
Y0005761970D01*
X-0006718900Y0005736560D01*
X-0006731600Y0005711160D01*
X-0006746840Y0005694230D01*
X-0006764620Y0005690000D01*
X-0006782400Y0005698460D01*
X-0006800180Y0005723860D01*
G01X-0006922080Y0005605340D02*
Y0005859330D01*
G01Y0005821240D02*
X-0006934780Y0005842400D01*
X-0006947480Y0005855100D01*
X-0006967800Y0005859330D01*
X-0006985580Y0005855100D01*
X-0007003360Y0005833930D01*
X-0007010980Y0005804300D01*
X-0007013520Y0005774660D01*
X-0007010980Y0005745030D01*
X-0007003360Y0005715390D01*
X-0006988120Y0005698460D01*
X-0006967800Y0005690000D01*
X-0006950020Y0005694230D01*
X-0006932240Y0005706930D01*
X-0006922080Y0005723860D01*
G01X-0007178600Y0005944000D02*
Y0005690000D01*
G01X-0007143040Y0005859330D02*
X-0007214160D01*
G01X-0007551940Y0005901670D02*
X-0007567180Y0005927060D01*
X-0007584960Y0005939770D01*
X-0007605280Y0005944000D01*
X-0007630680Y0005935540D01*
X-0007648460Y0005914370D01*
X-0007653540Y0005888970D01*
X-0007651000Y0005863560D01*
X-0007640840Y0005842400D01*
X-0007590040Y0005800070D01*
X-0007567180Y0005770430D01*
X-0007551940Y0005728090D01*
X-0007546860Y0005690000D01*
X-0007653540D01*
G01X-0007811000Y0005944000D02*
X-0007790680Y0005935540D01*
X-0007775440Y0005914370D01*
X-0007765280Y0005888970D01*
X-0007757660Y0005855100D01*
X-0007755120Y0005817000D01*
X-0007757660Y0005778900D01*
X-0007765280Y0005745030D01*
X-0007775440Y0005719630D01*
X-0007790680Y0005698460D01*
X-0007811000Y0005690000D01*
X-0007831320Y0005698460D01*
X-0007846560Y0005719630D01*
X-0007856720Y0005745030D01*
X-0007864340Y0005778900D01*
X-0007866880Y0005817000D01*
X-0007864340Y0005855100D01*
X-0007856720Y0005888970D01*
X-0007846560Y0005914370D01*
X-0007831320Y0005935540D01*
X-0007811000Y0005944000D01*
G01X-0008021800Y0005690000D02*
Y0005944000D01*
X-0007991320Y0005893200D01*
G01Y0005690000D02*
X-0008052280D01*
G01X-0008232600D02*
Y0005944000D01*
X-0008202120Y0005893200D01*
G01Y0005690000D02*
X-0008263080D01*
G01X-0004950320Y0005230000D02*
Y0005484000D01*
X-0005001120D01*
X-0005021440Y0005471290D01*
X-0005036680Y0005454370D01*
X-0005049380Y0005428970D01*
X-0005059540Y0005399330D01*
X-0005062080Y0005357000D01*
X-0005059540Y0005314660D01*
X-0005049380Y0005285030D01*
X-0005036680Y0005259630D01*
X-0005021440Y0005242700D01*
X-0005001120Y0005230000D01*
X-0004950320D01*
G01X-0005217000Y0005221540D02*
X-0005211920Y0005225770D01*
Y0005234230D01*
X-0005217000Y0005238460D01*
X-0005222080Y0005234230D01*
Y0005225770D01*
X-0005217000Y0005221540D01*
G01X-0005483680Y0005462830D02*
X-0005468440Y0005475540D01*
X-0005450660Y0005484000D01*
X-0005430340D01*
X-0005407480Y0005471290D01*
X-0005389700Y0005450130D01*
X-0005377000Y0005424730D01*
X-0005366840Y0005382400D01*
X-0005364300Y0005344300D01*
X-0005369380Y0005306200D01*
X-0005377000Y0005280800D01*
X-0005392240Y0005255390D01*
X-0005410020Y0005238460D01*
X-0005427800Y0005230000D01*
X-0005445580D01*
X-0005463360Y0005238460D01*
X-0005478600Y0005251160D01*
X-0005491300Y0005268090D01*
G01X-0005595420Y0005399330D02*
Y0005280800D01*
X-0005605580Y0005251160D01*
X-0005620820Y0005234230D01*
X-0005638600Y0005230000D01*
X-0005656380Y0005234230D01*
X-0005671620Y0005251160D01*
X-0005681780Y0005280800D01*
G01Y0005230000D02*
Y0005399330D01*
G01X-0005811300Y0005259630D02*
X-0005824000Y0005242700D01*
X-0005841780Y0005230000D01*
X-0005857020D01*
X-0005872260Y0005238460D01*
X-0005882420Y0005251160D01*
X-0005887500Y0005268090D01*
X-0005884960Y0005293500D01*
X-0005874800Y0005306200D01*
X-0005829080Y0005331590D01*
X-0005818920Y0005361240D01*
X-0005824000Y0005382400D01*
X-0005834160Y0005395100D01*
X-0005849400Y0005399330D01*
X-0005864640Y0005395100D01*
X-0005879880Y0005382400D01*
G01X-0006022100Y0005259630D02*
X-0006034800Y0005242700D01*
X-0006052580Y0005230000D01*
X-0006067820D01*
X-0006083060Y0005238460D01*
X-0006093220Y0005251160D01*
X-0006098300Y0005268090D01*
X-0006095760Y0005293500D01*
X-0006085600Y0005306200D01*
X-0006039880Y0005331590D01*
X-0006029720Y0005361240D01*
X-0006034800Y0005382400D01*
X-0006044960Y0005395100D01*
X-0006060200Y0005399330D01*
X-0006075440Y0005395100D01*
X-0006090680Y0005382400D01*
G01X-0006316720Y0005230000D02*
Y0005399330D01*
G01Y0005369700D02*
X-0006306560Y0005386630D01*
X-0006291320Y0005395100D01*
X-0006273540Y0005399330D01*
X-0006255760Y0005390860D01*
X-0006240520Y0005373930D01*
X-0006230360Y0005348530D01*
X-0006225280Y0005314660D01*
X-0006230360Y0005280800D01*
X-0006240520Y0005255390D01*
X-0006255760Y0005238460D01*
X-0006273540Y0005230000D01*
X-0006291320Y0005234230D01*
X-0006306560Y0005246930D01*
X-0006316720Y0005263860D01*
G01X-0006438620Y0005230000D02*
Y0005399330D01*
G01Y0005357000D02*
X-0006448780Y0005378170D01*
X-0006464020Y0005395100D01*
X-0006484340Y0005399330D01*
X-0006502120Y0005395100D01*
X-0006517360Y0005378170D01*
X-0006524980Y0005348530D01*
Y0005230000D01*
G01X-0006654500Y0005259630D02*
X-0006667200Y0005242700D01*
X-0006684980Y0005230000D01*
X-0006700220D01*
X-0006715460Y0005238460D01*
X-0006725620Y0005251160D01*
X-0006730700Y0005268090D01*
X-0006728160Y0005293500D01*
X-0006718000Y0005306200D01*
X-0006672280Y0005331590D01*
X-0006662120Y0005361240D01*
X-0006667200Y0005382400D01*
X-0006677360Y0005395100D01*
X-0006692600Y0005399330D01*
X-0006707840Y0005395100D01*
X-0006723080Y0005382400D01*
G01X-0006857680Y0005221540D02*
X-0006949120Y0005484000D01*
G01X-0007060860Y0005263860D02*
X-0007081180Y0005242700D01*
X-0007104040Y0005230000D01*
X-0007124360D01*
X-0007144680Y0005242700D01*
X-0007159920Y0005263860D01*
X-0007167540Y0005293500D01*
X-0007162460Y0005323130D01*
X-0007149760Y0005348530D01*
X-0007126900Y0005365470D01*
X-0007096420Y0005373930D01*
X-0007078640Y0005390860D01*
X-0007071020Y0005420500D01*
X-0007076100Y0005450130D01*
X-0007088800Y0005471290D01*
X-0007106580Y0005484000D01*
X-0007124360D01*
X-0007142140Y0005475540D01*
X-0007157380Y0005454370D01*
G01X-0007325000Y0005221540D02*
X-0007319920Y0005225770D01*
Y0005234230D01*
X-0007325000Y0005238460D01*
X-0007330080Y0005234230D01*
Y0005225770D01*
X-0007325000Y0005221540D01*
G01X-0007477380Y0005230000D02*
Y0005484000D01*
X-0007594220Y0005230000D01*
Y0005484000D01*
G01X-0007792320Y0005230000D02*
Y0005399330D01*
G01Y0005369700D02*
X-0007782160Y0005386630D01*
X-0007766920Y0005395100D01*
X-0007749140Y0005399330D01*
X-0007731360Y0005390860D01*
X-0007716120Y0005373930D01*
X-0007705960Y0005348530D01*
X-0007700880Y0005314660D01*
X-0007705960Y0005280800D01*
X-0007716120Y0005255390D01*
X-0007731360Y0005238460D01*
X-0007749140Y0005230000D01*
X-0007766920Y0005234230D01*
X-0007782160Y0005246930D01*
X-0007792320Y0005263860D01*
G01X-0007919300Y0005259630D02*
X-0007932000Y0005242700D01*
X-0007949780Y0005230000D01*
X-0007965020D01*
X-0007980260Y0005238460D01*
X-0007990420Y0005251160D01*
X-0007995500Y0005268090D01*
X-0007992960Y0005293500D01*
X-0007982800Y0005306200D01*
X-0007937080Y0005331590D01*
X-0007926920Y0005361240D01*
X-0007932000Y0005382400D01*
X-0007942160Y0005395100D01*
X-0007957400Y0005399330D01*
X-0007972640Y0005395100D01*
X-0007987880Y0005382400D01*
G01X-0008125020Y0005230000D02*
Y0005484000D01*
G01Y0005361240D02*
X-0008137720Y0005382400D01*
X-0008150420Y0005395100D01*
X-0008170740Y0005399330D01*
X-0008185980Y0005395100D01*
X-0008203760Y0005378170D01*
X-0008211380Y0005352760D01*
Y0005230000D01*
G01X-0004930320Y0005944000D02*
Y0005761970D01*
X-0004940480Y0005723860D01*
X-0004960800Y0005698460D01*
X-0004986200Y0005690000D01*
X-0005011600Y0005698460D01*
X-0005031920Y0005723860D01*
X-0005042080Y0005761970D01*
Y0005944000D01*
G01X-0005197000Y0005690000D02*
X-0005176680Y0005694230D01*
X-0005158900Y0005711160D01*
X-0005143660Y0005736560D01*
X-0005133500Y0005766200D01*
X-0005128420Y0005800070D01*
Y0005833930D01*
X-0005133500Y0005867800D01*
X-0005143660Y0005897440D01*
X-0005158900Y0005922830D01*
X-0005176680Y0005939770D01*
X-0005197000Y0005944000D01*
X-0005217320Y0005939770D01*
X-0005235100Y0005922830D01*
X-0005250340Y0005897440D01*
X-0005260500Y0005867800D01*
X-0005265580Y0005833930D01*
Y0005800070D01*
X-0005260500Y0005766200D01*
X-0005250340Y0005736560D01*
X-0005235100Y0005711160D01*
X-0005217320Y0005694230D01*
X-0005197000Y0005690000D01*
G01X-0005428120Y0005825470D02*
X-0005438280Y0005838170D01*
X-0005445900Y0005859330D01*
X-0005450980Y0005888970D01*
X-0005445900Y0005914370D01*
X-0005435740Y0005931290D01*
X-0005417960Y0005944000D01*
X-0005349380D01*
Y0005690000D01*
X-0005433200D01*
X-0005450980Y0005706930D01*
X-0005461140Y0005732330D01*
X-0005466220Y0005761970D01*
X-0005461140Y0005791590D01*
X-0005445900Y0005817000D01*
X-0005428120Y0005825470D01*
X-0005349380D01*
G01X-0005585580Y0005774660D02*
X-0005651620D01*
G01X-0005776060Y0005690000D02*
Y0005944000D01*
G01X-0005882740D02*
Y0005690000D01*
G01Y0005817000D02*
X-0005776060D01*
G01X-0006091000Y0005690000D02*
X-0005989400D01*
Y0005944000D01*
X-0006091000D01*
G01X-0006050360Y0005821240D02*
X-0005989400D01*
G01X-0006200200Y0005690000D02*
Y0005944000D01*
X-0006261160D01*
X-0006281480Y0005931290D01*
X-0006296720Y0005901670D01*
X-0006301800Y0005867800D01*
X-0006296720Y0005833930D01*
X-0006284020Y0005808530D01*
X-0006261160Y0005795830D01*
X-0006200200D01*
G01X-0004925400Y0006110000D02*
Y0006364000D01*
X-0004986360D01*
X-0005006680Y0006351290D01*
X-0005021920Y0006321670D01*
X-0005027000Y0006287800D01*
X-0005021920Y0006253930D01*
X-0005009220Y0006228530D01*
X-0004986360Y0006215830D01*
X-0004925400D01*
G01X-0005242880Y0006342830D02*
X-0005227640Y0006355540D01*
X-0005209860Y0006364000D01*
X-0005189540D01*
X-0005166680Y0006351290D01*
X-0005148900Y0006330130D01*
X-0005136200Y0006304730D01*
X-0005126040Y0006262400D01*
X-0005123500Y0006224300D01*
X-0005128580Y0006186200D01*
X-0005136200Y0006160800D01*
X-0005151440Y0006135390D01*
X-0005169220Y0006118460D01*
X-0005187000Y0006110000D01*
X-0005204780D01*
X-0005222560Y0006118460D01*
X-0005237800Y0006131160D01*
X-0005250500Y0006148090D01*
G01X-0005397800Y0006364000D02*
X-0005377480Y0006355540D01*
X-0005362240Y0006334370D01*
X-0005352080Y0006308970D01*
X-0005344460Y0006275100D01*
X-0005341920Y0006237000D01*
X-0005344460Y0006198900D01*
X-0005352080Y0006165030D01*
X-0005362240Y0006139630D01*
X-0005377480Y0006118460D01*
X-0005397800Y0006110000D01*
X-0005418120Y0006118460D01*
X-0005433360Y0006139630D01*
X-0005443520Y0006165030D01*
X-0005451140Y0006198900D01*
X-0005453680Y0006237000D01*
X-0005451140Y0006275100D01*
X-0005443520Y0006308970D01*
X-0005433360Y0006334370D01*
X-0005418120Y0006355540D01*
X-0005397800Y0006364000D01*
G01X-0005639080Y0006110000D02*
Y0006364000D01*
X-0005545100Y0006181970D01*
X-0005672100D01*
G01X-0005771140Y0006321670D02*
X-0005786380Y0006347060D01*
X-0005804160Y0006359770D01*
X-0005824480Y0006364000D01*
X-0005849880Y0006355540D01*
X-0005867660Y0006334370D01*
X-0005872740Y0006308970D01*
X-0005870200Y0006283560D01*
X-0005860040Y0006262400D01*
X-0005809240Y0006220070D01*
X-0005786380Y0006190430D01*
X-0005771140Y0006148090D01*
X-0005766060Y0006110000D01*
X-0005872740D01*
G01X-0006075920D02*
Y0006279330D01*
G01Y0006249700D02*
X-0006065760Y0006266630D01*
X-0006050520Y0006275100D01*
X-0006032740Y0006279330D01*
X-0006014960Y0006270860D01*
X-0005999720Y0006253930D01*
X-0005989560Y0006228530D01*
X-0005984480Y0006194660D01*
X-0005989560Y0006160800D01*
X-0005999720Y0006135390D01*
X-0006014960Y0006118460D01*
X-0006032740Y0006110000D01*
X-0006050520Y0006114230D01*
X-0006065760Y0006126930D01*
X-0006075920Y0006143860D01*
G54D14*
G01X-0015213720Y0003882830D02*
Y0003791810D01*
X-0015220150Y0003772760D01*
X-0015233020Y0003760060D01*
X-0015249100Y0003755830D01*
X-0015265180Y0003760060D01*
X-0015278050Y0003772760D01*
X-0015284480Y0003791810D01*
Y0003882830D01*
G01X-0015378600Y0003755830D02*
Y0003882830D01*
X-0015359300Y0003857430D01*
G01Y0003755830D02*
X-0015397900D01*
G01X-0004603000Y0005264000D02*
Y0006379000D01*
X-0002282000D01*
Y0005264000D01*
X-0004603000D01*
M02*
