M48
METRIC
T01C.3302
T02C.9144
T03C1.4
T04C2.6924
T05C1.3
;LEADER: 12 
;HEADER: 
;CODE  : ASCII 
;FILE  : pc042a_toplevel-1-6.drl for board pc042a_toplevel_25.brd ... layers TOP and BOTTOM
;T01 Holesize 1. = 0.330200 Tolerance = +0.000000/-0.000000 PLATED MM Quantity = 166
;T02 Holesize 2. = 0.914400 Tolerance = +0.000000/-0.000000 PLATED MM Quantity = 66
;T03 Holesize 3. = 1.400000 Tolerance = +0.000000/-0.000000 PLATED MM Quantity = 2
;T04 Holesize 4. = 2.692400 Tolerance = +0.000000/-0.000000 PLATED MM Quantity = 4
;T05 Holesize 5. = 1.300000 Tolerance = +0.000000/-0.000000 NON_PLATED MM Quantity = 2
%
G90
T01
X0000102950Y0005117500
X-0000217410Y0005244500
X0000296670Y0004932670
X-0000213090Y0004863500
X-0013949530Y0003446130
X-0014158870Y0003439880
X0000296320Y0002764980
X-0000214910Y0002704620
X-0013360970Y0003034070
X-0009111570Y0003700000
X-0008908100Y0002758020
X-0013570360Y0003034070
X-0008940000Y0003710000
X-0008908930Y0002906310
X-0009292820Y0001753360
X0000290960Y0001942500
X-0003172450Y0000764850
X-0009824720Y0002040000
X-0012895180Y0003863400
X-0013782320Y0003144330
X-0013267790Y0003162250
X-0013037510Y0003199010
X-0011595180Y0003852450
X-0011312150Y0003266670
X-0007993140Y0003944690
X-0011232100Y0003189620
X-0007991430Y0003826550
X-0012000000Y0003610000
X-0012990000Y0003610000
X-0010837300Y0001547560
X0000294540Y0002069500
X-0009028990Y0002128970
X0000110000Y0003690000
X0000100000Y0003600000
X0000295500Y0003974500
X0000300000Y0003847500
X-0009187710Y0004421890
X-0009382970Y0002036890
X-0008734550Y0003710350
X0000293500Y0003593500
X0000300000Y0003470000
X0000614500Y0003974500
X0000612500Y0003850000
X0000110000Y0004100000
X0000110000Y0003974500
X-0000210000Y0004490000
X-0013166710Y0004104760
X-0013337490Y0004102970
X0000617410Y0005498500
X0000291510Y0005625500
X0000299470Y0005371500
X0000296470Y0005117500
X0000312400Y0004609500
X-0007789950Y0000810200
X-0011880770Y0001465830
X-0007383970Y0002307300
X0000617070Y0004482500
X-0007536720Y0002593030
X0000614440Y0004355500
X-0002734370Y0001020580
X-0000693270Y0001582010
X-0000584140Y0005045950
X-0012074870Y0003018450
X-0008113480Y0003721160
X-0009324840Y0003714990
X-0009225700Y0002707690
X-0010712350Y0003130920
X-0002429770Y-0000111130
X-0013632180Y0003479660
X-0014252050Y0003574310
X-0011878190Y0002034210
X-0009795450Y0001864710
X-0011333920Y0003681670
X-0011843160Y0003677180
X-0014995180Y0003863400
X-0014495180Y0003863400
X-0013895410Y0004104760
X-0013296660Y0003821340
X-0012744520Y0003719500
X-0011880770Y0001211490
X-0000209840Y0000925000
X0000125000Y0001055000
X0000295000Y0000795000
X0000290000Y0000925000
X0000650000Y0001050000
X0000644500Y0001180500
X0000124500Y0001180500
X0000127500Y0000672500
X0000637500Y0000672500
X-0000212030Y0001307500
X-0000265000Y0001685000
X0000112350Y0001561500
X0000287500Y0001307500
X0000655000Y0001560000
X0000651500Y0001688500
X-0000265000Y0002450000
X-0000264500Y0002069500
X0000104060Y0002323500
X0000108200Y0001942500
X0000294870Y0002196500
X0000655000Y0002065000
X0000655000Y0002195000
X-0000268180Y0002831500
X0000616360Y0003085500
X0000106130Y0003085500
X0000290720Y0002958500
X0000099910Y0002704500
X0000294870Y0002577500
X0000655000Y0002705000
X0000652500Y0002577500
X-0013664150Y0003162250
X-0000265000Y0003593500
X0000616360Y0003212500
X0000616360Y0003593500
X0000614290Y0003720500
X0000301090Y0003720500
X0000296950Y0003339500
X0000101980Y0003466500
X-0000217420Y0004355500
X-0000268180Y0003974500
X0000610140Y0004101500
X0000610140Y0004228500
X0000292800Y0004101500
X0000110000Y0004260000
X0000110000Y0003800000
X-0000215350Y0004736500
X0000106130Y0004990500
X0000104060Y0004609500
X0000616360Y0004736500
X0000612210Y0004609500
X-0000219500Y0005498500
X-0000215360Y0005117500
X0000108210Y0005625500
X0000618430Y0005625500
X0000292800Y0005498500
X0000106130Y0005371500
X0000296950Y0005244500
X0000612210Y0005371500
X0000616360Y0005117500
X-0008935010Y0001941890
X-0011195180Y0003800000
X-0011095180Y0003863400
X-0011295180Y0003863400
X-0011395180Y0003800000
X-0014368670Y0003772110
X-0013809290Y0003678930
X-0000693270Y0001904250
X-0000688320Y0005279130
X-0011852440Y0003245370
X-0008454610Y0003721160
X-0009680540Y0003714990
X-0009480240Y0002830190
X-0010953300Y0002898940
X-0001821590Y0000279690
X-0002129470Y-0000185880
X-0002125800Y0001033520
X-0002244810Y0000468560
X-0013866810Y0003574310
X-0009469090Y0001864710
X-0012321460Y0001658570
X-0011353870Y0001566350
X-0009531000Y0001660180
X-0000055000Y0005565000
X0000100000Y0005498500
X-0009195010Y0001941890
X-0013782180Y0003479010
T02
X-0015155300Y0000358590
X-0015155300Y0000104590
X-0014901300Y0000358590
X-0014901300Y0000104590
X-0014647300Y0000358590
X-0014647300Y0000104590
X-0014393300Y0000358590
X-0014393300Y0000104590
X-0014139300Y0000358590
X-0014139300Y0000104590
X-0013885300Y0000358590
X-0013885300Y0000104590
X-0013631300Y0000358590
X-0013631300Y0000104590
X-0013377300Y0000358590
X-0013377300Y0000104590
X-0013123300Y0000358590
X-0013123300Y0000104590
X-0012869300Y0000358590
X-0012869300Y0000104590
X-0012615300Y0000358590
X-0012615300Y0000104590
X-0012361300Y0000358590
X-0012361300Y0000104590
X-0012107300Y0000358590
X-0012107300Y0000104590
X-0011853300Y0000358590
X-0011853300Y0000104590
X-0011599300Y0000358590
X-0011599300Y0000104590
X-0011345300Y0000358590
X-0011345300Y0000104590
X-0011091300Y0000358590
X-0011091300Y0000104590
X-0010837300Y0000358590
X-0010837300Y0000104590
X-0010583300Y0000358590
X-0010583300Y0000104590
X-0010329300Y0000358590
X-0010329300Y0000104590
X-0008551680Y0000359840
X-0008551680Y0000105840
X-0008297680Y0000359840
X-0008297680Y0000105840
X-0008043680Y0000359840
X-0008043680Y0000105840
X-0007789680Y0000359840
X-0007789680Y0000105840
X-0007535680Y0000359840
X-0007535680Y0000105840
X-0007281680Y0000359840
X-0007281680Y0000105840
X-0007027680Y0000359840
X-0007027680Y0000105840
X-0006773680Y0000359840
X-0006773680Y0000105840
X-0006519680Y0000359840
X-0006519680Y0000105840
X-0006265680Y0000359840
X-0006265680Y0000105840
X-0006011680Y0000359840
X-0006011680Y0000105840
X-0005757680Y0000359840
X-0005757680Y0000105840
X-0005503680Y0000359840
X-0005503680Y0000105840
T03
X-0015194180Y0006379280
X-0010896180Y0006379280
T04
X-0015864380Y0000024050
X-0015864380Y0006305760
X0000000000Y0006300000
X0000000000Y0000000000
T05
X0000200000Y0000430000
X-0000105000Y0005868000
M30
