G04 ================== begin FILE IDENTIFICATION RECORD ==================*
G04 Layout Name:  pc042a_toplevel_25.brd*
G04 Film Name:    PC042A_SILKSCREEN_TOP*
G04 File Format:  Gerber RS274X*
G04 File Origin:  Cadence Allegro 16.3-S013*
G04 Origin Date:  Mon Sep 19 15:02:03 2011*
G04 *
G04 Layer:  REF DES/SILKSCREEN_TOP*
G04 Layer:  BOARD GEOMETRY/SILKSCREEN_TOP*
G04 *
G04 Offset:    (0.0000 0.0000)*
G04 Mirror:    No*
G04 Mode:      Positive*
G04 Rotation:  0*
G04 FullContactRelief:  No*
G04 UndefLineWidth:     0.2500*
G04 ================== end FILE IDENTIFICATION RECORD ====================*
%FSAX55Y55*MOMM*%
%IR0*IPPOS*OFA0.00000B0.00000*MIA0B0*SFA1.00000B1.00000*%
%ADD10C,.2*%
%ADD11C,.203*%
G75*
%LPD*%
G75*
G54D10*
G01X-0015188880Y0000600000D02*
Y0000790500D01*
X-0015217330Y0000752400D01*
G01Y0000600000D02*
X-0015160440D01*
G01X-0014988880Y0003510000D02*
Y0003700500D01*
X-0015017330Y0003662400D01*
G01Y0003510000D02*
X-0014960440D01*
G01X-0010880430Y0003650000D02*
Y0003840500D01*
X-0010968150Y0003703980D01*
X-0010849610D01*
G01X-0010718380Y0003840500D02*
X-0010737350Y0003834150D01*
X-0010751570Y0003818270D01*
X-0010761050Y0003799230D01*
X-0010768160Y0003773820D01*
X-0010770530Y0003745250D01*
X-0010768160Y0003716670D01*
X-0010761050Y0003691270D01*
X-0010751570Y0003672220D01*
X-0010737350Y0003656350D01*
X-0010718380Y0003650000D01*
X-0010699420Y0003656350D01*
X-0010685190Y0003672220D01*
X-0010675710Y0003691270D01*
X-0010668600Y0003716670D01*
X-0010666230Y0003745250D01*
X-0010668600Y0003773820D01*
X-0010675710Y0003799230D01*
X-0010685190Y0003818270D01*
X-0010699420Y0003834150D01*
X-0010718380Y0003840500D01*
G01X-0010145300Y0000378590D02*
X-0010165300Y0000366090D01*
X-0010178630Y0000351090D01*
X-0010185300Y0000333590D01*
X-0010178630Y0000313590D01*
X-0010165300Y0000298590D01*
X-0010145300Y0000283590D01*
X-0010118640Y0000278590D01*
X-0009985300D01*
G01X-0010185300Y0000128590D02*
X-0009985300D01*
X-0010025300Y0000158590D01*
G01X-0010185300D02*
Y0000098590D01*
G01X-0008845680Y0000082840D02*
X-0008825680Y0000095340D01*
X-0008812350Y0000110340D01*
X-0008805680Y0000127840D01*
X-0008812350Y0000147840D01*
X-0008825680Y0000162840D01*
X-0008845680Y0000177840D01*
X-0008872340Y0000182840D01*
X-0009005680D01*
G01X-0008972350Y0000285340D02*
X-0008992340Y0000300340D01*
X-0009002350Y0000317840D01*
X-0009005680Y0000337840D01*
X-0008999010Y0000362840D01*
X-0008982350Y0000380340D01*
X-0008962350Y0000385340D01*
X-0008942340Y0000382840D01*
X-0008925680Y0000372840D01*
X-0008892350Y0000322840D01*
X-0008869010Y0000300340D01*
X-0008835670Y0000285340D01*
X-0008805680Y0000280340D01*
Y0000385340D01*
G01X-0008618880Y0000610000D02*
Y0000800500D01*
X-0008647330Y0000762400D01*
G01Y0000610000D02*
X-0008590440D01*
G54D11*
G01X-0012395600Y0001306330D02*
Y0001458730D01*
X-0012358560D01*
X-0012346710Y0001451110D01*
X-0012339300Y0001440950D01*
X-0012336340Y0001420630D01*
X-0012339300Y0001400310D01*
X-0012348190Y0001387610D01*
X-0012358560Y0001379990D01*
X-0012395600D01*
G01X-0012358560D02*
X-0012336340Y0001306330D01*
G01X-0012238970D02*
Y0001458730D01*
X-0012256750Y0001428250D01*
G01Y0001306330D02*
X-0012221190D01*
G01X-0012140120Y0001433330D02*
X-0012131230Y0001448570D01*
X-0012120860Y0001456190D01*
X-0012109010Y0001458730D01*
X-0012094190Y0001453650D01*
X-0012083820Y0001440950D01*
X-0012080850Y0001425710D01*
X-0012082340Y0001410470D01*
X-0012088260Y0001397770D01*
X-0012117900Y0001372370D01*
X-0012131230Y0001354590D01*
X-0012140120Y0001329190D01*
X-0012143090Y0001306330D01*
X-0012080850D01*
G01X-0011902620Y0002205990D02*
X-0011911510Y0002213610D01*
X-0011921880Y0002218690D01*
X-0011933740D01*
X-0011947070Y0002211070D01*
X-0011957440Y0002198370D01*
X-0011964850Y0002183130D01*
X-0011970780Y0002157730D01*
X-0011972260Y0002134870D01*
X-0011969300Y0002112010D01*
X-0011964850Y0002096770D01*
X-0011955960Y0002081530D01*
X-0011945590Y0002071370D01*
X-0011935220Y0002066290D01*
X-0011924850D01*
X-0011914480Y0002071370D01*
X-0011905590Y0002078990D01*
X-0011898180Y0002089150D01*
G01X-0011833410Y0002084070D02*
X-0011823040Y0002071370D01*
X-0011811180Y0002066290D01*
X-0011799330Y0002071370D01*
X-0011788960Y0002086610D01*
X-0011781550Y0002109470D01*
X-0011778590Y0002132330D01*
Y0002160270D01*
X-0011781550Y0002183130D01*
X-0011788960Y0002203450D01*
X-0011797850Y0002213610D01*
X-0011808220Y0002218690D01*
X-0011820070Y0002213610D01*
X-0011828960Y0002203450D01*
X-0011834890Y0002188210D01*
X-0011837850Y0002167890D01*
X-0011834890Y0002150110D01*
X-0011827480Y0002132330D01*
X-0011818590Y0002122170D01*
X-0011808220Y0002119630D01*
X-0011796370Y0002124710D01*
X-0011787480Y0002137410D01*
X-0011778590Y0002160270D01*
G01X-0011855140Y0001140220D02*
Y0001031000D01*
X-0011849210Y0001008140D01*
X-0011837360Y0000992900D01*
X-0011822540Y0000987820D01*
X-0011807720Y0000992900D01*
X-0011795870Y0001008140D01*
X-0011789940Y0001031000D01*
Y0001140220D01*
G01X-0011728140Y0001018300D02*
X-0011719250Y0001000520D01*
X-0011707390Y0000990360D01*
X-0011694060Y0000987820D01*
X-0011682200Y0000990360D01*
X-0011670350Y0001003060D01*
X-0011662940Y0001018300D01*
X-0011661460Y0001033540D01*
X-0011664420Y0001051320D01*
X-0011674800Y0001064020D01*
X-0011685170Y0001069100D01*
X-0011698500D01*
G01X-0011685170D02*
X-0011676280Y0001076720D01*
X-0011668870Y0001089420D01*
X-0011665910Y0001104660D01*
X-0011668870Y0001119900D01*
X-0011676280Y0001132600D01*
X-0011689610Y0001140220D01*
X-0011702950Y0001137680D01*
X-0011716280Y0001127520D01*
G01X-0011627230Y0001666350D02*
Y0001818750D01*
X-0011590190D01*
X-0011578340Y0001811130D01*
X-0011570930Y0001800970D01*
X-0011567970Y0001780650D01*
X-0011570930Y0001760330D01*
X-0011579820Y0001747630D01*
X-0011590190Y0001740010D01*
X-0011627230D01*
G01X-0011590190D02*
X-0011567970Y0001666350D01*
G01X-0011470600D02*
Y0001818750D01*
X-0011488380Y0001788270D01*
G01Y0001666350D02*
X-0011452820D01*
G01X-0011376200Y0001696830D02*
X-0011367310Y0001679050D01*
X-0011355450Y0001668890D01*
X-0011342120Y0001666350D01*
X-0011330260Y0001668890D01*
X-0011318410Y0001681590D01*
X-0011311000Y0001696830D01*
X-0011309520Y0001712070D01*
X-0011312480Y0001729850D01*
X-0011322860Y0001742550D01*
X-0011333230Y0001747630D01*
X-0011346560D01*
G01X-0011333230D02*
X-0011324340Y0001755250D01*
X-0011316930Y0001767950D01*
X-0011313970Y0001783190D01*
X-0011316930Y0001798430D01*
X-0011324340Y0001811130D01*
X-0011337670Y0001818750D01*
X-0011351010Y0001816210D01*
X-0011364340Y0001806050D01*
G01X-0011450590Y0003414120D02*
X-0011441700Y0003406500D01*
X-0011431330Y0003401420D01*
X-0011419470D01*
X-0011406140Y0003409040D01*
X-0011395770Y0003421740D01*
X-0011388360Y0003436980D01*
X-0011382430Y0003462380D01*
X-0011380950Y0003485240D01*
X-0011383910Y0003508100D01*
X-0011388360Y0003523340D01*
X-0011397250Y0003538580D01*
X-0011407620Y0003548740D01*
X-0011417990Y0003553820D01*
X-0011428360D01*
X-0011438730Y0003548740D01*
X-0011447620Y0003541120D01*
X-0011455030Y0003530960D01*
G01X-0011512390Y0003523340D02*
X-0011521280Y0003541120D01*
X-0011533140Y0003551280D01*
X-0011546470Y0003553820D01*
X-0011558330Y0003551280D01*
X-0011570180Y0003538580D01*
X-0011577590Y0003523340D01*
X-0011579070Y0003508100D01*
X-0011576110Y0003490320D01*
X-0011565730Y0003477620D01*
X-0011555360Y0003472540D01*
X-0011542030D01*
G01X-0011555360D02*
X-0011564250Y0003464920D01*
X-0011571660Y0003452220D01*
X-0011574620Y0003436980D01*
X-0011571660Y0003421740D01*
X-0011564250Y0003409040D01*
X-0011550920Y0003401420D01*
X-0011537580Y0003403960D01*
X-0011524250Y0003414120D01*
G01X-0009959110Y0001920880D02*
X-0009968000Y0001928500D01*
X-0009978370Y0001933580D01*
X-0009990230D01*
X-0010003560Y0001925960D01*
X-0010013930Y0001913260D01*
X-0010021340Y0001898020D01*
X-0010027270Y0001872620D01*
X-0010028750Y0001849760D01*
X-0010025790Y0001826900D01*
X-0010021340Y0001811660D01*
X-0010012450Y0001796420D01*
X-0010002080Y0001786260D01*
X-0009991710Y0001781180D01*
X-0009981340D01*
X-0009970970Y0001786260D01*
X-0009962080Y0001793880D01*
X-0009954670Y0001804040D01*
G01X-0009867670Y0001781180D02*
X-0009864710Y0001814200D01*
X-0009860260Y0001842140D01*
X-0009854340Y0001867540D01*
X-0009846930Y0001895480D01*
X-0009835080Y0001933580D01*
X-0009894340D01*
G01X-0009257760Y0002357270D02*
Y0002248050D01*
X-0009251830Y0002225190D01*
X-0009239980Y0002209950D01*
X-0009225160Y0002204870D01*
X-0009210340Y0002209950D01*
X-0009198490Y0002225190D01*
X-0009192560Y0002248050D01*
Y0002357270D01*
G01X-0009126310Y0002331870D02*
X-0009117420Y0002347110D01*
X-0009107050Y0002354730D01*
X-0009095200Y0002357270D01*
X-0009080380Y0002352190D01*
X-0009070010Y0002339490D01*
X-0009067040Y0002324250D01*
X-0009068530Y0002309010D01*
X-0009074450Y0002296310D01*
X-0009104090Y0002270910D01*
X-0009117420Y0002253130D01*
X-0009126310Y0002227730D01*
X-0009129280Y0002204870D01*
X-0009067040D01*
G01X-0007468940Y0000845550D02*
X-0007621340D01*
Y0000882590D01*
X-0007613720Y0000894440D01*
X-0007603560Y0000901850D01*
X-0007583240Y0000904810D01*
X-0007562920Y0000901850D01*
X-0007550220Y0000892960D01*
X-0007542600Y0000882590D01*
Y0000845550D01*
G01Y0000882590D02*
X-0007468940Y0000904810D01*
G01Y0001002180D02*
X-0007621340D01*
X-0007590860Y0000984400D01*
G01X-0007468940D02*
Y0001019960D01*
G01X-0007621340Y0001129180D02*
X-0007616260Y0001117330D01*
X-0007603560Y0001108440D01*
X-0007588320Y0001102510D01*
X-0007568000Y0001098060D01*
X-0007545140Y0001096580D01*
X-0007522280Y0001098060D01*
X-0007501960Y0001102510D01*
X-0007486720Y0001108440D01*
X-0007474020Y0001117330D01*
X-0007468940Y0001129180D01*
X-0007474020Y0001141030D01*
X-0007486720Y0001149920D01*
X-0007501960Y0001155850D01*
X-0007522280Y0001160300D01*
X-0007545140Y0001161780D01*
X-0007568000Y0001160300D01*
X-0007588320Y0001155850D01*
X-0007603560Y0001149920D01*
X-0007616260Y0001141030D01*
X-0007621340Y0001129180D01*
G01X-0007285690Y0000845940D02*
X-0007438090D01*
Y0000882980D01*
X-0007430470Y0000894830D01*
X-0007420310Y0000902240D01*
X-0007399990Y0000905200D01*
X-0007379670Y0000902240D01*
X-0007366970Y0000893350D01*
X-0007359350Y0000882980D01*
Y0000845940D01*
G01Y0000882980D02*
X-0007285690Y0000905200D01*
G01X-0007303470Y0000977380D02*
X-0007290770Y0000987750D01*
X-0007285690Y0000999610D01*
X-0007290770Y0001011460D01*
X-0007306010Y0001021830D01*
X-0007328870Y0001029240D01*
X-0007351730Y0001032200D01*
X-0007379670D01*
X-0007402530Y0001029240D01*
X-0007422850Y0001021830D01*
X-0007433010Y0001012940D01*
X-0007438090Y0001002570D01*
X-0007433010Y0000990720D01*
X-0007422850Y0000981830D01*
X-0007407610Y0000975900D01*
X-0007387290Y0000972940D01*
X-0007369510Y0000975900D01*
X-0007351730Y0000983310D01*
X-0007341570Y0000992200D01*
X-0007339030Y0001002570D01*
X-0007344110Y0001014420D01*
X-0007356810Y0001023310D01*
X-0007379670Y0001032200D01*
G01X-0000932970Y0001700670D02*
X-0000940590Y0001691780D01*
X-0000945670Y0001681410D01*
Y0001669550D01*
X-0000938050Y0001656220D01*
X-0000925350Y0001645850D01*
X-0000910110Y0001638440D01*
X-0000884710Y0001632510D01*
X-0000861850Y0001631030D01*
X-0000838990Y0001633990D01*
X-0000823750Y0001638440D01*
X-0000808510Y0001647330D01*
X-0000798350Y0001657700D01*
X-0000793270Y0001668070D01*
Y0001678440D01*
X-0000798350Y0001688810D01*
X-0000805970Y0001697700D01*
X-0000816130Y0001705110D01*
G01X-0000793270Y0001795070D02*
X-0000945670D01*
X-0000915190Y0001777290D01*
G01X-0000793270D02*
Y0001812850D01*
G01X-0000920270Y0001893920D02*
X-0000935510Y0001902810D01*
X-0000943130Y0001913180D01*
X-0000945670Y0001925030D01*
X-0000940590Y0001939850D01*
X-0000927890Y0001950220D01*
X-0000912650Y0001953190D01*
X-0000897410Y0001951700D01*
X-0000884710Y0001945780D01*
X-0000859310Y0001916140D01*
X-0000841530Y0001902810D01*
X-0000816130Y0001893920D01*
X-0000793270Y0001890950D01*
Y0001953190D01*
G01X-0000818350Y0003873660D02*
X-0000810940Y0003858420D01*
X-0000802060Y0003848260D01*
X-0000791680Y0003843180D01*
X-0000779830Y0003848260D01*
X-0000770940Y0003858420D01*
X-0000762050Y0003873660D01*
X-0000759090Y0003893980D01*
Y0003995580D01*
G01X-0000694320Y0003873660D02*
X-0000685430Y0003855880D01*
X-0000673570Y0003845720D01*
X-0000660240Y0003843180D01*
X-0000648380Y0003845720D01*
X-0000636530Y0003858420D01*
X-0000629120Y0003873660D01*
X-0000627640Y0003888900D01*
X-0000630600Y0003906680D01*
X-0000640980Y0003919380D01*
X-0000651350Y0003924460D01*
X-0000664680D01*
G01X-0000651350D02*
X-0000642460Y0003932080D01*
X-0000635050Y0003944780D01*
X-0000632090Y0003960020D01*
X-0000635050Y0003975260D01*
X-0000642460Y0003987960D01*
X-0000655790Y0003995580D01*
X-0000669130Y0003993040D01*
X-0000682460Y0003982880D01*
G01X-0000928020Y0005073000D02*
X-0000935640Y0005064110D01*
X-0000940720Y0005053740D01*
Y0005041880D01*
X-0000933100Y0005028550D01*
X-0000920400Y0005018180D01*
X-0000905160Y0005010770D01*
X-0000879760Y0005004840D01*
X-0000856900Y0005003360D01*
X-0000834040Y0005006320D01*
X-0000818800Y0005010770D01*
X-0000803560Y0005019660D01*
X-0000793400Y0005030030D01*
X-0000788320Y0005040400D01*
Y0005050770D01*
X-0000793400Y0005061140D01*
X-0000801020Y0005070030D01*
X-0000811180Y0005077440D01*
G01X-0000788320Y0005167400D02*
X-0000940720D01*
X-0000910240Y0005149620D01*
G01X-0000788320D02*
Y0005185180D01*
G01X-0000818800Y0005261800D02*
X-0000801020Y0005270690D01*
X-0000790860Y0005282550D01*
X-0000788320Y0005295880D01*
X-0000790860Y0005307740D01*
X-0000803560Y0005319590D01*
X-0000818800Y0005327000D01*
X-0000834040Y0005328480D01*
X-0000851820Y0005325520D01*
X-0000864520Y0005315140D01*
X-0000869600Y0005304770D01*
Y0005291440D01*
G01Y0005304770D02*
X-0000877220Y0005313660D01*
X-0000889920Y0005321070D01*
X-0000905160Y0005324030D01*
X-0000920400Y0005321070D01*
X-0000933100Y0005313660D01*
X-0000940720Y0005300330D01*
X-0000938180Y0005286990D01*
X-0000928020Y0005273660D01*
M02*
