G04 ================== begin FILE IDENTIFICATION RECORD ==================*
G04 Layout Name:  pc042a_toplevel_25.brd*
G04 Film Name:    PC042A_L4*
G04 File Format:  Gerber RS274X*
G04 File Origin:  Cadence Allegro 16.3-S013*
G04 Origin Date:  Mon Sep 19 15:02:02 2011*
G04 *
G04 Layer:  ETCH/L4*
G04 Layer:  PIN/L4*
G04 Layer:  VIA CLASS/L4*
G04 *
G04 Offset:    (0.0000 0.0000)*
G04 Mirror:    No*
G04 Mode:      Positive*
G04 Rotation:  0*
G04 FullContactRelief:  No*
G04 UndefLineWidth:     0.0000*
G04 ================== end FILE IDENTIFICATION RECORD ====================*
%FSAX55Y55*MOMM*%
%IR0*IPPOS*OFA0.00000B0.00000*MIA0B0*SFA1.00000B1.00000*%
%ADD13C,.6096*%
%ADD14C,1.*%
%ADD12C,2.032*%
%ADD11C,1.524*%
%ADD10C,4.445*%
%ADD15C,.2*%
%ADD16C,1.364*%
%ADD17C,2.2068*%
%ADD18C,2.2784*%
%ADD19C,5.1994*%
G75*
%LPD*%
G75*
G36*
G01X0000189270Y-0000202900D02*
G02X0000182150Y-0000185490I-0000000004J0000010159D01*
G03X-0000182150I-0000182150J0000185490D01*
G02X-0000189270Y-0000202900I-0000007116J-0000007251D01*
G01X-0002051390Y-0000202540D01*
G02X-0002061510Y-0000191540I0000000005J0000010160D01*
G03X-0002197410Y-0000191850I-0000067963J0000005666D01*
G02X-0002207530Y-0000202900I-0000010120J-0000000891D01*
G01X-0004475290D01*
X-0004972900Y-0000700510D01*
X-0016200580D01*
Y0006501460D01*
X-0016060710D01*
G02X-0016053320Y0006484320I0000000004J-0000010161D01*
G03X-0015675440I0000188940J-0000178560D01*
G02X-0015668050Y0006501460I0000007386J0000006979D01*
G01X-0015293150D01*
G02X-0015286430Y0006483690I-0000000006J-0000010158D01*
G03X-0015101930I0000092250J-0000104410D01*
G02X-0015095210Y0006501460I0000006726J0000007612D01*
G01X-0014996360D01*
X-0014995630Y0006500730D01*
Y0004648680D01*
X-0014994560Y0004647610D01*
X-0011082400D01*
Y0006500730D01*
X-0011081330Y0006501800D01*
X-0010994770D01*
G02X-0010988070Y0006484000I0000000003J-0000010160D01*
G03X-0010804290I0000091890J-0000104720D01*
G02X-0010797590Y0006501800I0000006697J0000007640D01*
G01X-0000190380D01*
G02X-0000183220Y0006484430I0000000002J-0000010160D01*
G03X0000183220I0000183220J-0000184430D01*
G02X0000190380Y0006501800I0000007158J0000007210D01*
G01X0000999370D01*
Y-0000202900D01*
X0000189270D01*
G37*
%LPC*%
G75*
G36*
G01X-0000174130Y0004807520D02*
G03X-0000174420Y0004791060I0000005804J-0000008335D01*
G02X-0000254310Y0004792480I-0000040927J-0000054558D01*
G03X-0000254020Y0004808940I-0000005804J0000008335D01*
G02X-0000174130Y0004807520I0000040927J0000054558D01*
G37*
G36*
G01X-0000176570Y0005189880D02*
G03X-0000176310Y0005173410I0000006080J-0000008141D01*
G02X-0000256200Y0005172120I-0000039053J-0000055911D01*
G03X-0000256460Y0005188590I-0000006080J0000008141D01*
G02X-0000176570Y0005189880I0000039053J0000055911D01*
G37*
G36*
G01X-0000208000Y0002772470D02*
G02X-0000268180Y0002747200I-0000006905J-0000067849D01*
G03X-0000275090Y0002763650I-0000007939J0000006342D01*
G02X-0000214910Y0002788920I0000006905J0000067849D01*
G03X-0000208000Y0002772470I0000007939J-0000006342D01*
G37*
G36*
G01X0000330180Y0000869890D02*
G03X0000330820Y0000853030I0000005979J-0000008215D01*
G02X0000254820Y0000850110I-0000035826J-0000058031D01*
G03X0000254180Y0000866970I-0000005979J0000008215D01*
G02X0000330180Y0000869890I0000035826J0000058031D01*
G37*
G36*
G01X0000684550Y0001125300D02*
G03X0000685260Y0001108380I0000005964J-0000008225D01*
G02X0000609950Y0001105200I-0000035257J-0000058380D01*
G03X0000609240Y0001122120I-0000005964J0000008225D01*
G02X0000684550Y0001125300I0000035257J0000058380D01*
G37*
G36*
G01X0000165560Y0001126050D02*
G03X0000165630Y0001109780I0000006122J-0000008109D01*
G02X0000083940Y0001109450I-0000040624J-0000054780D01*
G03X0000083870Y0001125720I-0000006122J0000008109D01*
G02X0000165560Y0001126050I0000040624J0000054780D01*
G37*
G36*
G01X0000692020Y0001633640D02*
G03X0000692470Y0001616980I0000006036J-0000008173D01*
G02X0000614480Y0001614860I-0000037475J-0000056981D01*
G03X0000614030Y0001631520I-0000006036J0000008173D01*
G02X0000692020Y0001633640I0000037475J0000056981D01*
G37*
G36*
G01X0000332900Y0002013110D02*
G03X0000332430Y0001996640I0000005709J-0000008405D01*
G02X0000252600Y0001998890I-0000041473J-0000054140D01*
G03X0000253070Y0002015360I-0000005709J0000008405D01*
G02X0000254720Y0002124870I0000041470J0000054143D01*
G03X0000254770Y0002141340I-0000005927J0000008253D01*
G02X0000334690Y0002141130I0000040105J0000055161D01*
G03X0000334640Y0002124660I0000005927J-0000008253D01*
G02X0000332900Y0002013110I-0000040101J-0000055163D01*
G37*
G36*
G01X0000693090Y0002138430D02*
G03Y0002121570I0000005674J-0000008430D01*
G02X0000616910I-0000038090J-0000056570D01*
G03Y0002138430I-0000005674J0000008430D01*
G02X0000693090I0000038090J0000056570D01*
G37*
G36*
G01X0000693550Y0002648740D02*
G03X0000693220Y0002632210I0000005740J-0000008383D01*
G02X0000613950Y0002633760I-0000040720J-0000054710D01*
G03X0000614280Y0002650290I-0000005740J0000008383D01*
G02X0000693550Y0002648740I0000040720J0000054710D01*
G37*
G36*
G01X0000656320Y0003157230D02*
G03Y0003140770I0000005953J-0000008230D01*
G02X0000576400I-0000039960J-0000055270D01*
G03Y0003157230I-0000005953J0000008230D01*
G02X0000656320I0000039960J0000055270D01*
G37*
G36*
G01X-0013795610Y0003612120D02*
G03X-0013803060Y0003598550I0000002044J-0000009952D01*
G02X-0013800310Y0003559190I-0000063751J-0000024230D01*
G03X-0013789330Y0003546830I0000009909J-0000002255D01*
G02X-0013848680Y0003494130I0000007150J-0000067822D01*
G03X-0013859660Y0003506490I-0000009909J0000002255D01*
G02X-0013880490Y0003641120I-0000007150J0000067820D01*
G03X-0013873040Y0003654690I-0000002044J0000009952D01*
G02X-0013795610Y0003612120I0000063746J0000024243D01*
G37*
G36*
G01X0000142490Y0005445160D02*
G03X0000143290Y0005428690I0000006331J-0000007947D01*
G02X0000063640Y0005424840I-0000037154J-0000057190D01*
G03X0000062840Y0005441310I-0000006331J0000007947D01*
G02X0000063860Y0005556330I0000037161J0000057185D01*
G03X0000064920Y0005572800I-0000005388J0000008616D01*
G02X0000144350Y0005567670I0000043284J0000052702D01*
G03X0000143290Y0005551200I0000005388J-0000008616D01*
G02X0000142490Y0005445160I-0000043291J-0000052696D01*
G37*
G36*
G01X-0000898460Y0006173540D02*
Y0006172650D01*
X-0001105020D01*
Y0006173540D01*
X-0001683780D01*
Y0006453060D01*
X-0000418700D01*
Y0006173540D01*
X-0000898460D01*
G37*
G36*
G01X-0011336640Y0003765010D02*
G03X-0011328700Y0003749670I0000008722J-0000005210D01*
G02X-0011392460Y0003716660I-0000005220J-0000068000D01*
G03X-0011400400Y0003732000I-0000008722J0000005210D01*
G02X-0011375590Y0003865320I0000005211J0000067999D01*
G03X-0011362640Y0003873450I0000002917J0000009733D01*
G02X-0011360840Y0003881860I0000067460J-0000010041D01*
G02X-0011245100Y0003909690I0000065654J-0000018456D01*
G02X-0011227740Y0003873550I-0000050078J-0000046295D01*
G03X-0011214770Y0003865320I0000010050J0000001503D01*
G02X-0011175590I0000019590J-0000065320D01*
G03X-0011162620Y0003873550I0000002920J0000009733D01*
G02X-0011114770Y0003798080I0000067439J-0000010146D01*
G03X-0011127740Y0003789850I-0000002920J-0000009733D01*
G02X-0011262620I-0000067440J0000010150D01*
G03X-0011275590Y0003798080I-0000010050J-0000001503D01*
G02X-0011315070Y0003798170I-0000019591J0000065322D01*
G03X-0011327740Y0003789850I-0000002618J-0000009820D01*
G02X-0011336640Y0003765010I-0000067440J0000010149D01*
G37*
G36*
G01X0000655140Y0003665880D02*
G03X0000655400Y0003649420I0000006082J-0000008136D01*
G02X0000575510Y0003648120I-0000039046J-0000055919D01*
G03X0000575320Y0003664530I-0000006082J0000008136D01*
G02X0000575270Y0003776440I0000038969J0000055972D01*
G03X0000574880Y0003793110I-0000005996J0000008199D01*
G02X0000545530Y0003862880I0000037621J0000056884D01*
G02X0000572130Y0003904970I0000066973J-0000012875D01*
G03X0000572380Y0003920860I-0000006207J0000008045D01*
G02X0000546450Y0003969920I0000042117J0000053643D01*
G02X0000572710Y0004028400I0000068048J0000004580D01*
G03X0000572150Y0004044860I-0000006225J0000008028D01*
G02X0000570180Y0004156770I0000037989J0000056641D01*
G03Y0004173230I-0000005953J0000008230D01*
G02X0000572120Y0004285120I0000039959J0000055269D01*
G03X0000572680Y0004301580I-0000005667J0000008432D01*
G02X0000575650Y0004411590I0000041761J0000053918D01*
G03X0000575990Y0004428060I-0000005778J0000008358D01*
G02X0000575080Y0004536240I0000041080J0000054439D01*
G03X0000574450Y0004552710I-0000006254J0000008008D01*
G02X0000574120Y0004666070I0000037761J0000056790D01*
G03X0000574660Y0004682540I-0000005675J0000008430D01*
G02X0000654450Y0004679930I0000041703J0000053961D01*
G03X0000653910Y0004663460I0000005675J-0000008430D01*
G02X0000654200Y0004555760I-0000041702J-0000053963D01*
G03X0000654830Y0004539290I0000006254J-0000008008D01*
G02X0000655860Y0004426410I-0000037762J-0000056789D01*
G03X0000655520Y0004409940I0000005778J-0000008358D01*
G02X0000652460Y0004298880I-0000041080J-0000054440D01*
G03X0000651900Y0004282420I0000005667J-0000008432D01*
G02X0000650100Y0004173230I-0000041759J-0000053921D01*
G03Y0004156770I0000005953J-0000008230D01*
G02X0000651930Y0004047600I-0000039959J-0000055270D01*
G03X0000652490Y0004031140I0000006225J-0000008028D01*
G02X0000671310Y0004012230I-0000037995J-0000056634D01*
G02X0000654870Y0003919530I-0000056811J-0000037733D01*
G03X0000654620Y0003903640I0000006207J-0000008045D01*
G02X0000651520Y0003794060I-0000042119J-0000053642D01*
G03X0000651910Y0003777390I0000005996J-0000008199D01*
G02X0000655140Y0003665880I-0000037617J-0000056891D01*
G37*
G36*
G01X0000150700Y0004045280D02*
G03Y0004029230I0000006233J-0000008025D01*
G02X0000069300I-0000040700J-0000054730D01*
G03Y0004045280I-0000006233J0000008025D01*
G02X0000150700I0000040700J0000054720D01*
G37*
G36*
G01X0000336400Y0003412330D02*
G03X0000336010Y0003395410I0000005426J-0000008590D01*
G02X0000260550Y0003397170I-0000039055J-0000055910D01*
G03X0000260940Y0003414090I-0000005426J0000008590D01*
G02X0000255340Y0003521540I0000039060J0000055907D01*
G03X0000254500Y0003537550I-0000006654J0000007678D01*
G02X0000257050Y0003651140I0000039000J0000055948D01*
G03X0000258030Y0003667610I-0000005430J0000008587D01*
G02X0000260850Y0003775570I0000043058J0000052892D01*
G03X0000260520Y0003791890I-0000006214J0000008038D01*
G02X0000258150Y0003901350I0000039480J0000055610D01*
G03X0000257570Y0003917820I-0000006229J0000008026D01*
G02X0000254390Y0004028920I0000037929J0000056681D01*
G03X0000254040Y0004045380I-0000006125J0000008103D01*
G02X0000333910Y0004047080I0000038759J0000056119D01*
G03X0000334260Y0004030620I0000006125J-0000008103D01*
G02X0000337350Y0003920650I-0000038759J-0000056117D01*
G03X0000337930Y0003904180I0000006229J-0000008026D01*
G02X0000340430Y0003792580I-0000037931J-0000056678D01*
G03X0000340480Y0003776180I0000006023J-0000008182D01*
G02X0000356760Y0003759890I-0000039407J-0000055663D01*
G02X0000337540Y0003662860I-0000055669J-0000039391D01*
G03X0000336560Y0003646390I0000005430J-0000008587D01*
G02X0000338160Y0003541960I-0000043060J-0000052887D01*
G03X0000339000Y0003525950I0000006654J-0000007678D01*
G02X0000336400Y0003412330I-0000039001J-0000055947D01*
G37*
G36*
G01X0000136570Y0003542430D02*
G03X0000136830Y0003525130I0000005451J-0000008570D01*
G02X0000065410Y0003524070I-0000034848J-0000058628D01*
G03X0000065150Y0003541370I-0000005451J0000008570D01*
G02X0000054310Y0003650630I0000034849J0000058625D01*
G02X0000061420Y0003737870I0000055689J0000039371D01*
G03Y0003752130I-0000007234J0000007130D01*
G02X0000158580I0000048580J0000047870D01*
G03Y0003737870I0000007234J-0000007130D01*
G02X0000155690Y0003639370I-0000048580J-0000047867D01*
G02X0000136570Y0003542430I-0000055692J-0000039371D01*
G37*
G36*
G01X-0000178430Y0004429550D02*
G03X-0000179390Y0004412110I0000004707J-0000009006D01*
G02X-0000248990Y0004415950I-0000038029J-0000056611D01*
G03X-0000248030Y0004433390I-0000004707J0000009006D01*
G02X-0000178430Y0004429550I0000038029J0000056611D01*
G37*
G36*
G01X-0011243960Y0003267790D02*
G03X-0011233580Y0003257800I0000010160J0000000169D01*
G02X-0011300290Y0003188500I0000001479J-0000068182D01*
G03X-0011310670Y0003198490I-0000010160J-0000000169D01*
G02X-0011243960Y0003267790I-0000001479J0000068182D01*
G37*
G36*
G01X-0013708960Y0003110840D02*
G03X-0013724280Y0003108510I-0000006672J-0000007662D01*
G02X-0013737510Y0003195740I-0000058039J0000035816D01*
G03X-0013722190Y0003198070I0000006672J0000007662D01*
G02X-0013708960Y0003110840I0000058039J-0000035816D01*
G37*
G36*
G01X-0008037200Y0003892630D02*
G02X-0007947590Y0003893930I0000044059J0000052059D01*
G03X-0007947370Y0003878610I0000006781J-0000007564D01*
G02X-0008036980Y0003877310I-0000044059J-0000052059D01*
G03X-0008037200Y0003892630I-0000006781J0000007564D01*
G37*
G36*
G01X0000144260Y0005063230D02*
G03X0000144670Y0005046770I0000006153J-0000008082D01*
G02X0000064820Y0005044770I-0000038541J-0000056269D01*
G03X0000064410Y0005061230I-0000006153J0000008082D01*
G02X0000144260Y0005063230I0000038541J0000056269D01*
G37*
G54D16*
X-0002734370Y0001020580D03*
X-0000693270Y0001582010D03*
X-0000688320Y0005279130D03*
X0000104060Y0004609500D03*
X-0011852440Y0003245370D03*
X-0008454610Y0003721160D03*
X-0009680540Y0003714990D03*
X-0009480240Y0002830190D03*
X-0010712350Y0003130920D03*
X-0002244810Y0000468560D03*
X-0003172450Y0000764850D03*
X-0014252050Y0003574310D03*
X-0014158870Y0003439880D03*
X-0008734550Y0003710350D03*
X-0009111570Y0003700000D03*
X-0008940000Y0003710000D03*
X-0011843160Y0003677180D03*
X-0012000000Y0003610000D03*
X0000618430Y0005625500D03*
X0000292800Y0005498500D03*
X0000296950Y0005244500D03*
X0000612210Y0005371500D03*
X0000616360Y0005117500D03*
X0000296320Y0002764980D03*
X0000106130Y0003085500D03*
X0000290720Y0002958500D03*
X0000099910Y0002704500D03*
X0000294870Y0002577500D03*
X0000104060Y0002323500D03*
X0000108200Y0001942500D03*
X0000112350Y0001561500D03*
X0000287500Y0001307500D03*
X0000127500Y0000672500D03*
X0000637500D03*
X-0000219500Y0005498500D03*
X-0000055000Y0005565000D03*
X-0000268180Y0003974500D03*
X-0000265000Y0003593500D03*
Y0002450000D03*
X-0000264500Y0002069500D03*
X-0000212030Y0001307500D03*
X-0000265000Y0001685000D03*
X-0000209840Y0000925000D03*
X-0008908100Y0002758020D03*
X-0008908930Y0002906310D03*
X-0009028990Y0002128970D03*
X-0009382970Y0002036890D03*
X-0008935010Y0001941890D03*
X-0009195010D03*
X-0009292820Y0001753360D03*
X-0009469090Y0001864710D03*
X-0009531000Y0001660180D03*
X-0011595180Y0003852450D03*
X-0011878190Y0002034210D03*
X-0011353870Y0001566350D03*
X-0011880770Y0001211490D03*
X-0012321460Y0001658570D03*
X-0012895180Y0003863400D03*
X-0013166710Y0004104760D03*
X-0013037510Y0003199010D03*
X-0012744520Y0003719500D03*
X-0013337490Y0004102970D03*
X-0013296660Y0003821340D03*
X-0013267790Y0003162250D03*
X-0013632180Y0003479660D03*
X-0013360970Y0003034070D03*
X-0013570360D03*
X-0013895410Y0004104760D03*
X-0013949530Y0003446130D03*
X-0014368670Y0003772110D03*
X-0014995180Y0003863400D03*
X-0014495180D03*
X0000110000Y0004260000D03*
X-0012990000Y0003610000D03*
X-0009187710Y0004421890D03*
X-0009824720Y0002040000D03*
X-0009795450Y0001864710D03*
X-0002429770Y-0000111130D03*
X-0002125800Y0001033520D03*
X-0001821590Y0000279690D03*
X-0010953300Y0002898940D03*
X-0009225700Y0002707690D03*
X-0009324840Y0003714990D03*
X-0008113480Y0003721160D03*
X-0012074870Y0003018450D03*
X0000296670Y0004932670D03*
X-0010837300Y0001547560D03*
X-0000584140Y0005045950D03*
X-0000693270Y0001904250D03*
X-0007536720Y0002593030D03*
X-0007383970Y0002307300D03*
G54D17*
X0000200000Y0000430000D03*
X-0000105000Y0005868000D03*
G54D18*
X-0005503680Y0000359840D03*
Y0000105840D03*
X-0006011680Y0000359840D03*
X-0005757680D03*
X-0006011680Y0000105840D03*
X-0005757680D03*
X-0006773680Y0000359840D03*
Y0000105840D03*
X-0006265680D03*
X-0006519680D03*
Y0000359840D03*
X-0006265680D03*
X-0007281680D03*
X-0007027680D03*
X-0007281680Y0000105840D03*
X-0007027680D03*
X-0008043680Y0000359840D03*
X-0007789680D03*
X-0007535680D03*
X-0008043680Y0000105840D03*
X-0007789680D03*
X-0007535680D03*
X-0008551680Y0000359840D03*
X-0008297680D03*
X-0008551680Y0000105840D03*
X-0008297680D03*
X-0010583300Y0000358590D03*
X-0010329300D03*
X-0010583300Y0000104590D03*
X-0010329300D03*
X-0011091300Y0000358590D03*
X-0010837300D03*
X-0011091300Y0000104590D03*
X-0010837300D03*
X-0011853300Y0000358590D03*
X-0011599300D03*
X-0011345300D03*
X-0011853300Y0000104590D03*
X-0011599300D03*
X-0011345300D03*
X-0012361300Y0000358590D03*
X-0012107300D03*
X-0012361300Y0000104590D03*
X-0012107300D03*
X-0013123300Y0000358590D03*
X-0012869300D03*
X-0012615300D03*
X-0013123300Y0000104590D03*
X-0012869300D03*
X-0012615300D03*
X-0013631300Y0000358590D03*
X-0013377300D03*
X-0013631300Y0000104590D03*
X-0013377300D03*
X-0014393300Y0000358590D03*
X-0014139300D03*
X-0013885300D03*
X-0014393300Y0000104590D03*
X-0014139300D03*
X-0013885300D03*
X-0014901300Y0000358590D03*
X-0014647300D03*
X-0014901300Y0000104590D03*
X-0014647300D03*
X-0015155300Y0000358590D03*
Y0000104590D03*
G54D19*
X-0015864380Y0000024050D03*
%LPD*%
G75*
G54D10*
X-0015864380Y0000024050D03*
Y0006305760D03*
X0Y0D03*
Y0006300000D03*
G54D11*
X-0015155300Y0000104590D03*
Y0000358590D03*
X-0014647300Y0000104590D03*
X-0014901300D03*
X-0014647300Y0000358590D03*
X-0014901300D03*
X-0013885300Y0000104590D03*
X-0014139300D03*
X-0014393300D03*
X-0013885300Y0000358590D03*
X-0014139300D03*
X-0014393300D03*
X-0013377300Y0000104590D03*
X-0013631300D03*
X-0013377300Y0000358590D03*
X-0013631300D03*
X-0012615300Y0000104590D03*
X-0012869300D03*
X-0013123300D03*
X-0012615300Y0000358590D03*
X-0012869300D03*
X-0013123300D03*
X-0012107300Y0000104590D03*
X-0012361300D03*
X-0012107300Y0000358590D03*
X-0012361300D03*
X-0011345300Y0000104590D03*
X-0011599300D03*
X-0011853300D03*
X-0011345300Y0000358590D03*
X-0011599300D03*
X-0011853300D03*
X-0010837300Y0000104590D03*
X-0011091300D03*
X-0010837300Y0000358590D03*
X-0011091300D03*
X-0010329300Y0000104590D03*
X-0010583300D03*
X-0010329300Y0000358590D03*
X-0010583300D03*
X-0008297680Y0000105840D03*
X-0008551680D03*
X-0008297680Y0000359840D03*
X-0008551680D03*
X-0007535680Y0000105840D03*
X-0007789680D03*
X-0008043680D03*
X-0007535680Y0000359840D03*
X-0007789680D03*
X-0008043680D03*
X-0007027680Y0000105840D03*
X-0007281680D03*
X-0007027680Y0000359840D03*
X-0007281680D03*
X-0006265680D03*
X-0006519680D03*
Y0000105840D03*
X-0006265680D03*
X-0006773680D03*
Y0000359840D03*
X-0005757680Y0000105840D03*
X-0006011680D03*
X-0005757680Y0000359840D03*
X-0006011680D03*
X-0005503680Y0000105840D03*
Y0000359840D03*
G54D12*
X-0015194180Y0006379280D03*
X-0010896180D03*
G54D13*
X-0014495180Y0003863400D03*
X-0014995180D03*
X-0013866810Y0003574310D03*
X-0014368670Y0003772110D03*
X-0014252050Y0003574310D03*
X-0014158870Y0003439880D03*
X-0013949530Y0003446130D03*
X-0013895410Y0004104760D03*
X-0013782320Y0003144330D03*
X-0013570360Y0003034070D03*
X-0013360970D03*
X-0013782180Y0003479010D03*
X-0013809290Y0003678930D03*
X-0013664150Y0003162250D03*
X-0013632180Y0003479660D03*
X-0013267790Y0003162250D03*
X-0013296660Y0003821340D03*
X-0013337490Y0004102970D03*
X-0012744520Y0003719500D03*
X-0012990000Y0003610000D03*
X-0013037510Y0003199010D03*
X-0013166710Y0004104760D03*
X-0012895180Y0003863400D03*
X-0012321460Y0001658570D03*
X-0012074870Y0003018450D03*
X-0012000000Y0003610000D03*
X-0011880770Y0001211490D03*
X-0011353870Y0001566350D03*
X-0011880770Y0001465830D03*
X-0011878190Y0002034210D03*
X-0011852440Y0003245370D03*
X-0011843160Y0003677180D03*
X-0011333920Y0003681670D03*
X-0011312150Y0003266670D03*
X-0011395180Y0003800000D03*
X-0011295180Y0003863400D03*
X-0011595180Y0003852450D03*
X-0010837300Y0001547560D03*
X-0010953300Y0002898940D03*
X-0010712350Y0003130920D03*
X-0011232100Y0003189620D03*
X-0011095180Y0003863400D03*
X-0011195180Y0003800000D03*
X-0009531000Y0001660180D03*
X-0009469090Y0001864710D03*
X-0009795450D03*
X-0009824720Y0002040000D03*
X-0009480240Y0002830190D03*
X-0009680540Y0003714990D03*
X-0009292820Y0001753360D03*
X-0009195010Y0001941890D03*
X-0008935010D03*
X-0009382970Y0002036890D03*
X-0009028990Y0002128970D03*
X-0009225700Y0002707690D03*
X-0008908930Y0002906310D03*
X-0008908100Y0002758020D03*
X-0009324840Y0003714990D03*
X-0008940000Y0003710000D03*
X-0009111570Y0003700000D03*
X-0009187710Y0004421890D03*
X-0008454610Y0003721160D03*
X-0008734550Y0003710350D03*
X-0007789950Y0000810200D03*
X-0007536720Y0002593030D03*
X-0008113480Y0003721160D03*
X-0007991430Y0003826550D03*
X-0007993140Y0003944690D03*
X-0007383970Y0002307300D03*
X-0003172450Y0000764850D03*
X-0002734370Y0001020580D03*
X-0002129470Y-0000185880D03*
X-0002429770Y-0000111130D03*
X-0002244810Y0000468560D03*
X-0002125800Y0001033520D03*
X-0001821590Y0000279690D03*
X-0000693270Y0001582010D03*
Y0001904250D03*
X-0000688320Y0005279130D03*
X-0000584140Y0005045950D03*
X-0000209840Y0000925000D03*
X-0000265000Y0001685000D03*
X-0000212030Y0001307500D03*
X-0000264500Y0002069500D03*
X-0000265000Y0002450000D03*
X-0000268180Y0002831500D03*
X-0000214910Y0002704620D03*
X-0000265000Y0003593500D03*
X-0000268180Y0003974500D03*
X-0000217420Y0004355500D03*
X-0000215350Y0004736500D03*
X-0000210000Y0004490000D03*
X-0000213090Y0004863500D03*
X-0000055000Y0005565000D03*
X-0000215360Y0005117500D03*
X-0000219500Y0005498500D03*
X-0000217410Y0005244500D03*
X0000637500Y0000672500D03*
X0000127500D03*
X0000124500Y0001180500D03*
X0000644500D03*
X0000650000Y0001050000D03*
X0000290000Y0000925000D03*
X0000295000Y0000795000D03*
X0000125000Y0001055000D03*
X0000651500Y0001688500D03*
X0000655000Y0001560000D03*
X0000287500Y0001307500D03*
X0000112350Y0001561500D03*
X0000655000Y0002195000D03*
Y0002065000D03*
X0000294870Y0002196500D03*
X0000108200Y0001942500D03*
X0000104060Y0002323500D03*
X0000294540Y0002069500D03*
X0000290960Y0001942500D03*
X0000652500Y0002577500D03*
X0000655000Y0002705000D03*
X0000294870Y0002577500D03*
X0000099910Y0002704500D03*
X0000290720Y0002958500D03*
X0000106130Y0003085500D03*
X0000616360D03*
X0000296320Y0002764980D03*
X0000101980Y0003466500D03*
X0000296950Y0003339500D03*
X0000301090Y0003720500D03*
X0000614290D03*
X0000616360Y0003593500D03*
Y0003212500D03*
X0000300000Y0003470000D03*
X0000293500Y0003593500D03*
X0000100000Y0003600000D03*
X0000110000Y0003690000D03*
Y0003800000D03*
Y0004260000D03*
X0000292800Y0004101500D03*
X0000610140Y0004228500D03*
Y0004101500D03*
X0000614440Y0004355500D03*
X0000110000Y0003974500D03*
Y0004100000D03*
X0000612500Y0003850000D03*
X0000614500Y0003974500D03*
X0000300000Y0003847500D03*
X0000295500Y0003974500D03*
X0000612210Y0004609500D03*
X0000616360Y0004736500D03*
X0000104060Y0004609500D03*
X0000106130Y0004990500D03*
X0000617070Y0004482500D03*
X0000312400Y0004609500D03*
X0000296670Y0004932670D03*
X0000100000Y0005498500D03*
X0000616360Y0005117500D03*
X0000612210Y0005371500D03*
X0000296950Y0005244500D03*
X0000106130Y0005371500D03*
X0000292800Y0005498500D03*
X0000618430Y0005625500D03*
X0000108210D03*
X0000296470Y0005117500D03*
X0000299470Y0005371500D03*
X0000291510Y0005625500D03*
X0000617410Y0005498500D03*
X0000102950Y0005117500D03*
G54D14*
X-0000105000Y0005868000D03*
X0000200000Y0000430000D03*
G54D15*
G01X-0000982440Y0006270000D02*
Y0006397000D01*
X-0001041960Y0006305980D01*
X-0000961520D01*
M02*
