G04 ================== begin FILE IDENTIFICATION RECORD ==================*
G04 Layout Name:  pc042a_toplevel_25.brd*
G04 Film Name:    PC042A_ASSEMBLY_TOP*
G04 File Format:  Gerber RS274X*
G04 File Origin:  Cadence Allegro 16.3-S013*
G04 Origin Date:  Mon Sep 19 15:02:03 2011*
G04 *
G04 Layer:  REF DES/ASSEMBLY_TOP*
G04 Layer:  PACKAGE GEOMETRY/ASSEMBLY_TOP*
G04 Layer:  DRAWING FORMAT/OUTLINE*
G04 Layer:  DRAWING FORMAT/TITLE_BLOCK*
G04 Layer:  DRAWING FORMAT/TITLE_DATA*
G04 Layer:  DRAWING FORMAT/REVISION_BLOCK*
G04 Layer:  DRAWING FORMAT/REVISION_DATA*
G04 Layer:  BOARD GEOMETRY/OUTLINE*
G04 Layer:  BOARD GEOMETRY/DIMENSION*
G04 *
G04 Offset:    (0.0000 0.0000)*
G04 Mirror:    No*
G04 Mode:      Positive*
G04 Rotation:  0*
G04 FullContactRelief:  No*
G04 UndefLineWidth:     0.2000*
G04 ================== end FILE IDENTIFICATION RECORD ====================*
%FSAX55Y55*MOMM*%
%IR0*IPPOS*OFA0.00000B0.00000*MIA0B0*SFA1.00000B1.00000*%
%ADD10C,.1*%
%ADD11C,.2*%
%ADD12C,.203*%
%ADD13C,.125*%
G75*
%LPD*%
G75*
G54D10*
G01X0000840000Y0005869000D02*
Y0000429000D01*
X-0000440000D01*
Y0005869000D01*
X0000840000D01*
G01X-0000150000Y0000564000D02*
Y0005849000D01*
X-0000215000D01*
Y0000564000D01*
X-0000150000D01*
G01X-0000535000Y0005879000D02*
Y0000419000D01*
X-0000475000Y0000359000D01*
X0000125000D01*
G01X-0000475000Y0005939000D02*
X-0000535000Y0005879000D01*
G01X0000935000Y0000419000D02*
Y0005879000D01*
X0000875000Y0005939000D01*
X-0000475000D01*
G01X0000105000Y0000444000D02*
Y0005769000D01*
X0000040000D01*
Y0000444000D01*
X0000105000D01*
G01X0000295000D02*
Y0005769000D01*
X0000360000D01*
Y0000444000D01*
X0000295000D01*
G01X0000615000Y0000569000D02*
Y0005849000D01*
X0000550000D01*
Y0000569000D01*
X0000615000D01*
G01X0000275000Y0000359000D02*
X0000875000D01*
G01X0000276000Y0000360000D02*
Y0000271000D01*
X0000124000D01*
Y0000360000D01*
G01X0000935000Y0000419000D02*
X0000875000Y0000359000D01*
G54D11*
G01X-0012166460Y0001605390D02*
X-0012326460D01*
Y0001525390D01*
X-0012166460D01*
Y0001605390D01*
G01X-0011597050Y0001526350D02*
X-0011437050D01*
Y0001606350D01*
X-0011597050D01*
Y0001526350D01*
G01X-0011918190Y0001951030D02*
Y0001791030D01*
X-0011838190D01*
Y0001951030D01*
X-0011918190D01*
G01X-0011417100Y0003721670D02*
X-0011577100D01*
Y0003641670D01*
X-0011417100D01*
Y0003721670D01*
G01X-0010145300Y0000378590D02*
X-0010165300Y0000366090D01*
X-0010178630Y0000351090D01*
X-0010185300Y0000333590D01*
X-0010178630Y0000313590D01*
X-0010165300Y0000298590D01*
X-0010145300Y0000283590D01*
X-0010118640Y0000278590D01*
X-0009985300D01*
G01X-0010185300Y0000128590D02*
X-0009985300D01*
X-0010025300Y0000158590D01*
G01X-0010185300D02*
Y0000098590D01*
G01X-0009712270Y0001824710D02*
X-0009552270D01*
Y0001904710D01*
X-0009712270D01*
Y0001824710D01*
G01X-0007496540Y0000566490D02*
Y0000726490D01*
X-0007576540D01*
Y0000566490D01*
X-0007496540D01*
G01X-0007343860Y0000566230D02*
Y0000726230D01*
X-0007423860D01*
Y0000566230D01*
X-0007343860D01*
G01X-0000653270Y0001668620D02*
Y0001828620D01*
X-0000733270D01*
Y0001668620D01*
X-0000653270D01*
G01X-0000648320Y0005040950D02*
Y0005200950D01*
X-0000728320D01*
Y0005040950D01*
X-0000648320D01*
G01X0000170000Y0003211730D02*
X0000160000Y0003206170D01*
X0000153330Y0003199510D01*
X0000150000Y0003191720D01*
X0000153330Y0003182830D01*
X0000160000Y0003176160D01*
X0000170000Y0003169490D01*
X0000183330Y0003167270D01*
X0000250000D01*
G01X0000170000Y0003132960D02*
X0000158330Y0003126290D01*
X0000151670Y0003117390D01*
X0000150000Y0003107390D01*
X0000151670Y0003098490D01*
X0000160000Y0003089600D01*
X0000170000Y0003084040D01*
X0000180000Y0003082930D01*
X0000191660Y0003085150D01*
X0000200000Y0003092940D01*
X0000203330Y0003100720D01*
Y0003110720D01*
G01Y0003100720D02*
X0000208330Y0003094050D01*
X0000216660Y0003088490D01*
X0000226670Y0003086270D01*
X0000236670Y0003088490D01*
X0000245000Y0003094050D01*
X0000250000Y0003104050D01*
X0000248330Y0003114060D01*
X0000241670Y0003124060D01*
G01X-0017837170Y-0008636240D02*
Y0020040360D01*
X0002787630D01*
Y-0008636240D01*
X-0017837170D01*
G01X-0017456170Y-0007798040D02*
Y0019329160D01*
X0002330430D01*
Y-0007798040D01*
X-0017456170D01*
G01X-0017430770Y-0007759940D02*
Y-0003187940D01*
X0002381230D01*
G01X-0017222580Y-0006299440D02*
Y-0006172440D01*
X-0017161440D01*
G01X-0017183970Y-0006233820D02*
X-0017222580D01*
G01X-0017094640Y-0006299440D02*
Y-0006172440D01*
X-0017054430D01*
X-0017041560Y-0006178790D01*
X-0017033510Y-0006187260D01*
X-0017030300Y-0006204190D01*
X-0017033510Y-0006221120D01*
X-0017043170Y-0006231710D01*
X-0017054430Y-0006238060D01*
X-0017094640D01*
G01X-0017054430D02*
X-0017030300Y-0006299440D01*
G01X-0016973150D02*
X-0016932930Y-0006172440D01*
X-0016892710Y-0006299440D01*
G01X-0016907190Y-0006254990D02*
X-0016958670D01*
G01X-0016768000Y-0006183020D02*
X-0016777650Y-0006176670D01*
X-0016788910Y-0006172440D01*
X-0016801780D01*
X-0016816260Y-0006178790D01*
X-0016827520Y-0006189370D01*
X-0016835560Y-0006202070D01*
X-0016842000Y-0006223240D01*
X-0016843610Y-0006242290D01*
X-0016840390Y-0006261340D01*
X-0016835560Y-0006274040D01*
X-0016825910Y-0006286740D01*
X-0016814650Y-0006295210D01*
X-0016803390Y-0006299440D01*
X-0016792130D01*
X-0016780870Y-0006295210D01*
X-0016771220Y-0006288860D01*
X-0016763170Y-0006280390D01*
G01X-0016673850Y-0006172440D02*
Y-0006299440D01*
G01X-0016710850Y-0006172440D02*
X-0016636850D01*
G01X-0016563610D02*
X-0016525010D01*
G01X-0016544310D02*
Y-0006299440D01*
G01X-0016563610D02*
X-0016525010D01*
G01X-0016414770D02*
X-0016427640Y-0006297320D01*
X-0016438900Y-0006288860D01*
X-0016448550Y-0006276160D01*
X-0016454990Y-0006261340D01*
X-0016458210Y-0006244410D01*
Y-0006227470D01*
X-0016454990Y-0006210540D01*
X-0016448550Y-0006195720D01*
X-0016438900Y-0006183020D01*
X-0016427640Y-0006174560D01*
X-0016414770Y-0006172440D01*
X-0016401900Y-0006174560D01*
X-0016390640Y-0006183020D01*
X-0016380990Y-0006195720D01*
X-0016374550Y-0006210540D01*
X-0016371330Y-0006227470D01*
Y-0006244410D01*
X-0016374550Y-0006261340D01*
X-0016380990Y-0006276160D01*
X-0016390640Y-0006288860D01*
X-0016401900Y-0006297320D01*
X-0016414770Y-0006299440D01*
G01X-0016322230D02*
Y-0006172440D01*
X-0016248230Y-0006299440D01*
Y-0006172440D01*
G01X-0016189470Y-0006282510D02*
X-0016176600Y-0006293090D01*
X-0016162120Y-0006299440D01*
X-0016149260D01*
X-0016136390Y-0006293090D01*
X-0016126730Y-0006282510D01*
X-0016121910Y-0006267690D01*
X-0016125120Y-0006252880D01*
X-0016133170Y-0006240170D01*
X-0016147650Y-0006231710D01*
X-0016166950Y-0006227470D01*
X-0016178210Y-0006219010D01*
X-0016183040Y-0006204190D01*
X-0016179820Y-0006189370D01*
X-0016171780Y-0006178790D01*
X-0016160520Y-0006172440D01*
X-0016149260D01*
X-0016137990Y-0006176670D01*
X-0016128340Y-0006187260D01*
G01X-0015914310Y-0006257110D02*
X-0015875700D01*
G01X-0015896610Y-0006229590D02*
Y-0006284630D01*
G01X-0017232230Y-0005918440D02*
X-0017192010Y-0005791440D01*
X-0017151790Y-0005918440D01*
G01X-0017166270Y-0005873990D02*
X-0017217750D01*
G01X-0017099470Y-0005918440D02*
Y-0005791440D01*
X-0017025470Y-0005918440D01*
Y-0005791440D01*
G01X-0016923280Y-0005854940D02*
X-0016891100D01*
Y-0005893040D01*
X-0016900760Y-0005905740D01*
X-0016912020Y-0005914210D01*
X-0016928100Y-0005918440D01*
X-0016944190Y-0005914210D01*
X-0016955450Y-0005905740D01*
X-0016965100Y-0005893040D01*
X-0016971540Y-0005878220D01*
X-0016974760Y-0005861290D01*
Y-0005846470D01*
X-0016971540Y-0005833780D01*
X-0016965100Y-0005818950D01*
X-0016955450Y-0005806260D01*
X-0016945800Y-0005797790D01*
X-0016932930Y-0005791440D01*
X-0016921670D01*
X-0016908800Y-0005795670D01*
X-0016899150Y-0005804140D01*
G01X-0016835560Y-0005791440D02*
Y-0005918440D01*
X-0016771220D01*
G01X-0016641680D02*
X-0016706020D01*
Y-0005791440D01*
X-0016641680D01*
G01X-0016667420Y-0005852820D02*
X-0016706020D01*
G01X-0016578090Y-0005901510D02*
X-0016565220Y-0005912090D01*
X-0016550740Y-0005918440D01*
X-0016537880D01*
X-0016525010Y-0005912090D01*
X-0016515350Y-0005901510D01*
X-0016510530Y-0005886690D01*
X-0016513740Y-0005871880D01*
X-0016521790Y-0005859170D01*
X-0016536270Y-0005850710D01*
X-0016555570Y-0005846470D01*
X-0016566830Y-0005838010D01*
X-0016571660Y-0005823190D01*
X-0016568440Y-0005808370D01*
X-0016560400Y-0005797790D01*
X-0016549140Y-0005791440D01*
X-0016537880D01*
X-0016526610Y-0005795670D01*
X-0016516960Y-0005806260D01*
G01X-0016302930Y-0005876110D02*
X-0016264320D01*
G01X-0016285230Y-0005848590D02*
Y-0005903630D01*
G01X-0017227400Y-0005512040D02*
X-0017217750Y-0005526860D01*
X-0017204880Y-0005535320D01*
X-0017190400Y-0005537440D01*
X-0017177530Y-0005535320D01*
X-0017164660Y-0005524740D01*
X-0017156620Y-0005512040D01*
X-0017155010Y-0005499340D01*
X-0017158230Y-0005484530D01*
X-0017169490Y-0005473940D01*
X-0017180750Y-0005469710D01*
X-0017195230D01*
G01X-0017180750D02*
X-0017171100Y-0005463360D01*
X-0017163050Y-0005452780D01*
X-0017159840Y-0005440070D01*
X-0017163050Y-0005427370D01*
X-0017171100Y-0005416790D01*
X-0017185580Y-0005410440D01*
X-0017200050Y-0005412560D01*
X-0017214530Y-0005421020D01*
G01X-0016965100Y-0005537440D02*
Y-0005410440D01*
X-0016926500D01*
X-0016913630Y-0005416790D01*
X-0016903970Y-0005431610D01*
X-0016900760Y-0005448540D01*
X-0016903970Y-0005465470D01*
X-0016912020Y-0005478170D01*
X-0016926500Y-0005484530D01*
X-0016965100D01*
G01X-0016835560Y-0005410440D02*
Y-0005537440D01*
X-0016771220D01*
G01X-0016579700D02*
Y-0005410440D01*
X-0016547530D01*
X-0016534660Y-0005416790D01*
X-0016525010Y-0005425260D01*
X-0016516960Y-0005437950D01*
X-0016510530Y-0005452780D01*
X-0016508920Y-0005473940D01*
X-0016510530Y-0005495110D01*
X-0016516960Y-0005509930D01*
X-0016525010Y-0005522630D01*
X-0016534660Y-0005531090D01*
X-0016547530Y-0005537440D01*
X-0016579700D01*
G01X-0016382600D02*
X-0016446940D01*
Y-0005410440D01*
X-0016382600D01*
G01X-0016408340Y-0005471820D02*
X-0016446940D01*
G01X-0016249840Y-0005421020D02*
X-0016259490Y-0005414670D01*
X-0016270750Y-0005410440D01*
X-0016283620D01*
X-0016298100Y-0005416790D01*
X-0016309360Y-0005427370D01*
X-0016317400Y-0005440070D01*
X-0016323840Y-0005461240D01*
X-0016325450Y-0005480290D01*
X-0016322230Y-0005499340D01*
X-0016317400Y-0005512040D01*
X-0016307750Y-0005524740D01*
X-0016296490Y-0005533210D01*
X-0016285230Y-0005537440D01*
X-0016273970D01*
X-0016262710Y-0005533210D01*
X-0016253060Y-0005526860D01*
X-0016245010Y-0005518390D01*
G01X-0016174990Y-0005410440D02*
X-0016136390D01*
G01X-0016155690D02*
Y-0005537440D01*
G01X-0016174990D02*
X-0016136390D01*
G01X-0016067980D02*
Y-0005410440D01*
X-0016026150Y-0005516270D01*
X-0015984320Y-0005410440D01*
Y-0005537440D01*
G01X-0015936830D02*
X-0015896610Y-0005410440D01*
X-0015856390Y-0005537440D01*
G01X-0015870870Y-0005492990D02*
X-0015922350D01*
G01X-0015799240Y-0005410440D02*
Y-0005537440D01*
X-0015734900D01*
G01X-0015671310Y-0005520510D02*
X-0015658440Y-0005531090D01*
X-0015643960Y-0005537440D01*
X-0015631100D01*
X-0015618230Y-0005531090D01*
X-0015608570Y-0005520510D01*
X-0015603750Y-0005505690D01*
X-0015606960Y-0005490880D01*
X-0015615010Y-0005478170D01*
X-0015629490Y-0005469710D01*
X-0015648790Y-0005465470D01*
X-0015660050Y-0005457010D01*
X-0015664880Y-0005442190D01*
X-0015661660Y-0005427370D01*
X-0015653620Y-0005416790D01*
X-0015642360Y-0005410440D01*
X-0015631100D01*
X-0015619830Y-0005414670D01*
X-0015610180Y-0005425260D01*
G01X-0015396150Y-0005495110D02*
X-0015357540D01*
G01X-0015378450Y-0005467590D02*
Y-0005522630D01*
G01X-0017222580Y-0005050610D02*
X-0017212920Y-0005037910D01*
X-0017201660Y-0005031560D01*
X-0017188790Y-0005029440D01*
X-0017172710Y-0005033670D01*
X-0017161440Y-0005044260D01*
X-0017158230Y-0005056950D01*
X-0017159840Y-0005069660D01*
X-0017166270Y-0005080240D01*
X-0017198440Y-0005101410D01*
X-0017212920Y-0005116220D01*
X-0017222580Y-0005137390D01*
X-0017225790Y-0005156440D01*
X-0017158230D01*
G01X-0016965100D02*
Y-0005029440D01*
X-0016926500D01*
X-0016913630Y-0005035790D01*
X-0016903970Y-0005050610D01*
X-0016900760Y-0005067540D01*
X-0016903970Y-0005084470D01*
X-0016912020Y-0005097170D01*
X-0016926500Y-0005103530D01*
X-0016965100D01*
G01X-0016835560Y-0005029440D02*
Y-0005156440D01*
X-0016771220D01*
G01X-0016579700D02*
Y-0005029440D01*
X-0016547530D01*
X-0016534660Y-0005035790D01*
X-0016525010Y-0005044260D01*
X-0016516960Y-0005056950D01*
X-0016510530Y-0005071780D01*
X-0016508920Y-0005092940D01*
X-0016510530Y-0005114110D01*
X-0016516960Y-0005128930D01*
X-0016525010Y-0005141630D01*
X-0016534660Y-0005150090D01*
X-0016547530Y-0005156440D01*
X-0016579700D01*
G01X-0016382600D02*
X-0016446940D01*
Y-0005029440D01*
X-0016382600D01*
G01X-0016408340Y-0005090820D02*
X-0016446940D01*
G01X-0016249840Y-0005040020D02*
X-0016259490Y-0005033670D01*
X-0016270750Y-0005029440D01*
X-0016283620D01*
X-0016298100Y-0005035790D01*
X-0016309360Y-0005046370D01*
X-0016317400Y-0005059070D01*
X-0016323840Y-0005080240D01*
X-0016325450Y-0005099290D01*
X-0016322230Y-0005118340D01*
X-0016317400Y-0005131040D01*
X-0016307750Y-0005143740D01*
X-0016296490Y-0005152210D01*
X-0016285230Y-0005156440D01*
X-0016273970D01*
X-0016262710Y-0005152210D01*
X-0016253060Y-0005145860D01*
X-0016245010Y-0005137390D01*
G01X-0016174990Y-0005029440D02*
X-0016136390D01*
G01X-0016155690D02*
Y-0005156440D01*
G01X-0016174990D02*
X-0016136390D01*
G01X-0016067980D02*
Y-0005029440D01*
X-0016026150Y-0005135270D01*
X-0015984320Y-0005029440D01*
Y-0005156440D01*
G01X-0015936830D02*
X-0015896610Y-0005029440D01*
X-0015856390Y-0005156440D01*
G01X-0015870870Y-0005111990D02*
X-0015922350D01*
G01X-0015799240Y-0005029440D02*
Y-0005156440D01*
X-0015734900D01*
G01X-0015671310Y-0005139510D02*
X-0015658440Y-0005150090D01*
X-0015643960Y-0005156440D01*
X-0015631100D01*
X-0015618230Y-0005150090D01*
X-0015608570Y-0005139510D01*
X-0015603750Y-0005124690D01*
X-0015606960Y-0005109880D01*
X-0015615010Y-0005097170D01*
X-0015629490Y-0005088710D01*
X-0015648790Y-0005084470D01*
X-0015660050Y-0005076010D01*
X-0015664880Y-0005061190D01*
X-0015661660Y-0005046370D01*
X-0015653620Y-0005035790D01*
X-0015642360Y-0005029440D01*
X-0015631100D01*
X-0015619830Y-0005033670D01*
X-0015610180Y-0005044260D01*
G01X-0015396150Y-0005114110D02*
X-0015357540D01*
G01X-0015378450Y-0005086590D02*
Y-0005141630D01*
G01X-0017192010Y-0004648440D02*
Y-0004775440D01*
G01X-0017229010Y-0004648440D02*
X-0017155010D01*
G01X-0017062470Y-0004775440D02*
X-0017075340Y-0004773320D01*
X-0017086600Y-0004764860D01*
X-0017096250Y-0004752160D01*
X-0017102690Y-0004737340D01*
X-0017105910Y-0004720410D01*
Y-0004703470D01*
X-0017102690Y-0004686540D01*
X-0017096250Y-0004671720D01*
X-0017086600Y-0004659020D01*
X-0017075340Y-0004650560D01*
X-0017062470Y-0004648440D01*
X-0017049600Y-0004650560D01*
X-0017038340Y-0004659020D01*
X-0017028690Y-0004671720D01*
X-0017022250Y-0004686540D01*
X-0017019030Y-0004703470D01*
Y-0004720410D01*
X-0017022250Y-0004737340D01*
X-0017028690Y-0004752160D01*
X-0017038340Y-0004764860D01*
X-0017049600Y-0004773320D01*
X-0017062470Y-0004775440D01*
G01X-0016965100Y-0004648440D02*
Y-0004775440D01*
X-0016900760D01*
G01X-0016771220D02*
X-0016835560D01*
Y-0004648440D01*
X-0016771220D01*
G01X-0016796960Y-0004709820D02*
X-0016835560D01*
G01X-0016706020Y-0004775440D02*
Y-0004648440D01*
X-0016665810D01*
X-0016652940Y-0004654790D01*
X-0016644890Y-0004663260D01*
X-0016641680Y-0004680190D01*
X-0016644890Y-0004697120D01*
X-0016654550Y-0004707710D01*
X-0016665810Y-0004714060D01*
X-0016706020D01*
G01X-0016665810D02*
X-0016641680Y-0004775440D01*
G01X-0016584530D02*
X-0016544310Y-0004648440D01*
X-0016504090Y-0004775440D01*
G01X-0016518570Y-0004730990D02*
X-0016570050D01*
G01X-0016451770Y-0004775440D02*
Y-0004648440D01*
X-0016377770Y-0004775440D01*
Y-0004648440D01*
G01X-0016249840Y-0004659020D02*
X-0016259490Y-0004652670D01*
X-0016270750Y-0004648440D01*
X-0016283620D01*
X-0016298100Y-0004654790D01*
X-0016309360Y-0004665370D01*
X-0016317400Y-0004678070D01*
X-0016323840Y-0004699240D01*
X-0016325450Y-0004718290D01*
X-0016322230Y-0004737340D01*
X-0016317400Y-0004750040D01*
X-0016307750Y-0004762740D01*
X-0016296490Y-0004771210D01*
X-0016285230Y-0004775440D01*
X-0016273970D01*
X-0016262710Y-0004771210D01*
X-0016253060Y-0004764860D01*
X-0016245010Y-0004756390D01*
G01X-0016123520Y-0004775440D02*
X-0016187860D01*
Y-0004648440D01*
X-0016123520D01*
G01X-0016149260Y-0004709820D02*
X-0016187860D01*
G01X-0016059930Y-0004758510D02*
X-0016047060Y-0004769090D01*
X-0016032580Y-0004775440D01*
X-0016019720D01*
X-0016006850Y-0004769090D01*
X-0015997190Y-0004758510D01*
X-0015992370Y-0004743690D01*
X-0015995580Y-0004728880D01*
X-0016003630Y-0004716170D01*
X-0016018110Y-0004707710D01*
X-0016037410Y-0004703470D01*
X-0016048670Y-0004695010D01*
X-0016053500Y-0004680190D01*
X-0016050280Y-0004665370D01*
X-0016042240Y-0004654790D01*
X-0016030980Y-0004648440D01*
X-0016019720D01*
X-0016008450Y-0004652670D01*
X-0015998800Y-0004663260D01*
G01X-0015767070Y-0004775440D02*
X-0015779940Y-0004773320D01*
X-0015791200Y-0004764860D01*
X-0015800850Y-0004752160D01*
X-0015807290Y-0004737340D01*
X-0015810510Y-0004720410D01*
Y-0004703470D01*
X-0015807290Y-0004686540D01*
X-0015800850Y-0004671720D01*
X-0015791200Y-0004659020D01*
X-0015779940Y-0004650560D01*
X-0015767070Y-0004648440D01*
X-0015754200Y-0004650560D01*
X-0015742940Y-0004659020D01*
X-0015733290Y-0004671720D01*
X-0015726850Y-0004686540D01*
X-0015723630Y-0004703470D01*
Y-0004720410D01*
X-0015726850Y-0004737340D01*
X-0015733290Y-0004752160D01*
X-0015742940Y-0004764860D01*
X-0015754200Y-0004773320D01*
X-0015767070Y-0004775440D01*
G01X-0015674530D02*
Y-0004648440D01*
X-0015600530Y-0004775440D01*
Y-0004648440D01*
G01X-0015507990Y-0004779670D02*
X-0015511210Y-0004777560D01*
Y-0004773320D01*
X-0015507990Y-0004771210D01*
X-0015504770Y-0004773320D01*
Y-0004777560D01*
X-0015507990Y-0004779670D01*
G01Y-0004722530D02*
X-0015511210Y-0004720410D01*
Y-0004716170D01*
X-0015507990Y-0004714060D01*
X-0015504770Y-0004716170D01*
Y-0004720410D01*
X-0015507990Y-0004722530D01*
G01X-0017227400Y-0004330940D02*
Y-0004203940D01*
X-0017195230D01*
X-0017182360Y-0004210290D01*
X-0017172710Y-0004218760D01*
X-0017164660Y-0004231450D01*
X-0017158230Y-0004246280D01*
X-0017156620Y-0004267440D01*
X-0017158230Y-0004288610D01*
X-0017164660Y-0004303430D01*
X-0017172710Y-0004316130D01*
X-0017182360Y-0004324590D01*
X-0017195230Y-0004330940D01*
X-0017227400D01*
G01X-0017081770Y-0004203940D02*
X-0017043170D01*
G01X-0017062470D02*
Y-0004330940D01*
G01X-0017081770D02*
X-0017043170D01*
G01X-0016974760D02*
Y-0004203940D01*
X-0016932930Y-0004309770D01*
X-0016891100Y-0004203940D01*
Y-0004330940D01*
G01X-0016771220D02*
X-0016835560D01*
Y-0004203940D01*
X-0016771220D01*
G01X-0016796960Y-0004265320D02*
X-0016835560D01*
G01X-0016710850Y-0004330940D02*
Y-0004203940D01*
X-0016636850Y-0004330940D01*
Y-0004203940D01*
G01X-0016578090Y-0004314010D02*
X-0016565220Y-0004324590D01*
X-0016550740Y-0004330940D01*
X-0016537880D01*
X-0016525010Y-0004324590D01*
X-0016515350Y-0004314010D01*
X-0016510530Y-0004299190D01*
X-0016513740Y-0004284380D01*
X-0016521790Y-0004271670D01*
X-0016536270Y-0004263210D01*
X-0016555570Y-0004258970D01*
X-0016566830Y-0004250510D01*
X-0016571660Y-0004235690D01*
X-0016568440Y-0004220870D01*
X-0016560400Y-0004210290D01*
X-0016549140Y-0004203940D01*
X-0016537880D01*
X-0016526610Y-0004208170D01*
X-0016516960Y-0004218760D01*
G01X-0016434070Y-0004203940D02*
X-0016395470D01*
G01X-0016414770D02*
Y-0004330940D01*
G01X-0016434070D02*
X-0016395470D01*
G01X-0016285230D02*
X-0016298100Y-0004328820D01*
X-0016309360Y-0004320360D01*
X-0016319010Y-0004307660D01*
X-0016325450Y-0004292840D01*
X-0016328670Y-0004275910D01*
Y-0004258970D01*
X-0016325450Y-0004242040D01*
X-0016319010Y-0004227220D01*
X-0016309360Y-0004214520D01*
X-0016298100Y-0004206060D01*
X-0016285230Y-0004203940D01*
X-0016272360Y-0004206060D01*
X-0016261100Y-0004214520D01*
X-0016251450Y-0004227220D01*
X-0016245010Y-0004242040D01*
X-0016241790Y-0004258970D01*
Y-0004275910D01*
X-0016245010Y-0004292840D01*
X-0016251450Y-0004307660D01*
X-0016261100Y-0004320360D01*
X-0016272360Y-0004328820D01*
X-0016285230Y-0004330940D01*
G01X-0016192690D02*
Y-0004203940D01*
X-0016118690Y-0004330940D01*
Y-0004203940D01*
G01X-0016059930Y-0004314010D02*
X-0016047060Y-0004324590D01*
X-0016032580Y-0004330940D01*
X-0016019720D01*
X-0016006850Y-0004324590D01*
X-0015997190Y-0004314010D01*
X-0015992370Y-0004299190D01*
X-0015995580Y-0004284380D01*
X-0016003630Y-0004271670D01*
X-0016018110Y-0004263210D01*
X-0016037410Y-0004258970D01*
X-0016048670Y-0004250510D01*
X-0016053500Y-0004235690D01*
X-0016050280Y-0004220870D01*
X-0016042240Y-0004210290D01*
X-0016030980Y-0004203940D01*
X-0016019720D01*
X-0016008450Y-0004208170D01*
X-0015998800Y-0004218760D01*
G01X-0015807290Y-0004330940D02*
X-0015767070Y-0004203940D01*
X-0015726850Y-0004330940D01*
G01X-0015741330Y-0004286490D02*
X-0015792810D01*
G01X-0015669700Y-0004330940D02*
Y-0004203940D01*
X-0015629490D01*
X-0015616620Y-0004210290D01*
X-0015608570Y-0004218760D01*
X-0015605360Y-0004235690D01*
X-0015608570Y-0004252620D01*
X-0015618230Y-0004263210D01*
X-0015629490Y-0004269560D01*
X-0015669700D01*
G01X-0015629490D02*
X-0015605360Y-0004330940D01*
G01X-0015475820D02*
X-0015540160D01*
Y-0004203940D01*
X-0015475820D01*
G01X-0015501560Y-0004265320D02*
X-0015540160D01*
G01X-0015268210Y-0004203940D02*
X-0015229610D01*
G01X-0015248910D02*
Y-0004330940D01*
G01X-0015268210D02*
X-0015229610D01*
G01X-0015156370D02*
Y-0004203940D01*
X-0015082370Y-0004330940D01*
Y-0004203940D01*
G01X-0014902120Y-0004330940D02*
Y-0004203940D01*
X-0014860290Y-0004309770D01*
X-0014818460Y-0004203940D01*
Y-0004330940D01*
G01X-0014750050Y-0004203940D02*
X-0014711450D01*
G01X-0014730750D02*
Y-0004330940D01*
G01X-0014750050D02*
X-0014711450D01*
G01X-0014633380Y-0004203940D02*
Y-0004330940D01*
X-0014569040D01*
G01X-0014513500D02*
Y-0004203940D01*
X-0014471670Y-0004309770D01*
X-0014429840Y-0004203940D01*
Y-0004330940D01*
G01X-0014309960D02*
X-0014374300D01*
Y-0004203940D01*
X-0014309960D01*
G01X-0014335700Y-0004265320D02*
X-0014374300D01*
G01X-0014212590Y-0004203940D02*
Y-0004330940D01*
G01X-0014249590Y-0004203940D02*
X-0014175590D01*
G01X-0014115220Y-0004330940D02*
Y-0004203940D01*
X-0014075010D01*
X-0014062140Y-0004210290D01*
X-0014054090Y-0004218760D01*
X-0014050880Y-0004235690D01*
X-0014054090Y-0004252620D01*
X-0014063750Y-0004263210D01*
X-0014075010Y-0004269560D01*
X-0014115220D01*
G01X-0014075010D02*
X-0014050880Y-0004330940D01*
G01X-0013921340D02*
X-0013985680D01*
Y-0004203940D01*
X-0013921340D01*
G01X-0013947080Y-0004265320D02*
X-0013985680D01*
G01X-0013857750Y-0004314010D02*
X-0013844880Y-0004324590D01*
X-0013830400Y-0004330940D01*
X-0013817540D01*
X-0013804670Y-0004324590D01*
X-0013795010Y-0004314010D01*
X-0013790190Y-0004299190D01*
X-0013793400Y-0004284380D01*
X-0013801450Y-0004271670D01*
X-0013815930Y-0004263210D01*
X-0013835230Y-0004258970D01*
X-0013846490Y-0004250510D01*
X-0013851320Y-0004235690D01*
X-0013848100Y-0004220870D01*
X-0013840060Y-0004210290D01*
X-0013828800Y-0004203940D01*
X-0013817540D01*
X-0013806270Y-0004208170D01*
X-0013796620Y-0004218760D01*
G01X-0017430770Y-0003949940D02*
X-0008286770D01*
G01X-0017227400Y-0003505440D02*
Y-0003596460D01*
X-0017220970Y-0003615510D01*
X-0017208100Y-0003628210D01*
X-0017192010Y-0003632440D01*
X-0017175920Y-0003628210D01*
X-0017163050Y-0003615510D01*
X-0017156620Y-0003596460D01*
Y-0003505440D01*
G01X-0017099470Y-0003632440D02*
Y-0003505440D01*
X-0017025470Y-0003632440D01*
Y-0003505440D01*
G01X-0016965100D02*
Y-0003632440D01*
X-0016900760D01*
G01X-0016771220D02*
X-0016835560D01*
Y-0003505440D01*
X-0016771220D01*
G01X-0016796960Y-0003566820D02*
X-0016835560D01*
G01X-0016707630Y-0003615510D02*
X-0016694760Y-0003626090D01*
X-0016680280Y-0003632440D01*
X-0016667420D01*
X-0016654550Y-0003626090D01*
X-0016644890Y-0003615510D01*
X-0016640070Y-0003600690D01*
X-0016643280Y-0003585880D01*
X-0016651330Y-0003573170D01*
X-0016665810Y-0003564710D01*
X-0016685110Y-0003560470D01*
X-0016696370Y-0003552010D01*
X-0016701200Y-0003537190D01*
X-0016697980Y-0003522370D01*
X-0016689940Y-0003511790D01*
X-0016678680Y-0003505440D01*
X-0016667420D01*
X-0016656150Y-0003509670D01*
X-0016646500Y-0003520260D01*
G01X-0016578090Y-0003615510D02*
X-0016565220Y-0003626090D01*
X-0016550740Y-0003632440D01*
X-0016537880D01*
X-0016525010Y-0003626090D01*
X-0016515350Y-0003615510D01*
X-0016510530Y-0003600690D01*
X-0016513740Y-0003585880D01*
X-0016521790Y-0003573170D01*
X-0016536270Y-0003564710D01*
X-0016555570Y-0003560470D01*
X-0016566830Y-0003552010D01*
X-0016571660Y-0003537190D01*
X-0016568440Y-0003522370D01*
X-0016560400Y-0003511790D01*
X-0016549140Y-0003505440D01*
X-0016537880D01*
X-0016526610Y-0003509670D01*
X-0016516960Y-0003520260D01*
G01X-0016285230Y-0003632440D02*
X-0016298100Y-0003630320D01*
X-0016309360Y-0003621860D01*
X-0016319010Y-0003609160D01*
X-0016325450Y-0003594340D01*
X-0016328670Y-0003577410D01*
Y-0003560470D01*
X-0016325450Y-0003543540D01*
X-0016319010Y-0003528720D01*
X-0016309360Y-0003516020D01*
X-0016298100Y-0003507560D01*
X-0016285230Y-0003505440D01*
X-0016272360Y-0003507560D01*
X-0016261100Y-0003516020D01*
X-0016251450Y-0003528720D01*
X-0016245010Y-0003543540D01*
X-0016241790Y-0003560470D01*
Y-0003577410D01*
X-0016245010Y-0003594340D01*
X-0016251450Y-0003609160D01*
X-0016261100Y-0003621860D01*
X-0016272360Y-0003630320D01*
X-0016285230Y-0003632440D01*
G01X-0016155690Y-0003505440D02*
Y-0003632440D01*
G01X-0016192690Y-0003505440D02*
X-0016118690D01*
G01X-0016059930Y-0003632440D02*
Y-0003505440D01*
G01X-0015992370D02*
Y-0003632440D01*
G01Y-0003568940D02*
X-0016059930D01*
G01X-0015864440Y-0003632440D02*
X-0015928780D01*
Y-0003505440D01*
X-0015864440D01*
G01X-0015890180Y-0003566820D02*
X-0015928780D01*
G01X-0015799240Y-0003632440D02*
Y-0003505440D01*
X-0015759030D01*
X-0015746160Y-0003511790D01*
X-0015738110Y-0003520260D01*
X-0015734900Y-0003537190D01*
X-0015738110Y-0003554120D01*
X-0015747770Y-0003564710D01*
X-0015759030Y-0003571060D01*
X-0015799240D01*
G01X-0015759030D02*
X-0015734900Y-0003632440D01*
G01X-0015685790Y-0003505440D02*
X-0015663270Y-0003632440D01*
X-0015637530Y-0003505440D01*
X-0015611790Y-0003632440D01*
X-0015589270Y-0003505440D01*
G01X-0015527290D02*
X-0015488690D01*
G01X-0015507990D02*
Y-0003632440D01*
G01X-0015527290D02*
X-0015488690D01*
G01X-0015412230Y-0003615510D02*
X-0015399360Y-0003626090D01*
X-0015384880Y-0003632440D01*
X-0015372020D01*
X-0015359150Y-0003626090D01*
X-0015349490Y-0003615510D01*
X-0015344670Y-0003600690D01*
X-0015347880Y-0003585880D01*
X-0015355930Y-0003573170D01*
X-0015370410Y-0003564710D01*
X-0015389710Y-0003560470D01*
X-0015400970Y-0003552010D01*
X-0015405800Y-0003537190D01*
X-0015402580Y-0003522370D01*
X-0015394540Y-0003511790D01*
X-0015383280Y-0003505440D01*
X-0015372020D01*
X-0015360750Y-0003509670D01*
X-0015351100Y-0003520260D01*
G01X-0015216740Y-0003632440D02*
X-0015281080D01*
Y-0003505440D01*
X-0015216740D01*
G01X-0015242480Y-0003566820D02*
X-0015281080D01*
G01X-0015023610Y-0003615510D02*
X-0015010740Y-0003626090D01*
X-0014996260Y-0003632440D01*
X-0014983400D01*
X-0014970530Y-0003626090D01*
X-0014960870Y-0003615510D01*
X-0014956050Y-0003600690D01*
X-0014959260Y-0003585880D01*
X-0014967310Y-0003573170D01*
X-0014981790Y-0003564710D01*
X-0015001090Y-0003560470D01*
X-0015012350Y-0003552010D01*
X-0015017180Y-0003537190D01*
X-0015013960Y-0003522370D01*
X-0015005920Y-0003511790D01*
X-0014994660Y-0003505440D01*
X-0014983400D01*
X-0014972130Y-0003509670D01*
X-0014962480Y-0003520260D01*
G01X-0014892460Y-0003632440D02*
Y-0003505440D01*
X-0014853860D01*
X-0014840990Y-0003511790D01*
X-0014831330Y-0003526610D01*
X-0014828120Y-0003543540D01*
X-0014831330Y-0003560470D01*
X-0014839380Y-0003573170D01*
X-0014853860Y-0003579530D01*
X-0014892460D01*
G01X-0014698580Y-0003632440D02*
X-0014762920D01*
Y-0003505440D01*
X-0014698580D01*
G01X-0014724320Y-0003566820D02*
X-0014762920D01*
G01X-0014565820Y-0003516020D02*
X-0014575470Y-0003509670D01*
X-0014586730Y-0003505440D01*
X-0014599600D01*
X-0014614080Y-0003511790D01*
X-0014625340Y-0003522370D01*
X-0014633380Y-0003535070D01*
X-0014639820Y-0003556240D01*
X-0014641430Y-0003575290D01*
X-0014638210Y-0003594340D01*
X-0014633380Y-0003607040D01*
X-0014623730Y-0003619740D01*
X-0014612470Y-0003628210D01*
X-0014601210Y-0003632440D01*
X-0014589950D01*
X-0014578690Y-0003628210D01*
X-0014569040Y-0003621860D01*
X-0014560990Y-0003613390D01*
G01X-0014490970Y-0003505440D02*
X-0014452370D01*
G01X-0014471670D02*
Y-0003632440D01*
G01X-0014490970D02*
X-0014452370D01*
G01X-0014372700D02*
Y-0003505440D01*
X-0014311560D01*
G01X-0014334090Y-0003566820D02*
X-0014372700D01*
G01X-0014231890Y-0003505440D02*
X-0014193290D01*
G01X-0014212590D02*
Y-0003632440D01*
G01X-0014231890D02*
X-0014193290D01*
G01X-0014050880D02*
X-0014115220D01*
Y-0003505440D01*
X-0014050880D01*
G01X-0014076620Y-0003566820D02*
X-0014115220D01*
G01X-0013988900Y-0003632440D02*
Y-0003505440D01*
X-0013956730D01*
X-0013943860Y-0003511790D01*
X-0013934210Y-0003520260D01*
X-0013926160Y-0003532950D01*
X-0013919730Y-0003547780D01*
X-0013918120Y-0003568940D01*
X-0013919730Y-0003590110D01*
X-0013926160Y-0003604930D01*
X-0013934210Y-0003617630D01*
X-0013943860Y-0003626090D01*
X-0013956730Y-0003632440D01*
X-0013988900D01*
G01X-0016553100Y-0000778420D02*
X-0017356180Y-0000777700D01*
G01X-0017102800Y0003019730D02*
X-0017106180Y-0000777930D01*
G01X-0017168320Y-0000377870D02*
X-0017106180Y-0000777930D01*
X-0017043320Y-0000377980D01*
X-0017168320Y-0000377870D01*
G01X-0017102800Y0003019730D02*
X-0017099610Y0006600710D01*
G01X-0017037470Y0006200660D02*
X-0017099610Y0006600710D01*
X-0017162470Y0006200770D01*
X-0017037470Y0006200660D01*
G01X-0016546580Y0006600220D02*
X-0017349610Y0006600930D01*
G01X-0016567770Y0002655900D02*
X-0016636550Y0002663840D01*
X-0016694750Y0002675710D01*
X-0016747660Y0002691500D01*
X-0016805850Y0002711240D01*
X-0016885190Y0002742800D01*
X-0016885330Y0002585320D01*
G01X-0016631060Y0002892180D02*
X-0016593990Y0002915770D01*
X-0016572800Y0002947240D01*
X-0016567480Y0002982680D01*
X-0016572740Y0003014180D01*
X-0016599170Y0003045700D01*
X-0016630900Y0003065410D01*
X-0016662650Y0003069370D01*
X-0016699690Y0003061540D01*
X-0016726180Y0003034000D01*
X-0016736800Y0003006450D01*
X-0016736830Y0002971010D01*
G01X-0016736800Y0003006450D02*
X-0016752650Y0003030090D01*
X-0016779080Y0003049800D01*
X-0016810830Y0003057700D01*
X-0016842590Y0003049850D01*
X-0016869060Y0003030190D01*
X-0016884970Y0002994770D01*
X-0016879710Y0002959330D01*
X-0016858570Y0002923880D01*
G01X-0016556620Y0003293690D02*
X-0016561920Y0003285820D01*
X-0016572500Y0003285830D01*
X-0016577790Y0003293710D01*
X-0016572490Y0003301580D01*
X-0016561910Y0003301570D01*
X-0016556620Y0003293690D01*
G01X-0016566920Y0003608660D02*
X-0016572190Y0003636220D01*
X-0016588030Y0003667730D01*
X-0016614470Y0003687440D01*
X-0016651520Y0003695350D01*
X-0016688560Y0003687510D01*
X-0016720330Y0003663910D01*
X-0016736240Y0003628500D01*
X-0016736280Y0003589130D01*
X-0016746880Y0003565510D01*
X-0016773350Y0003545850D01*
X-0016810400Y0003538010D01*
X-0016847430Y0003549860D01*
X-0016873870Y0003577430D01*
X-0016884420Y0003608940D01*
X-0016873820Y0003640430D01*
X-0016847330Y0003667960D01*
X-0016810270Y0003679750D01*
X-0016773240Y0003671830D01*
X-0016746800Y0003652130D01*
X-0016736240Y0003628500D01*
X-0016736280Y0003589130D01*
X-0016720430Y0003553680D01*
X-0016688700Y0003530030D01*
X-0016651670Y0003522120D01*
X-0016614610Y0003529960D01*
X-0016588140Y0003549630D01*
X-0016572240Y0003581110D01*
X-0016566920Y0003608660D01*
G01X-0016300000Y0006600000D02*
Y-0000780000D01*
X-0004900000D01*
X-0004420000Y-0000300000D01*
X0001090000D01*
Y0006600000D01*
X-0011140000D01*
Y0004700000D01*
X-0014950000D01*
Y0006600000D01*
X-0016300000D01*
G01X-0015933810Y0000468550D02*
Y0000405050D01*
X-0015906710D01*
G01X-0015879280D02*
Y0000468550D01*
G01X-0015853540D02*
X-0015879280Y0000429390D01*
G01X-0015849480Y0000405050D02*
X-0015867770Y0000447380D01*
G01X-0015823400Y0000417750D02*
X-0015819340Y0000410340D01*
X-0015813920Y0000406110D01*
X-0015807820Y0000405050D01*
X-0015802400Y0000406110D01*
X-0015796980Y0000411400D01*
X-0015793600Y0000417750D01*
X-0015792920Y0000424100D01*
X-0015794280Y0000431510D01*
X-0015799020Y0000436800D01*
X-0015803760Y0000438920D01*
X-0015809850D01*
G01X-0015803760D02*
X-0015799690Y0000442090D01*
X-0015796310Y0000447380D01*
X-0015794950Y0000453730D01*
X-0015796310Y0000460080D01*
X-0015799690Y0000465370D01*
X-0015805790Y0000468550D01*
X-0015811890Y0000467490D01*
X-0015817980Y0000463260D01*
G01X-0015933810Y0006750260D02*
Y0006686760D01*
X-0015906710D01*
G01X-0015879280D02*
Y0006750260D01*
G01X-0015853540D02*
X-0015879280Y0006711100D01*
G01X-0015849480Y0006686760D02*
X-0015867770Y0006729090D01*
G01X-0015800370Y0006686760D02*
Y0006750260D01*
X-0015825430Y0006704750D01*
X-0015791570D01*
G01X-0016296580Y0006850000D02*
Y0007575290D01*
G01X-0007984790Y0007325290D02*
X-0016296580D01*
G01X-0015896580Y0007387790D02*
X-0016296580Y0007325290D01*
X-0015896580Y0007262790D01*
Y0007387790D01*
G01X-0013620770Y-0003187940D02*
Y-0007759940D01*
G01Y-0006870940D02*
X-0008286770D01*
G01X-0013620770Y-0006235940D02*
X-0008286770D01*
G01X-0013208400Y-0005201260D02*
X-0013176900Y-0005227710D01*
X-0013141470Y-0005243580D01*
X-0013109970D01*
X-0013078480Y-0005227710D01*
X-0013054850Y-0005201260D01*
X-0013043040Y-0005164200D01*
X-0013050910Y-0005127170D01*
X-0013070600Y-0005095420D01*
X-0013106040Y-0005074240D01*
X-0013153280Y-0005063660D01*
X-0013180840Y-0005042500D01*
X-0013192650Y-0005005460D01*
X-0013184770Y-0004968410D01*
X-0013165090Y-0004941960D01*
X-0013137530Y-0004926080D01*
X-0013109970D01*
X-0013082410Y-0004936660D01*
X-0013058790Y-0004963120D01*
G01X-0012810760Y-0005254160D02*
X-0012818640Y-0005248870D01*
Y-0005238290D01*
X-0012810760Y-0005233000D01*
X-0012802880Y-0005238290D01*
Y-0005248870D01*
X-0012810760Y-0005254160D01*
G01X-0012586350Y-0005243580D02*
Y-0004926080D01*
X-0012405250Y-0005243580D01*
Y-0004926080D01*
G01X-0012109970Y-0005243580D02*
Y-0005031920D01*
G01Y-0005068950D02*
X-0012125720Y-0005047790D01*
X-0012149350Y-0005037210D01*
X-0012176900Y-0005031920D01*
X-0012204460Y-0005042500D01*
X-0012228080Y-0005063660D01*
X-0012243840Y-0005095420D01*
X-0012251710Y-0005137750D01*
X-0012243840Y-0005180080D01*
X-0012228080Y-0005211840D01*
X-0012204460Y-0005233000D01*
X-0012176900Y-0005243580D01*
X-0012149350Y-0005238290D01*
X-0012125720Y-0005222420D01*
X-0012109970Y-0005201260D01*
G01X-0011924930Y-0005206550D02*
X-0011905250Y-0005227710D01*
X-0011877690Y-0005243580D01*
X-0011854070D01*
X-0011830440Y-0005233000D01*
X-0011814700Y-0005217130D01*
X-0011806830Y-0005195970D01*
X-0011810760Y-0005164200D01*
X-0011826510Y-0005148330D01*
X-0011897380Y-0005116590D01*
X-0011913120Y-0005079530D01*
X-0011905250Y-0005053080D01*
X-0011889500Y-0005037210D01*
X-0011865880Y-0005031920D01*
X-0011842260Y-0005037210D01*
X-0011818640Y-0005053080D01*
G01X-0011617850Y-0005243580D02*
Y-0004926080D01*
G01Y-0005079530D02*
X-0011598160Y-0005053080D01*
X-0011578480Y-0005037210D01*
X-0011546980Y-0005031920D01*
X-0011523360Y-0005037210D01*
X-0011495800Y-0005058370D01*
X-0011483990Y-0005090130D01*
Y-0005243580D01*
G01X-0013620770Y-0005473940D02*
X-0008286770D01*
G01X-0013228190Y-0004418580D02*
Y-0004101080D01*
X-0013149460D01*
X-0013117960Y-0004116960D01*
X-0013094340Y-0004138120D01*
X-0013074650Y-0004169870D01*
X-0013058900Y-0004206920D01*
X-0013054970Y-0004259830D01*
X-0013058900Y-0004312750D01*
X-0013074650Y-0004349790D01*
X-0013094340Y-0004381550D01*
X-0013117960Y-0004402710D01*
X-0013149460Y-0004418580D01*
X-0013228190D01*
G01X-0012826620Y-0004429160D02*
X-0012834500Y-0004423870D01*
Y-0004413290D01*
X-0012826620Y-0004408000D01*
X-0012818740Y-0004413290D01*
Y-0004423870D01*
X-0012826620Y-0004429160D01*
G01X-0012425050Y-0004127540D02*
X-0012448670Y-0004111660D01*
X-0012476220Y-0004101080D01*
X-0012507720D01*
X-0012543160Y-0004116960D01*
X-0012570710Y-0004143410D01*
X-0012590400Y-0004175170D01*
X-0012606150Y-0004228080D01*
X-0012610090Y-0004275710D01*
X-0012602210Y-0004323330D01*
X-0012590400Y-0004355080D01*
X-0012566780Y-0004386840D01*
X-0012539220Y-0004408000D01*
X-0012511660Y-0004418580D01*
X-0012484100D01*
X-0012456540Y-0004408000D01*
X-0012432920Y-0004392130D01*
X-0012413230Y-0004370970D01*
G01X-0012263630Y-0004206920D02*
Y-0004355080D01*
X-0012247880Y-0004392130D01*
X-0012224260Y-0004413290D01*
X-0012196700Y-0004418580D01*
X-0012169140Y-0004413290D01*
X-0012145520Y-0004392130D01*
X-0012129770Y-0004355080D01*
G01Y-0004418580D02*
Y-0004206920D01*
G01X-0011940790Y-0004381550D02*
X-0011921110Y-0004402710D01*
X-0011893550Y-0004418580D01*
X-0011869930D01*
X-0011846300Y-0004408000D01*
X-0011830560Y-0004392130D01*
X-0011822690Y-0004370970D01*
X-0011826620Y-0004339200D01*
X-0011842370Y-0004323330D01*
X-0011913240Y-0004291590D01*
X-0011928980Y-0004254530D01*
X-0011921110Y-0004228080D01*
X-0011905360Y-0004212210D01*
X-0011881740Y-0004206920D01*
X-0011858120Y-0004212210D01*
X-0011834500Y-0004228080D01*
G01X-0011625830Y-0004381550D02*
X-0011606150Y-0004402710D01*
X-0011578590Y-0004418580D01*
X-0011554970D01*
X-0011531340Y-0004408000D01*
X-0011515600Y-0004392130D01*
X-0011507730Y-0004370970D01*
X-0011511660Y-0004339200D01*
X-0011527410Y-0004323330D01*
X-0011598280Y-0004291590D01*
X-0011614020Y-0004254530D01*
X-0011606150Y-0004228080D01*
X-0011590400Y-0004212210D01*
X-0011566780Y-0004206920D01*
X-0011543160Y-0004212210D01*
X-0011519540Y-0004228080D01*
G01X-0011180950Y-0004418580D02*
Y-0004206920D01*
G01Y-0004243950D02*
X-0011196700Y-0004222790D01*
X-0011220330Y-0004212210D01*
X-0011247880Y-0004206920D01*
X-0011275440Y-0004217500D01*
X-0011299060Y-0004238660D01*
X-0011314820Y-0004270420D01*
X-0011322690Y-0004312750D01*
X-0011314820Y-0004355080D01*
X-0011299060Y-0004386840D01*
X-0011275440Y-0004408000D01*
X-0011247880Y-0004418580D01*
X-0011220330Y-0004413290D01*
X-0011196700Y-0004397420D01*
X-0011180950Y-0004376260D01*
G01X-0011003790Y-0004418580D02*
Y-0004206920D01*
G01Y-0004259830D02*
X-0010988040Y-0004233370D01*
X-0010964420Y-0004212210D01*
X-0010932920Y-0004206920D01*
X-0010905370Y-0004212210D01*
X-0010881740Y-0004233370D01*
X-0010869930Y-0004270420D01*
Y-0004418580D01*
G01X-0010680950Y-0004381550D02*
X-0010661270Y-0004402710D01*
X-0010633710Y-0004418580D01*
X-0010610090D01*
X-0010586460Y-0004408000D01*
X-0010570720Y-0004392130D01*
X-0010562850Y-0004370970D01*
X-0010566780Y-0004339200D01*
X-0010582530Y-0004323330D01*
X-0010653400Y-0004291590D01*
X-0010669140Y-0004254530D01*
X-0010661270Y-0004228080D01*
X-0010645520Y-0004212210D01*
X-0010621900Y-0004206920D01*
X-0010598280Y-0004212210D01*
X-0010574660Y-0004228080D01*
G01X-0013620770Y-0004711940D02*
X-0008286770D01*
G01X-0012523360Y-0003611110D02*
X-0012507450Y-0003624440D01*
X-0012489540Y-0003632440D01*
X-0012473620D01*
X-0012457700Y-0003624440D01*
X-0012445760Y-0003611110D01*
X-0012439800Y-0003592430D01*
X-0012443780Y-0003573770D01*
X-0012453730Y-0003557770D01*
X-0012471630Y-0003547090D01*
X-0012495510Y-0003541760D01*
X-0012509430Y-0003531100D01*
X-0012515410Y-0003512430D01*
X-0012511420Y-0003493760D01*
X-0012501480Y-0003480420D01*
X-0012487550Y-0003472420D01*
X-0012473620D01*
X-0012459690Y-0003477750D01*
X-0012447750Y-0003491090D01*
G01X-0012345440Y-0003472420D02*
X-0012297690D01*
G01X-0012321560D02*
Y-0003632440D01*
G01X-0012345440D02*
X-0012297690D01*
G01X-0012149600Y-0003552430D02*
X-0012109810D01*
Y-0003600440D01*
X-0012121750Y-0003616440D01*
X-0012135670Y-0003627110D01*
X-0012155570Y-0003632440D01*
X-0012175470Y-0003627110D01*
X-0012189390Y-0003616440D01*
X-0012201330Y-0003600440D01*
X-0012209290Y-0003581770D01*
X-0012213270Y-0003560430D01*
Y-0003541760D01*
X-0012209290Y-0003525760D01*
X-0012201330Y-0003507090D01*
X-0012189390Y-0003491090D01*
X-0012177460Y-0003480420D01*
X-0012161540Y-0003472420D01*
X-0012147610D01*
X-0012131700Y-0003477750D01*
X-0012119760Y-0003488420D01*
G01X-0012047280Y-0003632440D02*
Y-0003472420D01*
X-0011955760Y-0003632440D01*
Y-0003472420D01*
G01X-0011891240Y-0003632440D02*
X-0011841500Y-0003472420D01*
X-0011791760Y-0003632440D01*
G01X-0011809670Y-0003576440D02*
X-0011873340D01*
G01X-0011681480Y-0003472420D02*
Y-0003632440D01*
G01X-0011727240Y-0003472420D02*
X-0011635720D01*
G01X-0011565230D02*
Y-0003587100D01*
X-0011557280Y-0003611110D01*
X-0011541360Y-0003627110D01*
X-0011521460Y-0003632440D01*
X-0011501560Y-0003627110D01*
X-0011485640Y-0003611110D01*
X-0011477690Y-0003587100D01*
Y-0003472420D01*
G01X-0011401230Y-0003632440D02*
Y-0003472420D01*
X-0011351490D01*
X-0011335570Y-0003480420D01*
X-0011325620Y-0003491090D01*
X-0011321650Y-0003512430D01*
X-0011325620Y-0003533760D01*
X-0011337560Y-0003547090D01*
X-0011351490Y-0003555100D01*
X-0011401230D01*
G01X-0011351490D02*
X-0011321650Y-0003632440D01*
G01X-0011161630D02*
X-0011241210D01*
Y-0003472420D01*
X-0011161630D01*
G01X-0011193460Y-0003549760D02*
X-0011241210D01*
G01X-0011083180Y-0003611110D02*
X-0011067270Y-0003624440D01*
X-0011049360Y-0003632440D01*
X-0011033440D01*
X-0011017520Y-0003624440D01*
X-0011005580Y-0003611110D01*
X-0010999620Y-0003592430D01*
X-0011003600Y-0003573770D01*
X-0011013550Y-0003557770D01*
X-0011031450Y-0003547090D01*
X-0011055330Y-0003541760D01*
X-0011069250Y-0003531100D01*
X-0011075230Y-0003512430D01*
X-0011071240Y-0003493760D01*
X-0011061300Y-0003480420D01*
X-0011047370Y-0003472420D01*
X-0011033440D01*
X-0011019510Y-0003477750D01*
X-0011007570Y-0003491090D01*
G01X-0010318770Y-0006172440D02*
Y-0006235940D01*
G01Y-0006172440D02*
Y-0003187940D01*
G01X-0010382270Y0016941560D02*
Y0016179560D01*
G01Y0019227560D02*
Y0016941560D01*
G01X-0010223520Y0017957560D02*
Y0018211560D01*
X-0010144150D01*
X-0010118750Y0018198850D01*
X-0010102870Y0018181930D01*
X-0010096520Y0018148060D01*
X-0010102870Y0018114190D01*
X-0010121920Y0018093030D01*
X-0010144150Y0018080320D01*
X-0010223520D01*
G01X-0010144150D02*
X-0010096520Y0017957560D01*
G01X-0009842520D02*
X-0009969520D01*
Y0018211560D01*
X-0009842520D01*
G01X-0009893320Y0018088800D02*
X-0009969520D01*
G01X-0009731400Y0018211560D02*
X-0009652020Y0017957560D01*
X-0009572640Y0018211560D01*
G01X-0010382270Y0017703560D02*
X0002317730D01*
G01X-0010382270Y0018465560D02*
X0002317730D01*
G01X-0009667850Y-0003632440D02*
Y-0003472420D01*
X-0009628060D01*
X-0009612140Y-0003480420D01*
X-0009600200Y-0003491090D01*
X-0009590250Y-0003507090D01*
X-0009582300Y-0003525760D01*
X-0009580310Y-0003552430D01*
X-0009582300Y-0003579100D01*
X-0009590250Y-0003597770D01*
X-0009600200Y-0003613770D01*
X-0009612140Y-0003624440D01*
X-0009628060Y-0003632440D01*
X-0009667850D01*
G01X-0009513800D02*
X-0009464060Y-0003472420D01*
X-0009414320Y-0003632440D01*
G01X-0009432230Y-0003576440D02*
X-0009495900D01*
G01X-0009304040Y-0003472420D02*
Y-0003632440D01*
G01X-0009349800Y-0003472420D02*
X-0009258280D01*
G01X-0009104230Y-0003632440D02*
X-0009183810D01*
Y-0003472420D01*
X-0009104230D01*
G01X-0009136060Y-0003549760D02*
X-0009183810D01*
G01X-0009366270Y0016941560D02*
Y0016179560D01*
G01Y0016941560D02*
Y0018465560D01*
G01X-0008286770Y-0003187940D02*
Y-0007759940D01*
G01X-0001936770Y-0006997940D02*
X-0008286770D01*
G01X0002381230Y-0005981940D02*
X-0008286770D01*
G01X0002381230Y-0004457940D02*
X-0008286770D01*
G01X-0008614710Y0007484040D02*
Y0007801540D01*
X-0008661950Y0007738040D01*
G01Y0007484040D02*
X-0008567470D01*
G01X-0008307630D02*
X-0008299750Y0007552830D01*
X-0008287940Y0007611030D01*
X-0008272190Y0007663960D01*
X-0008252510Y0007722160D01*
X-0008221010Y0007801540D01*
X-0008378490D01*
G01X-0008071400Y0007547540D02*
X-0008047790Y0007510490D01*
X-0008016290Y0007489330D01*
X-0007980850Y0007484040D01*
X-0007949350Y0007489330D01*
X-0007917860Y0007515780D01*
X-0007898180Y0007547540D01*
X-0007894240Y0007579290D01*
X-0007902110Y0007616320D01*
X-0007929670Y0007642790D01*
X-0007957230Y0007653380D01*
X-0007992670D01*
G01X-0007957230D02*
X-0007933610Y0007669250D01*
X-0007913920Y0007695700D01*
X-0007906050Y0007727450D01*
X-0007913920Y0007759210D01*
X-0007933610Y0007785660D01*
X-0007969040Y0007801540D01*
X-0008004470Y0007796250D01*
X-0008039910Y0007775080D01*
G01X-0007669830Y0007473460D02*
X-0007677710Y0007478750D01*
Y0007489330D01*
X-0007669830Y0007494620D01*
X-0007661950Y0007489330D01*
Y0007478750D01*
X-0007669830Y0007473460D01*
G01X-0007421800Y0007521070D02*
X-0007394240Y0007494620D01*
X-0007362750Y0007484040D01*
X-0007331250Y0007494620D01*
X-0007303690Y0007526360D01*
X-0007284000Y0007574000D01*
X-0007276130Y0007621620D01*
Y0007679830D01*
X-0007284000Y0007727450D01*
X-0007303690Y0007769790D01*
X-0007327310Y0007790960D01*
X-0007354870Y0007801540D01*
X-0007386370Y0007790960D01*
X-0007409990Y0007769790D01*
X-0007425740Y0007738040D01*
X-0007433610Y0007695700D01*
X-0007425740Y0007658670D01*
X-0007406050Y0007621620D01*
X-0007382430Y0007600450D01*
X-0007354870Y0007595160D01*
X-0007323380Y0007605740D01*
X-0007299750Y0007632200D01*
X-0007276130Y0007679830D01*
G01X-0008131200Y-0007345080D02*
X-0008105790Y-0007366240D01*
X-0008077220Y-0007378940D01*
X-0008051820D01*
X-0008026420Y-0007366240D01*
X-0008007370Y-0007345080D01*
X-0007997840Y-0007315440D01*
X-0008004190Y-0007285810D01*
X-0008020070Y-0007260410D01*
X-0008048650Y-0007243470D01*
X-0008086740Y-0007235010D01*
X-0008108970Y-0007218080D01*
X-0008118500Y-0007188440D01*
X-0008112140Y-0007158810D01*
X-0008096270Y-0007137650D01*
X-0008074050Y-0007124940D01*
X-0008051820D01*
X-0008029590Y-0007133400D01*
X-0008010540Y-0007154570D01*
G01X-0007740670Y-0007146110D02*
X-0007759720Y-0007133400D01*
X-0007781940Y-0007124940D01*
X-0007807340D01*
X-0007835920Y-0007137650D01*
X-0007858140Y-0007158810D01*
X-0007874020Y-0007184210D01*
X-0007886720Y-0007226540D01*
X-0007889900Y-0007264640D01*
X-0007883540Y-0007302740D01*
X-0007874020Y-0007328140D01*
X-0007854970Y-0007353550D01*
X-0007832740Y-0007370480D01*
X-0007810520Y-0007378940D01*
X-0007788300D01*
X-0007766070Y-0007370480D01*
X-0007747020Y-0007357780D01*
X-0007731140Y-0007340850D01*
G01X-0007635900Y-0007378940D02*
X-0007556520Y-0007124940D01*
X-0007477140Y-0007378940D01*
G01X-0007505720Y-0007290040D02*
X-0007607320D01*
G01X-0007366020Y-0007124940D02*
Y-0007378940D01*
X-0007239020D01*
G01X-0006985020D02*
X-0007112020D01*
Y-0007124940D01*
X-0006985020D01*
G01X-0007035820Y-0007247700D02*
X-0007112020D01*
G01X-0008131200Y-0006329080D02*
X-0008105790Y-0006350240D01*
X-0008077220Y-0006362940D01*
X-0008051820D01*
X-0008026420Y-0006350240D01*
X-0008007370Y-0006329080D01*
X-0007997840Y-0006299440D01*
X-0008004190Y-0006269810D01*
X-0008020070Y-0006244410D01*
X-0008048650Y-0006227470D01*
X-0008086740Y-0006219010D01*
X-0008108970Y-0006202080D01*
X-0008118500Y-0006172440D01*
X-0008112140Y-0006142810D01*
X-0008096270Y-0006121650D01*
X-0008074050Y-0006108940D01*
X-0008051820D01*
X-0008029590Y-0006117400D01*
X-0008010540Y-0006138570D01*
G01X-0007848620Y-0006108940D02*
X-0007772430D01*
G01X-0007810520D02*
Y-0006362940D01*
G01X-0007848620D02*
X-0007772430D01*
G01X-0007616850Y-0006108940D02*
X-0007496190D01*
X-0007616850Y-0006362940D01*
X-0007496190D01*
G01X-0007239020D02*
X-0007366020D01*
Y-0006108940D01*
X-0007239020D01*
G01X-0007289820Y-0006231700D02*
X-0007366020D01*
G01X-0007984790Y0007325290D02*
X0001089720D01*
G01X-0007562870Y0017957560D02*
Y0018211560D01*
X-0007499370D01*
X-0007473970Y0018198850D01*
X-0007454920Y0018181930D01*
X-0007439040Y0018156530D01*
X-0007426340Y0018126890D01*
X-0007423170Y0018084560D01*
X-0007426340Y0018042220D01*
X-0007439040Y0018012590D01*
X-0007454920Y0017987190D01*
X-0007473970Y0017970260D01*
X-0007499370Y0017957560D01*
X-0007562870D01*
G01X-0007175520D02*
X-0007302520D01*
Y0018211560D01*
X-0007175520D01*
G01X-0007226320Y0018088800D02*
X-0007302520D01*
G01X-0007051700Y0017991420D02*
X-0007026290Y0017970260D01*
X-0006997720Y0017957560D01*
X-0006972320D01*
X-0006946920Y0017970260D01*
X-0006927870Y0017991420D01*
X-0006918340Y0018021060D01*
X-0006924690Y0018050690D01*
X-0006940570Y0018076090D01*
X-0006969150Y0018093030D01*
X-0007007240Y0018101490D01*
X-0007029470Y0018118420D01*
X-0007039000Y0018148060D01*
X-0007032640Y0018177690D01*
X-0007016770Y0018198850D01*
X-0006994550Y0018211560D01*
X-0006972320D01*
X-0006950090Y0018203100D01*
X-0006931040Y0018181930D01*
G01X-0006661170Y0018190390D02*
X-0006680220Y0018203100D01*
X-0006702440Y0018211560D01*
X-0006727840D01*
X-0006756420Y0018198850D01*
X-0006778640Y0018177690D01*
X-0006794520Y0018152290D01*
X-0006807220Y0018109960D01*
X-0006810400Y0018071860D01*
X-0006804040Y0018033760D01*
X-0006794520Y0018008360D01*
X-0006775470Y0017982950D01*
X-0006753240Y0017966020D01*
X-0006731020Y0017957560D01*
X-0006708800D01*
X-0006686570Y0017966020D01*
X-0006667520Y0017978720D01*
X-0006651640Y0017995650D01*
G01X-0006540520Y0017957560D02*
Y0018211560D01*
X-0006461150D01*
X-0006435750Y0018198850D01*
X-0006419870Y0018181930D01*
X-0006413520Y0018148060D01*
X-0006419870Y0018114190D01*
X-0006438920Y0018093030D01*
X-0006461150Y0018080320D01*
X-0006540520D01*
G01X-0006461150D02*
X-0006413520Y0017957560D01*
G01X-0006261120Y0018211560D02*
X-0006184930D01*
G01X-0006223020D02*
Y0017957560D01*
G01X-0006261120D02*
X-0006184930D01*
G01X-0006032520D02*
Y0018211560D01*
X-0005956320D01*
X-0005930920Y0018198850D01*
X-0005911870Y0018169230D01*
X-0005905520Y0018135360D01*
X-0005911870Y0018101490D01*
X-0005927750Y0018076090D01*
X-0005956320Y0018063390D01*
X-0006032520D01*
G01X-0005715020Y0018211560D02*
Y0017957560D01*
G01X-0005788040Y0018211560D02*
X-0005642000D01*
G01X-0005499120D02*
X-0005422930D01*
G01X-0005461020D02*
Y0017957560D01*
G01X-0005499120D02*
X-0005422930D01*
G01X-0005207020D02*
X-0005232420Y0017961790D01*
X-0005254640Y0017978720D01*
X-0005273700Y0018004120D01*
X-0005286400Y0018033760D01*
X-0005292750Y0018067630D01*
Y0018101490D01*
X-0005286400Y0018135360D01*
X-0005273700Y0018165000D01*
X-0005254640Y0018190390D01*
X-0005232420Y0018207330D01*
X-0005207020Y0018211560D01*
X-0005181620Y0018207330D01*
X-0005159400Y0018190390D01*
X-0005140340Y0018165000D01*
X-0005127640Y0018135360D01*
X-0005121290Y0018101490D01*
Y0018067630D01*
X-0005127640Y0018033760D01*
X-0005140340Y0018004120D01*
X-0005159400Y0017978720D01*
X-0005181620Y0017961790D01*
X-0005207020Y0017957560D01*
G01X-0005026040D02*
Y0018211560D01*
X-0004880000Y0017957560D01*
Y0018211560D01*
G01X-0007016770Y-0006997940D02*
Y-0005981940D01*
G01X-0006727850Y-0006362940D02*
Y-0006108940D01*
X-0006607190D01*
G01X-0006651650Y-0006231700D02*
X-0006727850D01*
G01X-0006480200Y-0006329080D02*
X-0006454790Y-0006350240D01*
X-0006426220Y-0006362940D01*
X-0006400820D01*
X-0006375420Y-0006350240D01*
X-0006356370Y-0006329080D01*
X-0006346840Y-0006299440D01*
X-0006353190Y-0006269810D01*
X-0006369070Y-0006244410D01*
X-0006397650Y-0006227470D01*
X-0006435740Y-0006219010D01*
X-0006457970Y-0006202080D01*
X-0006467500Y-0006172440D01*
X-0006461140Y-0006142810D01*
X-0006445270Y-0006121650D01*
X-0006423050Y-0006108940D01*
X-0006400820D01*
X-0006378590Y-0006117400D01*
X-0006359540Y-0006138570D01*
G01X-0006089670Y-0006130110D02*
X-0006108720Y-0006117400D01*
X-0006130940Y-0006108940D01*
X-0006156340D01*
X-0006184920Y-0006121650D01*
X-0006207140Y-0006142810D01*
X-0006223020Y-0006168210D01*
X-0006235720Y-0006210540D01*
X-0006238900Y-0006248640D01*
X-0006232540Y-0006286740D01*
X-0006223020Y-0006312140D01*
X-0006203970Y-0006337550D01*
X-0006181740Y-0006354480D01*
X-0006159520Y-0006362940D01*
X-0006137300D01*
X-0006115070Y-0006354480D01*
X-0006096020Y-0006341780D01*
X-0006080140Y-0006324850D01*
G01X-0005988070Y-0006362940D02*
Y-0006108940D01*
X-0005905520Y-0006320610D01*
X-0005822970Y-0006108940D01*
Y-0006362940D01*
G01X-0005470540D02*
Y-0006108940D01*
X-0005324500Y-0006362940D01*
Y-0006108940D01*
G01X-0005143520Y-0006362940D02*
X-0005168920Y-0006358710D01*
X-0005191140Y-0006341780D01*
X-0005210200Y-0006316380D01*
X-0005222900Y-0006286740D01*
X-0005229250Y-0006252870D01*
Y-0006219010D01*
X-0005222900Y-0006185140D01*
X-0005210200Y-0006155500D01*
X-0005191140Y-0006130110D01*
X-0005168920Y-0006113170D01*
X-0005143520Y-0006108940D01*
X-0005118120Y-0006113170D01*
X-0005095900Y-0006130110D01*
X-0005076840Y-0006155500D01*
X-0005064140Y-0006185140D01*
X-0005057790Y-0006219010D01*
Y-0006252870D01*
X-0005064140Y-0006286740D01*
X-0005076840Y-0006316380D01*
X-0005095900Y-0006341780D01*
X-0005118120Y-0006358710D01*
X-0005143520Y-0006362940D01*
G01X-0006637040Y-0005074240D02*
X-0006621290Y-0005058370D01*
X-0006609480Y-0005031920D01*
X-0006601600Y-0004994870D01*
X-0006609480Y-0004963120D01*
X-0006625220Y-0004941960D01*
X-0006652780Y-0004926080D01*
X-0006759080D01*
Y-0005243580D01*
X-0006629160D01*
X-0006601600Y-0005222420D01*
X-0006585850Y-0005190660D01*
X-0006577980Y-0005153620D01*
X-0006585850Y-0005116590D01*
X-0006609480Y-0005084830D01*
X-0006637040Y-0005074240D01*
X-0006759080D01*
G01X-0006408690Y-0005243580D02*
Y-0005031920D01*
G01Y-0005074240D02*
X-0006389010Y-0005053080D01*
X-0006369320Y-0005037210D01*
X-0006341760Y-0005031920D01*
X-0006322080Y-0005037210D01*
X-0006298450Y-0005053080D01*
G01X-0006038610Y-0005031920D02*
Y-0005243580D01*
G01Y-0004947250D02*
X-0006046490Y-0004941960D01*
Y-0004931370D01*
X-0006038610Y-0004926080D01*
X-0006030730Y-0004931370D01*
Y-0004941960D01*
X-0006038610Y-0004947250D01*
G01X-0005782700Y-0005206550D02*
X-0005763020Y-0005227710D01*
X-0005735460Y-0005243580D01*
X-0005711840D01*
X-0005688210Y-0005233000D01*
X-0005672470Y-0005217130D01*
X-0005664600Y-0005195970D01*
X-0005668530Y-0005164200D01*
X-0005684280Y-0005148330D01*
X-0005755150Y-0005116590D01*
X-0005770890Y-0005079530D01*
X-0005763020Y-0005053080D01*
X-0005747270Y-0005037210D01*
X-0005723650Y-0005031920D01*
X-0005700030Y-0005037210D01*
X-0005676410Y-0005053080D01*
G01X-0005408690Y-0004926080D02*
Y-0005243580D01*
G01X-0005463810Y-0005031920D02*
X-0005353570D01*
G01X-0005093730Y-0005243580D02*
X-0005117350Y-0005238290D01*
X-0005140970Y-0005217130D01*
X-0005156730Y-0005180080D01*
X-0005164600Y-0005137750D01*
X-0005156730Y-0005095420D01*
X-0005140970Y-0005058370D01*
X-0005117350Y-0005037210D01*
X-0005093730Y-0005031920D01*
X-0005070110Y-0005037210D01*
X-0005046490Y-0005058370D01*
X-0005030740Y-0005095420D01*
X-0005026800Y-0005137750D01*
X-0005030740Y-0005180080D01*
X-0005046490Y-0005217130D01*
X-0005070110Y-0005238290D01*
X-0005093730Y-0005243580D01*
G01X-0004778770D02*
Y-0004926080D01*
G01X-0004117360Y-0005074240D02*
X-0004101610Y-0005058370D01*
X-0004089800Y-0005031920D01*
X-0004081920Y-0004994870D01*
X-0004089800Y-0004963120D01*
X-0004105540Y-0004941960D01*
X-0004133100Y-0004926080D01*
X-0004239400D01*
Y-0005243580D01*
X-0004109480D01*
X-0004081920Y-0005222420D01*
X-0004066170Y-0005190660D01*
X-0004058300Y-0005153620D01*
X-0004066170Y-0005116590D01*
X-0004089800Y-0005084830D01*
X-0004117360Y-0005074240D01*
X-0004239400D01*
G01X-0003889010Y-0005243580D02*
Y-0005031920D01*
G01Y-0005074240D02*
X-0003869330Y-0005053080D01*
X-0003849640Y-0005037210D01*
X-0003822080Y-0005031920D01*
X-0003802400Y-0005037210D01*
X-0003778770Y-0005053080D01*
G01X-0003518930Y-0005031920D02*
Y-0005243580D01*
G01Y-0004947250D02*
X-0003526810Y-0004941960D01*
Y-0004931370D01*
X-0003518930Y-0004926080D01*
X-0003511050Y-0004931370D01*
Y-0004941960D01*
X-0003518930Y-0004947250D01*
G01X-0003133100Y-0004926080D02*
Y-0005243580D01*
G01Y-0005195970D02*
X-0003148850Y-0005222420D01*
X-0003172480Y-0005238290D01*
X-0003200030Y-0005243580D01*
X-0003231530Y-0005233000D01*
X-0003255150Y-0005206550D01*
X-0003270900Y-0005174790D01*
X-0003274840Y-0005137750D01*
X-0003270900Y-0005100710D01*
X-0003255150Y-0005068950D01*
X-0003231530Y-0005042500D01*
X-0003200030Y-0005031920D01*
X-0003172480Y-0005037210D01*
X-0003152790Y-0005047790D01*
X-0003133100Y-0005068950D01*
G01X-0002944130Y-0005322960D02*
X-0002916570Y-0005344120D01*
X-0002885070Y-0005349410D01*
X-0002857520Y-0005344120D01*
X-0002833890Y-0005317670D01*
X-0002818140Y-0005280620D01*
Y-0005031920D01*
G01Y-0005074240D02*
X-0002833890Y-0005053080D01*
X-0002857520Y-0005037210D01*
X-0002885070Y-0005031920D01*
X-0002916570Y-0005042500D01*
X-0002936250Y-0005063660D01*
X-0002952010Y-0005100710D01*
X-0002959880Y-0005137750D01*
X-0002955940Y-0005169500D01*
X-0002940190Y-0005206550D01*
X-0002916570Y-0005233000D01*
X-0002885070Y-0005243580D01*
X-0002861450Y-0005238290D01*
X-0002833890Y-0005217130D01*
X-0002818140Y-0005195970D01*
G01X-0002633100Y-0005100710D02*
X-0002507120D01*
X-0002518930Y-0005063660D01*
X-0002538610Y-0005042500D01*
X-0002566170Y-0005031920D01*
X-0002593730Y-0005037210D01*
X-0002617360Y-0005053080D01*
X-0002633100Y-0005090130D01*
X-0002640980Y-0005121880D01*
Y-0005153620D01*
X-0002633100Y-0005185370D01*
X-0002613420Y-0005217130D01*
X-0002589800Y-0005238290D01*
X-0002562240Y-0005243580D01*
X-0002534680Y-0005233000D01*
X-0002507120Y-0005201260D01*
G01X-0001912640Y-0005074240D02*
X-0001896890Y-0005058370D01*
X-0001885080Y-0005031920D01*
X-0001877200Y-0004994870D01*
X-0001885080Y-0004963120D01*
X-0001900820Y-0004941960D01*
X-0001928380Y-0004926080D01*
X-0002034680D01*
Y-0005243580D01*
X-0001904760D01*
X-0001877200Y-0005222420D01*
X-0001861450Y-0005190660D01*
X-0001853580Y-0005153620D01*
X-0001861450Y-0005116590D01*
X-0001885080Y-0005084830D01*
X-0001912640Y-0005074240D01*
X-0002034680D01*
G01X-0001629170Y-0005243580D02*
X-0001652790Y-0005238290D01*
X-0001676410Y-0005217130D01*
X-0001692170Y-0005180080D01*
X-0001700040Y-0005137750D01*
X-0001692170Y-0005095420D01*
X-0001676410Y-0005058370D01*
X-0001652790Y-0005037210D01*
X-0001629170Y-0005031920D01*
X-0001605550Y-0005037210D01*
X-0001581930Y-0005058370D01*
X-0001566180Y-0005095420D01*
X-0001562240Y-0005137750D01*
X-0001566180Y-0005180080D01*
X-0001581930Y-0005217130D01*
X-0001605550Y-0005238290D01*
X-0001629170Y-0005243580D01*
G01X-0001243340D02*
Y-0005031920D01*
G01Y-0005068950D02*
X-0001259090Y-0005047790D01*
X-0001282720Y-0005037210D01*
X-0001310270Y-0005031920D01*
X-0001337830Y-0005042500D01*
X-0001361450Y-0005063660D01*
X-0001377210Y-0005095420D01*
X-0001385080Y-0005137750D01*
X-0001377210Y-0005180080D01*
X-0001361450Y-0005211840D01*
X-0001337830Y-0005233000D01*
X-0001310270Y-0005243580D01*
X-0001282720Y-0005238290D01*
X-0001259090Y-0005222420D01*
X-0001243340Y-0005201260D01*
G01X-0001054370Y-0005243580D02*
Y-0005031920D01*
G01Y-0005074240D02*
X-0001034690Y-0005053080D01*
X-0001015000Y-0005037210D01*
X-0000987440Y-0005031920D01*
X-0000967760Y-0005037210D01*
X-0000944130Y-0005053080D01*
G01X-0000613420Y-0004926080D02*
Y-0005243580D01*
G01Y-0005195970D02*
X-0000629170Y-0005222420D01*
X-0000652800Y-0005238290D01*
X-0000680350Y-0005243580D01*
X-0000711850Y-0005233000D01*
X-0000735470Y-0005206550D01*
X-0000751220Y-0005174790D01*
X-0000755160Y-0005137750D01*
X-0000751220Y-0005100710D01*
X-0000735470Y-0005068950D01*
X-0000711850Y-0005042500D01*
X-0000680350Y-0005031920D01*
X-0000652800Y-0005037210D01*
X-0000633110Y-0005047790D01*
X-0000613420Y-0005068950D01*
G01X-0006483370Y-0003695940D02*
Y-0003877970D01*
X-0006470670Y-0003916080D01*
X-0006445270Y-0003941480D01*
X-0006413520Y-0003949940D01*
X-0006381770Y-0003941480D01*
X-0006356370Y-0003916080D01*
X-0006343670Y-0003877970D01*
Y-0003695940D01*
G01X-0006213500Y-0003949940D02*
Y-0003780610D01*
G01Y-0003822940D02*
X-0006200790Y-0003801770D01*
X-0006181740Y-0003784840D01*
X-0006156340Y-0003780610D01*
X-0006134120Y-0003784840D01*
X-0006115070Y-0003801770D01*
X-0006105540Y-0003831410D01*
Y-0003949940D01*
G01X-0005905520Y-0003780610D02*
Y-0003949940D01*
G01Y-0003712880D02*
X-0005911870Y-0003708650D01*
Y-0003700170D01*
X-0005905520Y-0003695940D01*
X-0005899170Y-0003700170D01*
Y-0003708650D01*
X-0005905520Y-0003712880D01*
G01X-0005708670Y-0003780610D02*
X-0005651520Y-0003949940D01*
X-0005594370Y-0003780610D01*
G01X-0005445140Y-0003835640D02*
X-0005343540D01*
X-0005353070Y-0003806010D01*
X-0005368940Y-0003789080D01*
X-0005391170Y-0003780610D01*
X-0005413390Y-0003784840D01*
X-0005432450Y-0003797540D01*
X-0005445140Y-0003827180D01*
X-0005451500Y-0003852580D01*
Y-0003877970D01*
X-0005445140Y-0003903380D01*
X-0005429270Y-0003928780D01*
X-0005410220Y-0003945710D01*
X-0005387990Y-0003949940D01*
X-0005365770Y-0003941480D01*
X-0005343540Y-0003916080D01*
G01X-0005187970Y-0003949940D02*
Y-0003780610D01*
G01Y-0003814470D02*
X-0005172100Y-0003797540D01*
X-0005156220Y-0003784840D01*
X-0005133990Y-0003780610D01*
X-0005118120Y-0003784840D01*
X-0005099070Y-0003797540D01*
G01X-0004937140Y-0003920310D02*
X-0004921270Y-0003937240D01*
X-0004899050Y-0003949940D01*
X-0004879990D01*
X-0004860940Y-0003941480D01*
X-0004848250Y-0003928780D01*
X-0004841900Y-0003911850D01*
X-0004845070Y-0003886440D01*
X-0004857770Y-0003873740D01*
X-0004914920Y-0003848350D01*
X-0004927620Y-0003818700D01*
X-0004921270Y-0003797540D01*
X-0004908570Y-0003784840D01*
X-0004889520Y-0003780610D01*
X-0004870470Y-0003784840D01*
X-0004851420Y-0003797540D01*
G01X-0004635520Y-0003780610D02*
Y-0003949940D01*
G01Y-0003712880D02*
X-0004641870Y-0003708650D01*
Y-0003700170D01*
X-0004635520Y-0003695940D01*
X-0004629170Y-0003700170D01*
Y-0003708650D01*
X-0004635520Y-0003712880D01*
G01X-0004381520Y-0003695940D02*
Y-0003949940D01*
G01X-0004425970Y-0003780610D02*
X-0004337070D01*
G01X-0004194200Y-0004026140D02*
X-0004175140Y-0004034600D01*
X-0004149740Y-0004026140D01*
X-0004133870Y-0004009210D01*
X-0004121170Y-0003988040D01*
X-0004102120Y-0003920310D01*
X-0004060840Y-0003780610D01*
G01X-0004162450D02*
X-0004102120Y-0003920310D01*
G01X-0003619520Y-0003949940D02*
X-0003638570Y-0003945710D01*
X-0003657620Y-0003928780D01*
X-0003670320Y-0003899140D01*
X-0003676670Y-0003865280D01*
X-0003670320Y-0003831410D01*
X-0003657620Y-0003801770D01*
X-0003638570Y-0003784840D01*
X-0003619520Y-0003780610D01*
X-0003600470Y-0003784840D01*
X-0003581420Y-0003801770D01*
X-0003568720Y-0003831410D01*
X-0003565540Y-0003865280D01*
X-0003568720Y-0003899140D01*
X-0003581420Y-0003928780D01*
X-0003600470Y-0003945710D01*
X-0003619520Y-0003949940D01*
G01X-0003384570D02*
Y-0003734040D01*
X-0003378220Y-0003712880D01*
X-0003365520Y-0003700170D01*
X-0003346470Y-0003695940D01*
X-0003327420Y-0003704400D01*
X-0003317900Y-0003725570D01*
G01X-0003355990Y-0003797540D02*
X-0003419500D01*
G01X-0002832120Y-0003814470D02*
X-0002819420Y-0003801770D01*
X-0002809900Y-0003780610D01*
X-0002803540Y-0003750970D01*
X-0002809900Y-0003725570D01*
X-0002822590Y-0003708650D01*
X-0002844820Y-0003695940D01*
X-0002930540D01*
Y-0003949940D01*
X-0002825770D01*
X-0002803540Y-0003933010D01*
X-0002790840Y-0003907610D01*
X-0002784500Y-0003877970D01*
X-0002790840Y-0003848350D01*
X-0002809900Y-0003822940D01*
X-0002832120Y-0003814470D01*
X-0002930540D01*
G01X-0002647970Y-0003949940D02*
Y-0003780610D01*
G01Y-0003814470D02*
X-0002632100Y-0003797540D01*
X-0002616220Y-0003784840D01*
X-0002593990Y-0003780610D01*
X-0002578120Y-0003784840D01*
X-0002559070Y-0003797540D01*
G01X-0002349520Y-0003780610D02*
Y-0003949940D01*
G01Y-0003712880D02*
X-0002355870Y-0003708650D01*
Y-0003700170D01*
X-0002349520Y-0003695940D01*
X-0002343170Y-0003700170D01*
Y-0003708650D01*
X-0002349520Y-0003712880D01*
G01X-0002143140Y-0003920310D02*
X-0002127270Y-0003937240D01*
X-0002105050Y-0003949940D01*
X-0002085990D01*
X-0002066940Y-0003941480D01*
X-0002054250Y-0003928780D01*
X-0002047900Y-0003911850D01*
X-0002051070Y-0003886440D01*
X-0002063770Y-0003873740D01*
X-0002120920Y-0003848350D01*
X-0002133620Y-0003818700D01*
X-0002127270Y-0003797540D01*
X-0002114570Y-0003784840D01*
X-0002095520Y-0003780610D01*
X-0002076470Y-0003784840D01*
X-0002057420Y-0003797540D01*
G01X-0001841520Y-0003695940D02*
Y-0003949940D01*
G01X-0001885970Y-0003780610D02*
X-0001797070D01*
G01X-0001587520Y-0003949940D02*
X-0001606570Y-0003945710D01*
X-0001625620Y-0003928780D01*
X-0001638320Y-0003899140D01*
X-0001644670Y-0003865280D01*
X-0001638320Y-0003831410D01*
X-0001625620Y-0003801770D01*
X-0001606570Y-0003784840D01*
X-0001587520Y-0003780610D01*
X-0001568470Y-0003784840D01*
X-0001549420Y-0003801770D01*
X-0001536720Y-0003831410D01*
X-0001533540Y-0003865280D01*
X-0001536720Y-0003899140D01*
X-0001549420Y-0003928780D01*
X-0001568470Y-0003945710D01*
X-0001587520Y-0003949940D01*
G01X-0001333520D02*
Y-0003695940D01*
G01X-0000892200Y-0003949940D02*
Y-0003695940D01*
G01X-0000758840D02*
Y-0003949940D01*
G01Y-0003822940D02*
X-0000892200D01*
G01X-0000508020Y-0003949940D02*
X-0000635020D01*
Y-0003695940D01*
X-0000508020D01*
G01X-0000558820Y-0003818700D02*
X-0000635020D01*
G01X-0000381020Y-0003949940D02*
Y-0003695940D01*
X-0000304820D01*
X-0000279420Y-0003708650D01*
X-0000260370Y-0003738270D01*
X-0000254020Y-0003772140D01*
X-0000260370Y-0003806010D01*
X-0000276250Y-0003831410D01*
X-0000304820Y-0003844110D01*
X-0000381020D01*
G01X-0006000770Y-0006997940D02*
Y-0007759940D01*
G01X-0004889520Y0018719560D02*
Y0018973560D01*
X-0004810150D01*
X-0004784750Y0018960850D01*
X-0004768870Y0018943930D01*
X-0004762520Y0018910060D01*
X-0004768870Y0018876190D01*
X-0004787920Y0018855030D01*
X-0004810150Y0018842320D01*
X-0004889520D01*
G01X-0004810150D02*
X-0004762520Y0018719560D01*
G01X-0004508520D02*
X-0004635520D01*
Y0018973560D01*
X-0004508520D01*
G01X-0004559320Y0018850800D02*
X-0004635520D01*
G01X-0004397400Y0018973560D02*
X-0004318020Y0018719560D01*
X-0004238640Y0018973560D01*
G01X-0004102120D02*
X-0004025930D01*
G01X-0004064020D02*
Y0018719560D01*
G01X-0004102120D02*
X-0004025930D01*
G01X-0003876700Y0018753420D02*
X-0003851290Y0018732260D01*
X-0003822720Y0018719560D01*
X-0003797320D01*
X-0003771920Y0018732260D01*
X-0003752870Y0018753420D01*
X-0003743340Y0018783060D01*
X-0003749690Y0018812690D01*
X-0003765570Y0018838090D01*
X-0003794150Y0018855030D01*
X-0003832240Y0018863490D01*
X-0003854470Y0018880420D01*
X-0003864000Y0018910060D01*
X-0003857640Y0018939690D01*
X-0003841770Y0018960850D01*
X-0003819550Y0018973560D01*
X-0003797320D01*
X-0003775090Y0018965100D01*
X-0003756040Y0018943930D01*
G01X-0003594120Y0018973560D02*
X-0003517930D01*
G01X-0003556020D02*
Y0018719560D01*
G01X-0003594120D02*
X-0003517930D01*
G01X-0003302020D02*
X-0003327420Y0018723790D01*
X-0003349640Y0018740720D01*
X-0003368700Y0018766120D01*
X-0003381400Y0018795760D01*
X-0003387750Y0018829630D01*
Y0018863490D01*
X-0003381400Y0018897360D01*
X-0003368700Y0018927000D01*
X-0003349640Y0018952390D01*
X-0003327420Y0018969330D01*
X-0003302020Y0018973560D01*
X-0003276620Y0018969330D01*
X-0003254400Y0018952390D01*
X-0003235340Y0018927000D01*
X-0003222640Y0018897360D01*
X-0003216290Y0018863490D01*
Y0018829630D01*
X-0003222640Y0018795760D01*
X-0003235340Y0018766120D01*
X-0003254400Y0018740720D01*
X-0003276620Y0018723790D01*
X-0003302020Y0018719560D01*
G01X-0003121040D02*
Y0018973560D01*
X-0002975000Y0018719560D01*
Y0018973560D01*
G01X-0002860700Y0018753420D02*
X-0002835290Y0018732260D01*
X-0002806720Y0018719560D01*
X-0002781320D01*
X-0002755920Y0018732260D01*
X-0002736870Y0018753420D01*
X-0002727340Y0018783060D01*
X-0002733690Y0018812690D01*
X-0002749570Y0018838090D01*
X-0002778150Y0018855030D01*
X-0002816240Y0018863490D01*
X-0002838470Y0018880420D01*
X-0002848000Y0018910060D01*
X-0002841640Y0018939690D01*
X-0002825770Y0018960850D01*
X-0002803550Y0018973560D01*
X-0002781320D01*
X-0002759090Y0018965100D01*
X-0002740040Y0018943930D01*
G01X-0003968770Y-0006997940D02*
Y-0005981940D01*
G01X-0003689370Y-0006362940D02*
Y-0006108940D01*
X-0003625870D01*
X-0003600470Y-0006121650D01*
X-0003581420Y-0006138570D01*
X-0003565540Y-0006163970D01*
X-0003552840Y-0006193610D01*
X-0003549670Y-0006235940D01*
X-0003552840Y-0006278280D01*
X-0003565540Y-0006307910D01*
X-0003581420Y-0006333310D01*
X-0003600470Y-0006350240D01*
X-0003625870Y-0006362940D01*
X-0003689370D01*
G01X-0003460770Y-0006108940D02*
X-0003416320Y-0006362940D01*
X-0003365520Y-0006108940D01*
X-0003314720Y-0006362940D01*
X-0003270270Y-0006108940D01*
G01X-0003092470Y-0006235940D02*
X-0003028970D01*
Y-0006312140D01*
X-0003048020Y-0006337550D01*
X-0003070250Y-0006354480D01*
X-0003101990Y-0006362940D01*
X-0003133740Y-0006354480D01*
X-0003155970Y-0006337550D01*
X-0003175020Y-0006312140D01*
X-0003187720Y-0006282510D01*
X-0003194070Y-0006248640D01*
Y-0006219010D01*
X-0003187720Y-0006193610D01*
X-0003175020Y-0006163970D01*
X-0003155970Y-0006138570D01*
X-0003136920Y-0006121650D01*
X-0003111520Y-0006108940D01*
X-0003089300D01*
X-0003063900Y-0006117400D01*
X-0003044840Y-0006134340D01*
G01X-0002676540Y-0006362940D02*
Y-0006108940D01*
X-0002530500Y-0006362940D01*
Y-0006108940D01*
G01X-0002349520Y-0006362940D02*
X-0002374920Y-0006358710D01*
X-0002397140Y-0006341780D01*
X-0002416200Y-0006316380D01*
X-0002428900Y-0006286740D01*
X-0002435250Y-0006252870D01*
Y-0006219010D01*
X-0002428900Y-0006185140D01*
X-0002416200Y-0006155500D01*
X-0002397140Y-0006130110D01*
X-0002374920Y-0006113170D01*
X-0002349520Y-0006108940D01*
X-0002324120Y-0006113170D01*
X-0002301900Y-0006130110D01*
X-0002282840Y-0006155500D01*
X-0002270140Y-0006185140D01*
X-0002263790Y-0006219010D01*
Y-0006252870D01*
X-0002270140Y-0006286740D01*
X-0002282840Y-0006316380D01*
X-0002301900Y-0006341780D01*
X-0002324120Y-0006358710D01*
X-0002349520Y-0006362940D01*
G01X-0001936770Y-0007759940D02*
Y-0006997940D01*
X0002381230D01*
G01X-0001908350Y-0006576270D02*
Y-0006258770D01*
X-0001813860D01*
X-0001782370Y-0006274650D01*
X-0001758740Y-0006311690D01*
X-0001750870Y-0006354020D01*
X-0001758740Y-0006396350D01*
X-0001778430Y-0006428110D01*
X-0001813860Y-0006443990D01*
X-0001908350D01*
G01X-0001428040Y-0006285230D02*
X-0001451660Y-0006269350D01*
X-0001479210Y-0006258770D01*
X-0001510710D01*
X-0001546150Y-0006274650D01*
X-0001573700Y-0006301100D01*
X-0001593390Y-0006332860D01*
X-0001609140Y-0006385770D01*
X-0001613080Y-0006433400D01*
X-0001605200Y-0006481020D01*
X-0001593390Y-0006512770D01*
X-0001569770Y-0006544530D01*
X-0001542210Y-0006565690D01*
X-0001514650Y-0006576270D01*
X-0001487090D01*
X-0001459530Y-0006565690D01*
X-0001435910Y-0006549820D01*
X-0001416220Y-0006528660D01*
G01X-0001199690Y-0006258770D02*
X-0001231190Y-0006269350D01*
X-0001254810Y-0006295810D01*
X-0001270560Y-0006327560D01*
X-0001282370Y-0006369900D01*
X-0001286300Y-0006417520D01*
X-0001282370Y-0006465150D01*
X-0001270560Y-0006507480D01*
X-0001254810Y-0006539240D01*
X-0001231190Y-0006565690D01*
X-0001199690Y-0006576270D01*
X-0001168200Y-0006565690D01*
X-0001144570Y-0006539240D01*
X-0001128820Y-0006507480D01*
X-0001117010Y-0006465150D01*
X-0001113080Y-0006417520D01*
X-0001117010Y-0006369900D01*
X-0001128820Y-0006327560D01*
X-0001144570Y-0006295810D01*
X-0001168200Y-0006269350D01*
X-0001199690Y-0006258770D01*
G01X-0000837490Y-0006576270D02*
Y-0006258770D01*
X-0000983160Y-0006486310D01*
X-0000786300D01*
G01X-0000644580Y-0006311690D02*
X-0000620950Y-0006279940D01*
X-0000593390Y-0006264060D01*
X-0000561890Y-0006258770D01*
X-0000522530Y-0006269350D01*
X-0000494960Y-0006295810D01*
X-0000487090Y-0006327560D01*
X-0000491030Y-0006359320D01*
X-0000506780Y-0006385770D01*
X-0000585520Y-0006438690D01*
X-0000620950Y-0006475730D01*
X-0000644580Y-0006528660D01*
X-0000652450Y-0006576270D01*
X-0000487090D01*
G01X-0000353240D02*
X-0000254810Y-0006258770D01*
X-0000156380Y-0006576270D01*
G01X-0000191820Y-0006465150D02*
X-0000317810D01*
G01X-0002508270Y0016941560D02*
Y0016179560D01*
G01Y0016687560D02*
Y0017703560D01*
G01D02*
Y0018465560D01*
G01X-0001654200Y-0007345080D02*
X-0001628790Y-0007366240D01*
X-0001600220Y-0007378940D01*
X-0001574820D01*
X-0001549420Y-0007366240D01*
X-0001530370Y-0007345080D01*
X-0001520840Y-0007315440D01*
X-0001527190Y-0007285810D01*
X-0001543070Y-0007260410D01*
X-0001571650Y-0007243470D01*
X-0001609740Y-0007235010D01*
X-0001631970Y-0007218080D01*
X-0001641500Y-0007188440D01*
X-0001635140Y-0007158810D01*
X-0001619270Y-0007137650D01*
X-0001597050Y-0007124940D01*
X-0001574820D01*
X-0001552590Y-0007133400D01*
X-0001533540Y-0007154570D01*
G01X-0001400200Y-0007378940D02*
Y-0007124940D01*
G01X-0001266840D02*
Y-0007378940D01*
G01Y-0007251940D02*
X-0001400200D01*
G01X-0001016020Y-0007378940D02*
X-0001143020D01*
Y-0007124940D01*
X-0001016020D01*
G01X-0001066820Y-0007247700D02*
X-0001143020D01*
G01X-0000762020Y-0007378940D02*
X-0000889020D01*
Y-0007124940D01*
X-0000762020D01*
G01X-0000812820Y-0007247700D02*
X-0000889020D01*
G01X-0000571520Y-0007124940D02*
Y-0007378940D01*
G01X-0000644540Y-0007124940D02*
X-0000498500D01*
G01X-0001847870Y0017957560D02*
Y0018211560D01*
X-0001784370D01*
X-0001758970Y0018198850D01*
X-0001739920Y0018181930D01*
X-0001724040Y0018156530D01*
X-0001711340Y0018126890D01*
X-0001708170Y0018084560D01*
X-0001711340Y0018042220D01*
X-0001724040Y0018012590D01*
X-0001739920Y0017987190D01*
X-0001758970Y0017970260D01*
X-0001784370Y0017957560D01*
X-0001847870D01*
G01X-0001603400D02*
X-0001524020Y0018211560D01*
X-0001444640Y0017957560D01*
G01X-0001473220Y0018046460D02*
X-0001574820D01*
G01X-0001270020Y0018211560D02*
Y0017957560D01*
G01X-0001343040Y0018211560D02*
X-0001197000D01*
G01X-0000952520Y0017957560D02*
X-0001079520D01*
Y0018211560D01*
X-0000952520D01*
G01X-0001003320Y0018088800D02*
X-0001079520D01*
G01X-0000069430Y0000444500D02*
Y0000381000D01*
X-0000042330D01*
G01X-0000014900D02*
Y0000444500D01*
G01X0000010840D02*
X-0000014900Y0000405340D01*
G01X0000014900Y0000381000D02*
X-0000003390Y0000423330D01*
G01X0000043010Y0000433920D02*
X0000047070Y0000440270D01*
X0000051820Y0000443440D01*
X0000057230Y0000444500D01*
X0000064010Y0000442380D01*
X0000068750Y0000437090D01*
X0000070100Y0000430740D01*
X0000069430Y0000424390D01*
X0000066720Y0000419100D01*
X0000053170Y0000408520D01*
X0000047070Y0000401110D01*
X0000043010Y0000390520D01*
X0000041660Y0000381000D01*
X0000070100D01*
G01X-0000069430Y0006744500D02*
Y0006681000D01*
X-0000042330D01*
G01X-0000014900D02*
Y0006744500D01*
G01X0000010840D02*
X-0000014900Y0006705340D01*
G01X0000014900Y0006681000D02*
X-0000003390Y0006723330D01*
G01X0000055880Y0006681000D02*
Y0006744500D01*
X0000047750Y0006731800D01*
G01Y0006681000D02*
X0000064010D01*
G01X-0000222270Y0016941560D02*
Y0016179560D01*
G01Y0016941560D02*
Y0017703560D01*
G01D02*
Y0018465560D01*
G01X0000153560Y-0007417130D02*
Y-0007099630D01*
X0000106320Y-0007163130D01*
G01Y-0007417130D02*
X0000200800D01*
G01X0000397650Y-0007427710D02*
X0000539390Y-0007099630D01*
G01X0000783480Y-0007417130D02*
Y-0007099630D01*
X0000736240Y-0007163130D01*
G01Y-0007417130D02*
X0000830720D01*
G01X0000047600Y0017957560D02*
X0000126980Y0018211560D01*
X0000206360Y0017957560D01*
G01X0000177780Y0018046460D02*
X0000076180D01*
G01X0000317480Y0017957560D02*
Y0018211560D01*
X0000393680D01*
X0000419080Y0018198850D01*
X0000438130Y0018169230D01*
X0000444480Y0018135360D01*
X0000438130Y0018101490D01*
X0000422250Y0018076090D01*
X0000393680Y0018063390D01*
X0000317480D01*
G01X0000571480Y0017957560D02*
Y0018211560D01*
X0000647680D01*
X0000673080Y0018198850D01*
X0000692130Y0018169230D01*
X0000698480Y0018135360D01*
X0000692130Y0018101490D01*
X0000676250Y0018076090D01*
X0000647680Y0018063390D01*
X0000571480D01*
G01X0000825480Y0017957560D02*
Y0018211560D01*
X0000904850D01*
X0000930250Y0018198850D01*
X0000946130Y0018181930D01*
X0000952480Y0018148060D01*
X0000946130Y0018114190D01*
X0000927080Y0018093030D01*
X0000904850Y0018080320D01*
X0000825480D01*
G01X0000904850D02*
X0000952480Y0017957560D01*
G01X0001142980D02*
X0001117580Y0017961790D01*
X0001095360Y0017978720D01*
X0001076300Y0018004120D01*
X0001063600Y0018033760D01*
X0001057250Y0018067630D01*
Y0018101490D01*
X0001063600Y0018135360D01*
X0001076300Y0018165000D01*
X0001095360Y0018190390D01*
X0001117580Y0018207330D01*
X0001142980Y0018211560D01*
X0001168380Y0018207330D01*
X0001190600Y0018190390D01*
X0001209660Y0018165000D01*
X0001222360Y0018135360D01*
X0001228710Y0018101490D01*
Y0018067630D01*
X0001222360Y0018033760D01*
X0001209660Y0018004120D01*
X0001190600Y0017978720D01*
X0001168380Y0017961790D01*
X0001142980Y0017957560D01*
G01X0001317600Y0018211560D02*
X0001396980Y0017957560D01*
X0001476360Y0018211560D01*
G01X0001714480Y0017957560D02*
X0001587480D01*
Y0018211560D01*
X0001714480D01*
G01X0001663680Y0018088800D02*
X0001587480D01*
G01X0001835130Y0017957560D02*
Y0018211560D01*
X0001898630D01*
X0001924030Y0018198850D01*
X0001943080Y0018181930D01*
X0001958960Y0018156530D01*
X0001971660Y0018126890D01*
X0001974830Y0018084560D01*
X0001971660Y0018042220D01*
X0001958960Y0018012590D01*
X0001943080Y0017987190D01*
X0001924030Y0017970260D01*
X0001898630Y0017957560D01*
X0001835130D01*
G01X0001090000Y-0000300000D02*
Y0006600000D01*
G01X0001089720Y0006850000D02*
Y0007575290D01*
G01X0000689720Y0007262790D02*
X0001089720Y0007325290D01*
X0000689720Y0007387790D01*
Y0007262790D01*
G01X0001340000Y-0000300000D02*
X0002570000D01*
G01X0001750910Y0003300000D02*
Y-0000300000D01*
G01X0001674530Y0000086120D02*
X0001737030Y-0000313880D01*
X0001799530Y0000086120D01*
X0001674530D01*
G01X0001468010Y0003060680D02*
X0001430950Y0003088250D01*
X0001409790Y0003111870D01*
X0001399210Y0003143370D01*
X0001409790Y0003170930D01*
X0001430950Y0003190610D01*
X0001462710Y0003206360D01*
X0001499750Y0003210300D01*
X0001531500Y0003206360D01*
X0001563260Y0003190610D01*
X0001589710Y0003166980D01*
X0001600290Y0003139430D01*
X0001589710Y0003107930D01*
X0001557970Y0003080370D01*
X0001510330Y0003064620D01*
X0001457420Y0003060680D01*
X0001388630Y0003068560D01*
X0001351580Y0003080370D01*
X0001314540Y0003100050D01*
X0001288080Y0003127610D01*
X0001282790Y0003155170D01*
X0001293370Y0003182730D01*
X0001319830Y0003202420D01*
G01X0001563260Y0003383520D02*
X0001589710Y0003411080D01*
X0001600290Y0003442570D01*
X0001589710Y0003474070D01*
X0001557970Y0003501630D01*
X0001510330Y0003521320D01*
X0001462710Y0003529190D01*
X0001404500D01*
X0001356880Y0003521320D01*
X0001314540Y0003501630D01*
X0001293370Y0003478010D01*
X0001282790Y0003450450D01*
X0001293370Y0003418950D01*
X0001314540Y0003395330D01*
X0001346290Y0003379580D01*
X0001388630Y0003371710D01*
X0001425660Y0003379580D01*
X0001462710Y0003399270D01*
X0001483880Y0003422890D01*
X0001489170Y0003450450D01*
X0001478590Y0003481940D01*
X0001452130Y0003505570D01*
X0001404500Y0003529190D01*
G01X0001750910Y0003313880D02*
Y0006613880D01*
G01X0001813410Y0006213880D02*
X0001750910Y0006613880D01*
X0001688410Y0006213880D01*
X0001813410D01*
G01X0001340000Y0006600000D02*
X0002570000D01*
G01X0002317730Y0019100560D02*
Y0016052560D01*
G54D12*
G01X-0012395600Y0001306330D02*
Y0001458730D01*
X-0012358560D01*
X-0012346710Y0001451110D01*
X-0012339300Y0001440950D01*
X-0012336340Y0001420630D01*
X-0012339300Y0001400310D01*
X-0012348190Y0001387610D01*
X-0012358560Y0001379990D01*
X-0012395600D01*
G01X-0012358560D02*
X-0012336340Y0001306330D01*
G01X-0012238970D02*
Y0001458730D01*
X-0012256750Y0001428250D01*
G01Y0001306330D02*
X-0012221190D01*
G01X-0012140120Y0001433330D02*
X-0012131230Y0001448570D01*
X-0012120860Y0001456190D01*
X-0012109010Y0001458730D01*
X-0012094190Y0001453650D01*
X-0012083820Y0001440950D01*
X-0012080850Y0001425710D01*
X-0012082340Y0001410470D01*
X-0012088260Y0001397770D01*
X-0012117900Y0001372370D01*
X-0012131230Y0001354590D01*
X-0012140120Y0001329190D01*
X-0012143090Y0001306330D01*
X-0012080850D01*
G01X-0011980770Y0001350470D02*
X-0012030770Y0001410470D01*
G01X-0011730770Y0001520470D02*
X-0012030770D01*
G01Y0001350470D02*
X-0011730770D01*
G01X-0012030770Y0001520470D02*
Y0001350470D01*
G01X-0011902620Y0002205990D02*
X-0011911510Y0002213610D01*
X-0011921880Y0002218690D01*
X-0011933740D01*
X-0011947070Y0002211070D01*
X-0011957440Y0002198370D01*
X-0011964850Y0002183130D01*
X-0011970780Y0002157730D01*
X-0011972260Y0002134870D01*
X-0011969300Y0002112010D01*
X-0011964850Y0002096770D01*
X-0011955960Y0002081530D01*
X-0011945590Y0002071370D01*
X-0011935220Y0002066290D01*
X-0011924850D01*
X-0011914480Y0002071370D01*
X-0011905590Y0002078990D01*
X-0011898180Y0002089150D01*
G01X-0011833410Y0002084070D02*
X-0011823040Y0002071370D01*
X-0011811180Y0002066290D01*
X-0011799330Y0002071370D01*
X-0011788960Y0002086610D01*
X-0011781550Y0002109470D01*
X-0011778590Y0002132330D01*
Y0002160270D01*
X-0011781550Y0002183130D01*
X-0011788960Y0002203450D01*
X-0011797850Y0002213610D01*
X-0011808220Y0002218690D01*
X-0011820070Y0002213610D01*
X-0011828960Y0002203450D01*
X-0011834890Y0002188210D01*
X-0011837850Y0002167890D01*
X-0011834890Y0002150110D01*
X-0011827480Y0002132330D01*
X-0011818590Y0002122170D01*
X-0011808220Y0002119630D01*
X-0011796370Y0002124710D01*
X-0011787480Y0002137410D01*
X-0011778590Y0002160270D01*
G01X-0011853810Y0001138890D02*
Y0001029670D01*
X-0011847880Y0001006810D01*
X-0011836030Y0000991570D01*
X-0011821210Y0000986490D01*
X-0011806390Y0000991570D01*
X-0011794540Y0001006810D01*
X-0011788610Y0001029670D01*
Y0001138890D01*
G01X-0011726810Y0001016970D02*
X-0011717920Y0000999190D01*
X-0011706060Y0000989030D01*
X-0011692730Y0000986490D01*
X-0011680870Y0000989030D01*
X-0011669020Y0001001730D01*
X-0011661610Y0001016970D01*
X-0011660130Y0001032210D01*
X-0011663090Y0001049990D01*
X-0011673470Y0001062690D01*
X-0011683840Y0001067770D01*
X-0011697170D01*
G01X-0011683840D02*
X-0011674950Y0001075390D01*
X-0011667540Y0001088090D01*
X-0011664580Y0001103330D01*
X-0011667540Y0001118570D01*
X-0011674950Y0001131270D01*
X-0011688280Y0001138890D01*
X-0011701620Y0001136350D01*
X-0011714950Y0001126190D01*
G01X-0011627230Y0001666350D02*
Y0001818750D01*
X-0011590190D01*
X-0011578340Y0001811130D01*
X-0011570930Y0001800970D01*
X-0011567970Y0001780650D01*
X-0011570930Y0001760330D01*
X-0011579820Y0001747630D01*
X-0011590190Y0001740010D01*
X-0011627230D01*
G01X-0011590190D02*
X-0011567970Y0001666350D01*
G01X-0011470600D02*
Y0001818750D01*
X-0011488380Y0001788270D01*
G01Y0001666350D02*
X-0011452820D01*
G01X-0011376200Y0001696830D02*
X-0011367310Y0001679050D01*
X-0011355450Y0001668890D01*
X-0011342120Y0001666350D01*
X-0011330260Y0001668890D01*
X-0011318410Y0001681590D01*
X-0011311000Y0001696830D01*
X-0011309520Y0001712070D01*
X-0011312480Y0001729850D01*
X-0011322860Y0001742550D01*
X-0011333230Y0001747630D01*
X-0011346560D01*
G01X-0011333230D02*
X-0011324340Y0001755250D01*
X-0011316930Y0001767950D01*
X-0011313970Y0001783190D01*
X-0011316930Y0001798430D01*
X-0011324340Y0001811130D01*
X-0011337670Y0001818750D01*
X-0011351010Y0001816210D01*
X-0011364340Y0001806050D01*
G01X-0011730770Y0001520470D02*
Y0001350470D01*
G01X-0011148350Y0003623540D02*
X-0011139460Y0003615920D01*
X-0011129090Y0003610840D01*
X-0011117230D01*
X-0011103900Y0003618460D01*
X-0011093530Y0003631160D01*
X-0011086120Y0003646400D01*
X-0011080190Y0003671800D01*
X-0011078710Y0003694660D01*
X-0011081670Y0003717520D01*
X-0011086120Y0003732760D01*
X-0011095010Y0003748000D01*
X-0011105380Y0003758160D01*
X-0011115750Y0003763240D01*
X-0011126120D01*
X-0011136490Y0003758160D01*
X-0011145380Y0003750540D01*
X-0011152790Y0003740380D01*
G01X-0011210150Y0003732760D02*
X-0011219040Y0003750540D01*
X-0011230900Y0003760700D01*
X-0011244230Y0003763240D01*
X-0011256090Y0003760700D01*
X-0011267940Y0003748000D01*
X-0011275350Y0003732760D01*
X-0011276830Y0003717520D01*
X-0011273870Y0003699740D01*
X-0011263490Y0003687040D01*
X-0011253120Y0003681960D01*
X-0011239790D01*
G01X-0011253120D02*
X-0011262010Y0003674340D01*
X-0011269420Y0003661640D01*
X-0011272380Y0003646400D01*
X-0011269420Y0003631160D01*
X-0011262010Y0003618460D01*
X-0011248680Y0003610840D01*
X-0011235340Y0003613380D01*
X-0011222010Y0003623540D01*
G01X-0009959110Y0001920880D02*
X-0009968000Y0001928500D01*
X-0009978370Y0001933580D01*
X-0009990230D01*
X-0010003560Y0001925960D01*
X-0010013930Y0001913260D01*
X-0010021340Y0001898020D01*
X-0010027270Y0001872620D01*
X-0010028750Y0001849760D01*
X-0010025790Y0001826900D01*
X-0010021340Y0001811660D01*
X-0010012450Y0001796420D01*
X-0010002080Y0001786260D01*
X-0009991710Y0001781180D01*
X-0009981340D01*
X-0009970970Y0001786260D01*
X-0009962080Y0001793880D01*
X-0009954670Y0001804040D01*
G01X-0009867670Y0001781180D02*
X-0009864710Y0001814200D01*
X-0009860260Y0001842140D01*
X-0009854340Y0001867540D01*
X-0009846930Y0001895480D01*
X-0009835080Y0001933580D01*
X-0009894340D01*
G01X-0009073990Y0001841890D02*
X-0009133990Y0001791890D01*
G01X-0009243990Y0002091890D02*
Y0001791890D01*
G01X-0009073990D02*
Y0002091890D01*
G01X-0009243990Y0001791890D02*
X-0009073990D01*
G01X-0009257760Y0002356240D02*
Y0002247020D01*
X-0009251830Y0002224160D01*
X-0009239980Y0002208920D01*
X-0009225160Y0002203840D01*
X-0009210340Y0002208920D01*
X-0009198490Y0002224160D01*
X-0009192560Y0002247020D01*
Y0002356240D01*
G01X-0009126310Y0002330840D02*
X-0009117420Y0002346080D01*
X-0009107050Y0002353700D01*
X-0009095200Y0002356240D01*
X-0009080380Y0002351160D01*
X-0009070010Y0002338460D01*
X-0009067040Y0002323220D01*
X-0009068530Y0002307980D01*
X-0009074450Y0002295280D01*
X-0009104090Y0002269880D01*
X-0009117420Y0002252100D01*
X-0009126310Y0002226700D01*
X-0009129280Y0002203840D01*
X-0009067040D01*
G01X-0009243990Y0002091890D02*
X-0009073990D01*
G01X-0007468940Y0000844340D02*
X-0007621340D01*
Y0000881380D01*
X-0007613720Y0000893230D01*
X-0007603560Y0000900640D01*
X-0007583240Y0000903600D01*
X-0007562920Y0000900640D01*
X-0007550220Y0000891750D01*
X-0007542600Y0000881380D01*
Y0000844340D01*
G01Y0000881380D02*
X-0007468940Y0000903600D01*
G01Y0001000970D02*
X-0007621340D01*
X-0007590860Y0000983190D01*
G01X-0007468940D02*
Y0001018750D01*
G01X-0007621340Y0001127970D02*
X-0007616260Y0001116120D01*
X-0007603560Y0001107230D01*
X-0007588320Y0001101300D01*
X-0007568000Y0001096850D01*
X-0007545140Y0001095370D01*
X-0007522280Y0001096850D01*
X-0007501960Y0001101300D01*
X-0007486720Y0001107230D01*
X-0007474020Y0001116120D01*
X-0007468940Y0001127970D01*
X-0007474020Y0001139820D01*
X-0007486720Y0001148710D01*
X-0007501960Y0001154640D01*
X-0007522280Y0001159090D01*
X-0007545140Y0001160570D01*
X-0007568000Y0001159090D01*
X-0007588320Y0001154640D01*
X-0007603560Y0001148710D01*
X-0007616260Y0001139820D01*
X-0007621340Y0001127970D01*
G01X-0007286890Y0000847140D02*
X-0007439290D01*
Y0000884180D01*
X-0007431670Y0000896030D01*
X-0007421510Y0000903440D01*
X-0007401190Y0000906400D01*
X-0007380870Y0000903440D01*
X-0007368170Y0000894550D01*
X-0007360550Y0000884180D01*
Y0000847140D01*
G01Y0000884180D02*
X-0007286890Y0000906400D01*
G01X-0007304670Y0000978580D02*
X-0007291970Y0000988950D01*
X-0007286890Y0001000810D01*
X-0007291970Y0001012660D01*
X-0007307210Y0001023030D01*
X-0007330070Y0001030440D01*
X-0007352930Y0001033400D01*
X-0007380870D01*
X-0007403730Y0001030440D01*
X-0007424050Y0001023030D01*
X-0007434210Y0001014140D01*
X-0007439290Y0001003770D01*
X-0007434210Y0000991920D01*
X-0007424050Y0000983030D01*
X-0007408810Y0000977100D01*
X-0007388490Y0000974140D01*
X-0007370710Y0000977100D01*
X-0007352930Y0000984510D01*
X-0007342770Y0000993400D01*
X-0007340230Y0001003770D01*
X-0007345310Y0001015620D01*
X-0007358010Y0001024510D01*
X-0007380870Y0001033400D01*
G01X-0000932970Y0001700670D02*
X-0000940590Y0001691780D01*
X-0000945670Y0001681410D01*
Y0001669550D01*
X-0000938050Y0001656220D01*
X-0000925350Y0001645850D01*
X-0000910110Y0001638440D01*
X-0000884710Y0001632510D01*
X-0000861850Y0001631030D01*
X-0000838990Y0001633990D01*
X-0000823750Y0001638440D01*
X-0000808510Y0001647330D01*
X-0000798350Y0001657700D01*
X-0000793270Y0001668070D01*
Y0001678440D01*
X-0000798350Y0001688810D01*
X-0000805970Y0001697700D01*
X-0000816130Y0001705110D01*
G01X-0000793270Y0001795070D02*
X-0000945670D01*
X-0000915190Y0001777290D01*
G01X-0000793270D02*
Y0001812850D01*
G01X-0000920270Y0001893920D02*
X-0000935510Y0001902810D01*
X-0000943130Y0001913180D01*
X-0000945670Y0001925030D01*
X-0000940590Y0001939850D01*
X-0000927890Y0001950220D01*
X-0000912650Y0001953190D01*
X-0000897410Y0001951700D01*
X-0000884710Y0001945780D01*
X-0000859310Y0001916140D01*
X-0000841530Y0001902810D01*
X-0000816130Y0001893920D01*
X-0000793270Y0001890950D01*
Y0001953190D01*
G01X-0000928020Y0005073000D02*
X-0000935640Y0005064110D01*
X-0000940720Y0005053740D01*
Y0005041880D01*
X-0000933100Y0005028550D01*
X-0000920400Y0005018180D01*
X-0000905160Y0005010770D01*
X-0000879760Y0005004840D01*
X-0000856900Y0005003360D01*
X-0000834040Y0005006320D01*
X-0000818800Y0005010770D01*
X-0000803560Y0005019660D01*
X-0000793400Y0005030030D01*
X-0000788320Y0005040400D01*
Y0005050770D01*
X-0000793400Y0005061140D01*
X-0000801020Y0005070030D01*
X-0000811180Y0005077440D01*
G01X-0000788320Y0005167400D02*
X-0000940720D01*
X-0000910240Y0005149620D01*
G01X-0000788320D02*
Y0005185180D01*
G01X-0000818800Y0005261800D02*
X-0000801020Y0005270690D01*
X-0000790860Y0005282550D01*
X-0000788320Y0005295880D01*
X-0000790860Y0005307740D01*
X-0000803560Y0005319590D01*
X-0000818800Y0005327000D01*
X-0000834040Y0005328480D01*
X-0000851820Y0005325520D01*
X-0000864520Y0005315140D01*
X-0000869600Y0005304770D01*
Y0005291440D01*
G01Y0005304770D02*
X-0000877220Y0005313660D01*
X-0000889920Y0005321070D01*
X-0000905160Y0005324030D01*
X-0000920400Y0005321070D01*
X-0000933100Y0005313660D01*
X-0000940720Y0005300330D01*
X-0000938180Y0005286990D01*
X-0000928020Y0005273660D01*
G54D13*
G01X0001020000Y0000667500D02*
G02I-0000010000J0D01*
M02*
