G04 ================== begin FILE IDENTIFICATION RECORD ==================*
G04 Layout Name:  pc042a_toplevel_25.brd*
G04 Film Name:    PC042A_L2*
G04 File Format:  Gerber RS274X*
G04 File Origin:  Cadence Allegro 16.3-S013*
G04 Origin Date:  Mon Sep 19 15:02:02 2011*
G04 *
G04 Layer:  ETCH/L2*
G04 Layer:  PIN/L2*
G04 Layer:  VIA CLASS/L2*
G04 *
G04 Offset:    (0.0000 0.0000)*
G04 Mirror:    No*
G04 Mode:      Positive*
G04 Rotation:  0*
G04 FullContactRelief:  No*
G04 UndefLineWidth:     0.0000*
G04 ================== end FILE IDENTIFICATION RECORD ====================*
%FSAX55Y55*MOMM*%
%IR0*IPPOS*OFA0.00000B0.00000*MIA0B0*SFA1.00000B1.00000*%
%ADD13C,.6096*%
%ADD14C,1.*%
%ADD12C,2.032*%
%ADD11C,1.524*%
%ADD10C,4.445*%
%ADD15C,.2*%
%ADD16C,.2257*%
%ADD17C,1.364*%
%ADD18C,2.2068*%
%ADD19C,2.2784*%
%ADD20C,5.1994*%
G75*
%LPD*%
G75*
G36*
G01X0000189340Y-0000202830D02*
G02X0000182220Y-0000185420I-0000000003J0000010160D01*
G03X-0000182220I-0000182220J0000185420D01*
G02X-0000189340Y-0000202830I-0000007117J-0000007250D01*
G01X-0002051380Y-0000202540D01*
G02X-0002061510Y-0000191540I-0000000003J0000010161D01*
G03X-0002197410Y-0000191790I-0000067961J0000005660D01*
G02X-0002207540Y-0000202830I-0000010123J-0000000879D01*
G01X-0004475900D01*
X-0004973060Y-0000700000D01*
X-0016200000D01*
X-0016200010Y0006500460D01*
X-0016061650D01*
G02X-0016054230Y0006483360I0000000001J-0000010160D01*
G03X-0015674530I0000189850J-0000177600D01*
G02X-0015667110Y0006500460I0000007419J0000006940D01*
G01X-0015294270D01*
G02X-0015287470Y0006482750I-0000000001J-0000010161D01*
G03X-0015100890I0000093290J-0000103470D01*
G02X-0015094090Y0006500460I0000006801J0000007549D01*
G01X-0014994830D01*
Y0004649240D01*
X-0014995340Y0004648730D01*
X-0014994800Y0004648190D01*
X-0011081830D01*
Y0006500000D01*
X-0010996780D01*
G02X-0010989940Y0006482330I-0000000002J-0000010160D01*
G03X-0010802420I0000093760J-0000103050D01*
G02X-0010795580Y0006500000I0000006842J0000007510D01*
G01X-0000192170D01*
G02X-0000184950Y0006482700I-0000000006J-0000010159D01*
G03X0000184950I0000184950J-0000182700D01*
G02X0000192170Y0006500000I0000007226J0000007141D01*
G01X0001000000D01*
Y-0000202830D01*
X0000189340D01*
G37*
%LPC*%
G75*
G36*
G01X-0011243960Y0003267790D02*
G03X-0011233580Y0003257800I0000010160J0000000169D01*
G02X-0011300290Y0003188500I0000001479J-0000068182D01*
G03X-0011310670Y0003198490I-0000010160J-0000000169D01*
G02X-0011243960Y0003267790I-0000001479J0000068182D01*
G37*
G36*
G01X0000054310Y0003650630D02*
G02X0000155690Y0003639370I0000055688J0000039370D01*
G02X0000054310Y0003650630I-0000055688J-0000039370D01*
G37*
G36*
G01X0000338160Y0003541960D02*
G03X0000339000Y0003525950I0000006654J-0000007678D01*
G02X0000255340Y0003521540I-0000038997J-0000055950D01*
G03X0000254500Y0003537550I-0000006654J0000007678D01*
G02X0000338160Y0003541960I0000038997J0000055950D01*
G37*
G36*
G01X0000150700Y0004045280D02*
G03Y0004029230I0000006233J-0000008025D01*
G02X0000069300I-0000040700J-0000054730D01*
G03Y0004045280I-0000006233J0000008025D01*
G02X0000150700I0000040700J0000054720D01*
G37*
G36*
G01X0000654870Y0003919530D02*
G03X0000654620Y0003903640I0000006207J-0000008045D01*
G02X0000572130Y0003904970I-0000042121J-0000053640D01*
G03X0000572380Y0003920860I-0000006207J0000008045D01*
G02X0000654870Y0003919530I0000042121J0000053640D01*
G37*
G36*
G01X0000332900Y0002013110D02*
G03X0000332430Y0001996640I0000005709J-0000008405D01*
G02X0000252600Y0001998890I-0000041473J-0000054140D01*
G03X0000253070Y0002015360I-0000005709J0000008405D01*
G02X0000332900Y0002013110I0000041473J0000054140D01*
G37*
G36*
G01X-0013800310Y0003559190D02*
G03X-0013789330Y0003546830I0000009909J-0000002255D01*
G02X-0013848680Y0003494130I0000007150J-0000067822D01*
G03X-0013859660Y0003506490I-0000009909J0000002255D01*
G02X-0013800310Y0003559190I-0000007150J0000067822D01*
G37*
G36*
G01X0000655860Y0004426410D02*
G03X0000655520Y0004409940I0000005778J-0000008358D01*
G02X0000575650Y0004411590I-0000041077J-0000054441D01*
G03X0000575990Y0004428060I-0000005778J0000008358D01*
G02X0000655860Y0004426410I0000041077J0000054441D01*
G37*
G36*
G01X-0001298460Y0006172770D02*
Y0006172650D01*
X-0001505020D01*
Y0006172770D01*
X-0001683220D01*
Y0006452390D01*
X-0000417380D01*
Y0006172770D01*
X-0001298460D01*
G37*
G36*
G01X0000337350Y0003920650D02*
G03X0000337930Y0003904180I0000006229J-0000008026D01*
G02X0000258150Y0003901350I-0000037930J-0000056680D01*
G03X0000257570Y0003917820I-0000006229J0000008026D01*
G02X0000337350Y0003920650I0000037930J0000056680D01*
G37*
G36*
G01X-0007947370Y0003878610D02*
G02X-0008036980Y0003877310I-0000044059J-0000052059D01*
G03X-0008037200Y0003892630I-0000006781J0000007564D01*
G02X-0007947590Y0003893930I0000044059J0000052059D01*
G03X-0007947370Y0003878610I0000006781J-0000007564D01*
G37*
G54D17*
X-0000688320Y0005279130D03*
X-0011852440Y0003245370D03*
X-0008454610Y0003721160D03*
X-0009680540Y0003714990D03*
X-0009480240Y0002830190D03*
X-0000213090Y0004863500D03*
X-0000217410Y0005244500D03*
X-0002244810Y0000468560D03*
X-0003172450Y0000764850D03*
X-0013782320Y0003144330D03*
X-0009187710Y0004421890D03*
X-0000210000Y0004490000D03*
X-0012990000Y0003610000D03*
X0000100000Y0005498500D03*
X0000296470Y0005117500D03*
X0000299470Y0005371500D03*
X0000291510Y0005625500D03*
X0000617410Y0005498500D03*
X0000312400Y0004609500D03*
X0000296320Y0002764980D03*
X-0000055000Y0005565000D03*
X-0000214910Y0002704620D03*
X-0007789950Y0000810200D03*
X-0008908100Y0002758020D03*
X-0008908930Y0002906310D03*
X-0009028990Y0002128970D03*
X-0009382970Y0002036890D03*
X-0009195010Y0001941890D03*
X-0009292820Y0001753360D03*
X-0009469090Y0001864710D03*
X-0009531000Y0001660180D03*
X-0011595180Y0003852450D03*
X-0011353870Y0001566350D03*
X-0011880770Y0001465830D03*
X-0012321460Y0001658570D03*
X-0012895180Y0003863400D03*
X-0013166710Y0004104760D03*
X-0013037510Y0003199010D03*
X-0013337490Y0004102970D03*
X-0013267790Y0003162250D03*
X-0013360970Y0003034070D03*
X-0013570360D03*
X-0013949530Y0003446130D03*
X-0012000000Y0003610000D03*
X-0008940000Y0003710000D03*
X-0009111570Y0003700000D03*
X-0008734550Y0003710350D03*
X-0014158870Y0003439880D03*
X-0009824720Y0002040000D03*
X-0002125800Y0001033520D03*
X-0001821590Y0000279690D03*
X0000102950Y0005117500D03*
X-0010953300Y0002898940D03*
X0000296670Y0004932670D03*
X-0010837300Y0001547560D03*
X-0000693270Y0001904250D03*
X-0007536720Y0002593030D03*
X-0007383970Y0002307300D03*
G54D18*
X0000200000Y0000430000D03*
X-0000105000Y0005868000D03*
G54D19*
X-0005503680Y0000359840D03*
Y0000105840D03*
X-0006011680Y0000359840D03*
X-0005757680D03*
X-0006011680Y0000105840D03*
X-0005757680D03*
X-0006773680Y0000359840D03*
Y0000105840D03*
X-0006265680D03*
X-0006519680D03*
Y0000359840D03*
X-0006265680D03*
X-0007281680D03*
X-0007027680D03*
X-0007281680Y0000105840D03*
X-0007027680D03*
X-0008043680Y0000359840D03*
X-0007789680D03*
X-0007535680D03*
X-0008043680Y0000105840D03*
X-0007789680D03*
X-0007535680D03*
X-0008551680Y0000359840D03*
X-0008297680D03*
X-0008551680Y0000105840D03*
X-0008297680D03*
X-0010583300Y0000358590D03*
X-0010329300D03*
X-0010583300Y0000104590D03*
X-0010329300D03*
X-0011091300Y0000358590D03*
X-0010837300D03*
X-0011091300Y0000104590D03*
X-0010837300D03*
X-0011853300Y0000358590D03*
X-0011599300D03*
X-0011345300D03*
X-0011853300Y0000104590D03*
X-0011599300D03*
X-0011345300D03*
X-0012361300Y0000358590D03*
X-0012107300D03*
X-0012361300Y0000104590D03*
X-0012107300D03*
X-0013123300Y0000358590D03*
X-0012869300D03*
X-0012615300D03*
X-0013123300Y0000104590D03*
X-0012869300D03*
X-0012615300D03*
X-0013631300Y0000358590D03*
X-0013377300D03*
X-0013631300Y0000104590D03*
X-0013377300D03*
X-0014393300Y0000358590D03*
X-0014139300D03*
X-0013885300D03*
X-0014393300Y0000104590D03*
X-0014139300D03*
X-0013885300D03*
X-0014901300Y0000358590D03*
X-0014647300D03*
X-0014901300Y0000104590D03*
X-0014647300D03*
X-0015155300Y0000358590D03*
Y0000104590D03*
G54D20*
X-0015864380Y0000024050D03*
%LPD*%
G75*
G54D10*
X-0015864380Y0000024050D03*
Y0006305760D03*
X0Y0D03*
Y0006300000D03*
G54D11*
X-0015155300Y0000104590D03*
Y0000358590D03*
X-0014647300Y0000104590D03*
X-0014901300D03*
X-0014647300Y0000358590D03*
X-0014901300D03*
X-0013885300Y0000104590D03*
X-0014139300D03*
X-0014393300D03*
X-0013885300Y0000358590D03*
X-0014139300D03*
X-0014393300D03*
X-0013377300Y0000104590D03*
X-0013631300D03*
X-0013377300Y0000358590D03*
X-0013631300D03*
X-0012615300Y0000104590D03*
X-0012869300D03*
X-0013123300D03*
X-0012615300Y0000358590D03*
X-0012869300D03*
X-0013123300D03*
X-0012107300Y0000104590D03*
X-0012361300D03*
X-0012107300Y0000358590D03*
X-0012361300D03*
X-0011345300Y0000104590D03*
X-0011599300D03*
X-0011853300D03*
X-0011345300Y0000358590D03*
X-0011599300D03*
X-0011853300D03*
X-0010837300Y0000104590D03*
X-0011091300D03*
X-0010837300Y0000358590D03*
X-0011091300D03*
X-0010329300Y0000104590D03*
X-0010583300D03*
X-0010329300Y0000358590D03*
X-0010583300D03*
X-0008297680Y0000105840D03*
X-0008551680D03*
X-0008297680Y0000359840D03*
X-0008551680D03*
X-0007535680Y0000105840D03*
X-0007789680D03*
X-0008043680D03*
X-0007535680Y0000359840D03*
X-0007789680D03*
X-0008043680D03*
X-0007027680Y0000105840D03*
X-0007281680D03*
X-0007027680Y0000359840D03*
X-0007281680D03*
X-0006265680D03*
X-0006519680D03*
Y0000105840D03*
X-0006265680D03*
X-0006773680D03*
Y0000359840D03*
X-0005757680Y0000105840D03*
X-0006011680D03*
X-0005757680Y0000359840D03*
X-0006011680D03*
X-0005503680Y0000105840D03*
Y0000359840D03*
G54D12*
X-0015194180Y0006379280D03*
X-0010896180D03*
G54D13*
X-0014495180Y0003863400D03*
X-0014995180D03*
X-0013866810Y0003574310D03*
X-0014368670Y0003772110D03*
X-0014252050Y0003574310D03*
X-0014158870Y0003439880D03*
X-0013949530Y0003446130D03*
X-0013895410Y0004104760D03*
X-0013782320Y0003144330D03*
X-0013570360Y0003034070D03*
X-0013360970D03*
X-0013782180Y0003479010D03*
X-0013809290Y0003678930D03*
X-0013664150Y0003162250D03*
X-0013632180Y0003479660D03*
X-0013267790Y0003162250D03*
X-0013296660Y0003821340D03*
X-0013337490Y0004102970D03*
X-0012744520Y0003719500D03*
X-0012990000Y0003610000D03*
X-0013037510Y0003199010D03*
X-0013166710Y0004104760D03*
X-0012895180Y0003863400D03*
X-0012321460Y0001658570D03*
X-0012074870Y0003018450D03*
X-0012000000Y0003610000D03*
X-0011880770Y0001211490D03*
X-0011353870Y0001566350D03*
X-0011880770Y0001465830D03*
X-0011878190Y0002034210D03*
X-0011852440Y0003245370D03*
X-0011843160Y0003677180D03*
X-0011333920Y0003681670D03*
X-0011312150Y0003266670D03*
X-0011395180Y0003800000D03*
X-0011295180Y0003863400D03*
X-0011595180Y0003852450D03*
X-0010837300Y0001547560D03*
X-0010953300Y0002898940D03*
X-0010712350Y0003130920D03*
X-0011232100Y0003189620D03*
X-0011095180Y0003863400D03*
X-0011195180Y0003800000D03*
X-0009531000Y0001660180D03*
X-0009469090Y0001864710D03*
X-0009795450D03*
X-0009824720Y0002040000D03*
X-0009480240Y0002830190D03*
X-0009680540Y0003714990D03*
X-0009292820Y0001753360D03*
X-0009195010Y0001941890D03*
X-0008935010D03*
X-0009382970Y0002036890D03*
X-0009028990Y0002128970D03*
X-0009225700Y0002707690D03*
X-0008908930Y0002906310D03*
X-0008908100Y0002758020D03*
X-0009324840Y0003714990D03*
X-0008940000Y0003710000D03*
X-0009111570Y0003700000D03*
X-0009187710Y0004421890D03*
X-0008454610Y0003721160D03*
X-0008734550Y0003710350D03*
X-0007789950Y0000810200D03*
X-0007536720Y0002593030D03*
X-0008113480Y0003721160D03*
X-0007991430Y0003826550D03*
X-0007993140Y0003944690D03*
X-0007383970Y0002307300D03*
X-0003172450Y0000764850D03*
X-0002734370Y0001020580D03*
X-0002129470Y-0000185880D03*
X-0002429770Y-0000111130D03*
X-0002244810Y0000468560D03*
X-0002125800Y0001033520D03*
X-0001821590Y0000279690D03*
X-0000693270Y0001582010D03*
Y0001904250D03*
X-0000688320Y0005279130D03*
X-0000584140Y0005045950D03*
X-0000209840Y0000925000D03*
X-0000265000Y0001685000D03*
X-0000212030Y0001307500D03*
X-0000264500Y0002069500D03*
X-0000265000Y0002450000D03*
X-0000268180Y0002831500D03*
X-0000214910Y0002704620D03*
X-0000265000Y0003593500D03*
X-0000268180Y0003974500D03*
X-0000217420Y0004355500D03*
X-0000215350Y0004736500D03*
X-0000210000Y0004490000D03*
X-0000213090Y0004863500D03*
X-0000055000Y0005565000D03*
X-0000215360Y0005117500D03*
X-0000219500Y0005498500D03*
X-0000217410Y0005244500D03*
X0000637500Y0000672500D03*
X0000127500D03*
X0000124500Y0001180500D03*
X0000644500D03*
X0000650000Y0001050000D03*
X0000290000Y0000925000D03*
X0000295000Y0000795000D03*
X0000125000Y0001055000D03*
X0000651500Y0001688500D03*
X0000655000Y0001560000D03*
X0000287500Y0001307500D03*
X0000112350Y0001561500D03*
X0000655000Y0002195000D03*
Y0002065000D03*
X0000294870Y0002196500D03*
X0000108200Y0001942500D03*
X0000104060Y0002323500D03*
X0000294540Y0002069500D03*
X0000290960Y0001942500D03*
X0000652500Y0002577500D03*
X0000655000Y0002705000D03*
X0000294870Y0002577500D03*
X0000099910Y0002704500D03*
X0000290720Y0002958500D03*
X0000106130Y0003085500D03*
X0000616360D03*
X0000296320Y0002764980D03*
X0000101980Y0003466500D03*
X0000296950Y0003339500D03*
X0000301090Y0003720500D03*
X0000614290D03*
X0000616360Y0003593500D03*
Y0003212500D03*
X0000300000Y0003470000D03*
X0000293500Y0003593500D03*
X0000100000Y0003600000D03*
X0000110000Y0003690000D03*
Y0003800000D03*
Y0004260000D03*
X0000292800Y0004101500D03*
X0000610140Y0004228500D03*
Y0004101500D03*
X0000614440Y0004355500D03*
X0000110000Y0003974500D03*
Y0004100000D03*
X0000612500Y0003850000D03*
X0000614500Y0003974500D03*
X0000300000Y0003847500D03*
X0000295500Y0003974500D03*
X0000612210Y0004609500D03*
X0000616360Y0004736500D03*
X0000104060Y0004609500D03*
X0000106130Y0004990500D03*
X0000617070Y0004482500D03*
X0000312400Y0004609500D03*
X0000296670Y0004932670D03*
X0000100000Y0005498500D03*
X0000616360Y0005117500D03*
X0000612210Y0005371500D03*
X0000296950Y0005244500D03*
X0000106130Y0005371500D03*
X0000292800Y0005498500D03*
X0000618430Y0005625500D03*
X0000108210D03*
X0000296470Y0005117500D03*
X0000299470Y0005371500D03*
X0000291510Y0005625500D03*
X0000617410Y0005498500D03*
X0000102950Y0005117500D03*
G54D14*
X-0000105000Y0005868000D03*
X0000200000Y0000430000D03*
G54D15*
G01X-0001432310Y0006375830D02*
X-0001422650Y0006388530D01*
X-0001411390Y0006394880D01*
X-0001398520Y0006397000D01*
X-0001382440Y0006392770D01*
X-0001371170Y0006382180D01*
X-0001367960Y0006369490D01*
X-0001369570Y0006356780D01*
X-0001376000Y0006346200D01*
X-0001408170Y0006325030D01*
X-0001422650Y0006310220D01*
X-0001432310Y0006289050D01*
X-0001435520Y0006270000D01*
X-0001367960D01*
G54D16*
G01X-0015864380Y-0000241000D02*
Y0000024050D01*
G01X-0016056880Y-0000168450D02*
X-0015864380Y0000024050D01*
G01D02*
X-0015671880Y-0000168450D01*
G01X-0015864380Y0000024050D02*
Y0000289100D01*
G01X-0016129430Y0000024050D02*
X-0015864380D01*
G01D02*
X-0015599330D01*
G01X-0015864380D02*
X-0015671880Y0000216550D01*
G01X-0016056880D02*
X-0015864380Y0000024050D01*
G01Y0006040710D02*
Y0006305760D01*
G01X-0016056880Y0006113260D02*
X-0015864380Y0006305760D01*
G01D02*
X-0015671880Y0006113260D01*
G01X-0016129430Y0006305760D02*
X-0015864380D01*
G01D02*
X-0015599330D01*
G01X-0015864380D02*
X-0015671880Y0006498260D01*
G01X-0016056880D02*
X-0015864380Y0006305760D01*
G01X-0015155300Y-0000014410D02*
Y0000104590D01*
G01D02*
Y0000223590D01*
G01X-0015274300Y0000104590D02*
X-0015155300D01*
G01D02*
X-0015036300D01*
G01X-0015244530Y0000015360D02*
X-0015155300Y0000104590D01*
G01D02*
X-0015066070Y0000193820D01*
G01X-0015244530D02*
X-0015155300Y0000104590D01*
G01D02*
X-0015066070Y0000015360D01*
G01X-0014647300Y0000239590D02*
Y0000358590D01*
G01D02*
Y0000477590D01*
G01X-0014766300Y0000358590D02*
X-0014647300D01*
G01D02*
X-0014528300D01*
G01X-0014736530Y0000269360D02*
X-0014647300Y0000358590D01*
G01D02*
X-0014558070Y0000447820D01*
G01X-0014736530D02*
X-0014647300Y0000358590D01*
G01D02*
X-0014558070Y0000269360D01*
G01X-0014647300Y-0000014410D02*
Y0000104590D01*
G01D02*
Y0000223590D01*
G01X-0014766300Y0000104590D02*
X-0014647300D01*
G01D02*
X-0014528300D01*
G01X-0014736530Y0000015360D02*
X-0014647300Y0000104590D01*
G01D02*
X-0014558070Y0000193820D01*
G01X-0014736530D02*
X-0014647300Y0000104590D01*
G01D02*
X-0014558070Y0000015360D01*
G01X-0014139300Y0000239590D02*
Y0000358590D01*
G01D02*
Y0000477590D01*
G01X-0014258300Y0000358590D02*
X-0014139300D01*
G01D02*
X-0014020300D01*
G01X-0014228530Y0000269360D02*
X-0014139300Y0000358590D01*
G01D02*
X-0014050070Y0000447820D01*
G01X-0014228530D02*
X-0014139300Y0000358590D01*
G01D02*
X-0014050070Y0000269360D01*
G01X-0014139300Y-0000014410D02*
Y0000104590D01*
G01D02*
Y0000223590D01*
G01X-0014258300Y0000104590D02*
X-0014139300D01*
G01D02*
X-0014020300D01*
G01X-0014228530Y0000015360D02*
X-0014139300Y0000104590D01*
G01D02*
X-0014050070Y0000193820D01*
G01X-0014228530D02*
X-0014139300Y0000104590D01*
G01D02*
X-0014050070Y0000015360D01*
G01X-0013631300Y0000239590D02*
Y0000358590D01*
G01D02*
Y0000477590D01*
G01X-0013750300Y0000358590D02*
X-0013631300D01*
G01D02*
X-0013512300D01*
G01X-0013720530Y0000269360D02*
X-0013631300Y0000358590D01*
G01D02*
X-0013542070Y0000447820D01*
G01X-0013720530D02*
X-0013631300Y0000358590D01*
G01D02*
X-0013542070Y0000269360D01*
G01X-0013631300Y-0000014410D02*
Y0000104590D01*
G01D02*
Y0000223590D01*
G01X-0013750300Y0000104590D02*
X-0013631300D01*
G01D02*
X-0013512300D01*
G01X-0013720530Y0000015360D02*
X-0013631300Y0000104590D01*
G01D02*
X-0013542070Y0000193820D01*
G01X-0013720530D02*
X-0013631300Y0000104590D01*
G01D02*
X-0013542070Y0000015360D01*
G01X-0008043680Y-0000013160D02*
Y0000105840D01*
G01D02*
Y0000224840D01*
G01X-0008162680Y0000105840D02*
X-0008043680D01*
G01D02*
X-0007924680D01*
G01X-0008132910Y0000016610D02*
X-0008043680Y0000105840D01*
G01D02*
X-0007954450Y0000195070D01*
G01X-0008132910D02*
X-0008043680Y0000105840D01*
G01D02*
X-0007954450Y0000016610D01*
G01X-0007281680Y-0000013160D02*
Y0000105840D01*
G01D02*
Y0000224840D01*
G01X-0007400680Y0000105840D02*
X-0007281680D01*
G01D02*
X-0007162680D01*
G01X-0007370910Y0000016610D02*
X-0007281680Y0000105840D01*
G01D02*
X-0007192450Y0000195070D01*
G01X-0007370910D02*
X-0007281680Y0000105840D01*
G01D02*
X-0007192450Y0000016610D01*
G01X-0007027680Y-0000013160D02*
Y0000105840D01*
G01D02*
Y0000224840D01*
G01X-0007146680Y0000105840D02*
X-0007027680D01*
G01D02*
X-0006908680D01*
G01X-0007116910Y0000016610D02*
X-0007027680Y0000105840D01*
G01D02*
X-0006938450Y0000195070D01*
G01X-0007116910D02*
X-0007027680Y0000105840D01*
G01D02*
X-0006938450Y0000016610D01*
G01X-0006773680Y-0000013160D02*
Y0000105840D01*
G01D02*
Y0000224840D01*
G01X-0006892680Y0000105840D02*
X-0006773680D01*
G01D02*
X-0006654680D01*
G01X-0006862910Y0000016610D02*
X-0006773680Y0000105840D01*
G01D02*
X-0006684450Y0000195070D01*
G01X-0006862910D02*
X-0006773680Y0000105840D01*
G01D02*
X-0006684450Y0000016610D01*
G01X-0006384680Y0000105840D02*
X-0006265680D01*
G01X-0006354910Y0000016610D02*
X-0006265680Y0000105840D01*
G01X-0006354910Y0000195070D02*
X-0006265680Y0000105840D01*
G01X-0006519680Y-0000013160D02*
Y0000105840D01*
G01D02*
Y0000224840D01*
G01X-0006638680Y0000105840D02*
X-0006519680D01*
G01D02*
X-0006400680D01*
G01X-0006608910Y0000016610D02*
X-0006519680Y0000105840D01*
G01D02*
X-0006430450Y0000195070D01*
G01X-0006608910D02*
X-0006519680Y0000105840D01*
G01D02*
X-0006430450Y0000016610D01*
G01X-0006011680Y-0000013160D02*
Y0000105840D01*
G01D02*
Y0000224840D01*
G01X-0006130680Y0000105840D02*
X-0006011680D01*
G01D02*
X-0005892680D01*
G01X-0006100910Y0000016610D02*
X-0006011680Y0000105840D01*
G01D02*
X-0005922450Y0000195070D01*
G01X-0006100910D02*
X-0006011680Y0000105840D01*
G01D02*
X-0005922450Y0000016610D01*
G01X-0005757680Y-0000013160D02*
Y0000105840D01*
G01D02*
Y0000224840D01*
G01X-0005876680Y0000105840D02*
X-0005757680D01*
G01D02*
X-0005638680D01*
G01X-0005846910Y0000016610D02*
X-0005757680Y0000105840D01*
G01D02*
X-0005668450Y0000195070D01*
G01X-0005846910D02*
X-0005757680Y0000105840D01*
G01D02*
X-0005668450Y0000016610D01*
G01X-0006265680Y-0000013160D02*
Y0000105840D01*
G01D02*
Y0000224840D01*
G01Y0000105840D02*
X-0006146680D01*
G01X-0006265680D02*
X-0006176450Y0000195070D01*
G01X-0006265680Y0000105840D02*
X-0006176450Y0000016610D01*
G01X-0005503680Y-0000013160D02*
Y0000105840D01*
G01D02*
Y0000224840D01*
G01X-0005622680Y0000105840D02*
X-0005503680D01*
G01D02*
X-0005384680D01*
G01X-0005592910Y0000016610D02*
X-0005503680Y0000105840D01*
G01D02*
X-0005414450Y0000195070D01*
G01X-0005592910D02*
X-0005503680Y0000105840D01*
G01D02*
X-0005414450Y0000016610D01*
G01X-0000192500Y-0000192500D02*
X0Y0D01*
G01D02*
Y0000265050D01*
G01X-0000265050Y0D02*
X0D01*
G01D02*
X0000265050D01*
G01X0D02*
X0000192500Y0000192500D01*
G01X-0000192500D02*
X0Y0D01*
G01D02*
X0000192500Y-0000192500D01*
G01X0Y0006034950D02*
Y0006300000D01*
G01X-0000192500Y0006107500D02*
X0Y0006300000D01*
G01X-0000265050D02*
X0D01*
G01D02*
X0000265050D01*
G01X0D02*
X0000192500Y0006492500D01*
G01X-0000192500D02*
X0Y0006300000D01*
G01D02*
X0000192500Y0006107500D01*
M02*
