G04 ================== begin FILE IDENTIFICATION RECORD ==================*
G04 Layout Name:  pc042a_toplevel_25.brd*
G04 Film Name:    PC042A_SOLDERMASK_BOTTOM*
G04 File Format:  Gerber RS274X*
G04 File Origin:  Cadence Allegro 16.3-S013*
G04 Origin Date:  Mon Sep 19 15:02:03 2011*
G04 *
G04 Layer:  PIN/SOLDERMASK_BOTTOM*
G04 Layer:  PACKAGE GEOMETRY/SOLDERMASK_BOTTOM*
G04 Layer:  BOARD GEOMETRY/SOLDERMASK_BOTTOM*
G04 *
G04 Offset:    (0.0000 0.0000)*
G04 Mirror:    No*
G04 Mode:      Positive*
G04 Rotation:  0*
G04 FullContactRelief:  No*
G04 UndefLineWidth:     0.0000*
G04 ================== end FILE IDENTIFICATION RECORD ====================*
%FSAX55Y55*MOMM*%
%IR0*IPPOS*OFA0.00000B0.00000*MIA0B0*SFA1.00000B1.00000*%
%ADD16R,1.X.4*%
%AMMACRO17*
21,1,1.25,1.15,0.0,0.0,135.*%
%ADD17MACRO17*%
%ADD13R,.75X1.7*%
%ADD18R,1.905X.889*%
%ADD19R,2.286X.889*%
%ADD15R,1.15X1.25*%
%ADD14R,1.25X1.15*%
%ADD20C,1.3*%
%ADD10C,4.1402*%
%ADD12C,2.286*%
%ADD11C,1.778*%
%LPD*%
G75*
G54D10*
X-0015864380Y0000024050D03*
Y0006305760D03*
X0Y0D03*
Y0006300000D03*
G54D11*
X-0015155300Y0000104590D03*
Y0000358590D03*
X-0014647300Y0000104590D03*
X-0014901300D03*
X-0014647300Y0000358590D03*
X-0014901300D03*
X-0013885300Y0000104590D03*
X-0014139300D03*
X-0014393300D03*
X-0013885300Y0000358590D03*
X-0014139300D03*
X-0014393300D03*
X-0013377300Y0000104590D03*
X-0013631300D03*
X-0013377300Y0000358590D03*
X-0013631300D03*
X-0012615300Y0000104590D03*
X-0012869300D03*
X-0013123300D03*
X-0012615300Y0000358590D03*
X-0012869300D03*
X-0013123300D03*
X-0012107300Y0000104590D03*
X-0012361300D03*
X-0012107300Y0000358590D03*
X-0012361300D03*
X-0011345300Y0000104590D03*
X-0011599300D03*
X-0011853300D03*
X-0011345300Y0000358590D03*
X-0011599300D03*
X-0011853300D03*
X-0010837300Y0000104590D03*
X-0011091300D03*
X-0010837300Y0000358590D03*
X-0011091300D03*
X-0010329300Y0000104590D03*
X-0010583300D03*
X-0010329300Y0000358590D03*
X-0010583300D03*
X-0008297680Y0000105840D03*
X-0008551680D03*
X-0008297680Y0000359840D03*
X-0008551680D03*
X-0007535680Y0000105840D03*
X-0007789680D03*
X-0008043680D03*
X-0007535680Y0000359840D03*
X-0007789680D03*
X-0008043680D03*
X-0007027680Y0000105840D03*
X-0007281680D03*
X-0007027680Y0000359840D03*
X-0007281680D03*
X-0006265680D03*
X-0006519680D03*
Y0000105840D03*
X-0006265680D03*
X-0006773680D03*
Y0000359840D03*
X-0005757680Y0000105840D03*
X-0006011680D03*
X-0005757680Y0000359840D03*
X-0006011680D03*
X-0005503680Y0000105840D03*
Y0000359840D03*
G54D20*
X-0000105000Y0005868000D03*
X0000200000Y0000430000D03*
G54D12*
X-0015194180Y0006379280D03*
X-0010896180D03*
G54D13*
X-0014495180Y0003984080D03*
X-0014595180D03*
X-0014695180D03*
X-0014795180D03*
X-0014895180D03*
X-0014995180D03*
X-0013895180D03*
X-0013995180D03*
X-0014095180D03*
X-0014195180D03*
X-0014295180D03*
X-0014395180D03*
X-0013295180D03*
X-0013395180D03*
X-0013495180D03*
X-0013595180D03*
X-0013695180D03*
X-0013795180D03*
X-0012595180D03*
X-0012695180D03*
X-0012795180D03*
X-0012895180D03*
X-0012995180D03*
X-0013095180D03*
X-0013195180D03*
X-0011995180D03*
X-0012095180D03*
X-0012195180D03*
X-0012295180D03*
X-0012395180D03*
X-0012495180D03*
X-0011395180D03*
X-0011495180D03*
X-0011595180D03*
X-0011695180D03*
X-0011795180D03*
X-0011895180D03*
X-0011095180D03*
X-0011195180D03*
X-0011295180D03*
G54D14*
X-0013950630Y0003137840D03*
X-0014158380Y0003138720D03*
X-0013950630Y0003287840D03*
X-0014158380Y0003288720D03*
X-0013782320Y0003232510D03*
Y0003382510D03*
X-0007789950Y0000572620D03*
Y0000722620D03*
X-0002129470Y-0000083020D03*
Y0000468560D03*
Y0000318560D03*
Y0000066980D03*
X-0001946100Y0000279690D03*
Y0000129690D03*
X-0002125800Y0000939820D03*
Y0000789820D03*
G54D15*
X-0013959290Y0003772110D03*
X-0014130490D03*
X-0014280490D03*
X-0013548680Y0003382500D03*
X-0013398680D03*
X-0013187510Y0003323870D03*
X-0013809290Y0003772110D03*
X-0013782180Y0003572840D03*
X-0013632180D03*
X-0013534840Y0003821340D03*
X-0013384840D03*
X-0013037510Y0003323870D03*
X-0012594520Y0003812680D03*
X-0012744520D03*
X-0011694000Y0003785040D03*
X-0011844000D03*
X-0010175000Y0004740000D03*
X-0009442820Y0001660180D03*
X-0009705000Y0002040000D03*
X-0009555000D03*
X-0009567460Y0003714990D03*
X-0009417460D03*
X-0010025000Y0004740000D03*
X-0009292820Y0001660180D03*
X-0009375700Y0002830190D03*
X-0009225700D03*
X-0008352320Y0003721160D03*
X-0008202320D03*
X-0002991910Y0001020580D03*
X-0002841910D03*
G54D16*
X-0013948870Y0003509310D03*
Y0003574310D03*
Y0003639310D03*
X-0014158870D03*
Y0003574310D03*
Y0003509310D03*
X-0013360970Y0003097250D03*
X-0013570970D03*
X-0013360970Y0003162250D03*
Y0003227250D03*
X-0013570970D03*
Y0003162250D03*
G54D17*
X-0011919350Y0003173290D03*
X-0012025410Y0003067230D03*
X-0010895550Y0002947720D03*
X-0010789490Y0003053780D03*
G54D18*
X-0002989770Y0000510850D03*
Y0000383850D03*
Y0000256850D03*
Y0000129850D03*
Y0000002850D03*
X-0002429770D03*
Y0000129850D03*
Y0000256850D03*
Y0000383850D03*
Y0000510850D03*
X-0002989770Y0000764850D03*
Y0000637850D03*
X-0002429770D03*
G54D19*
Y0000764850D03*
M02*
